<?xml version="1.0" encoding="utf-8"?>
<!-- Generator: Adobe Illustrator 28.1.0, SVG Export Plug-In . SVG Version: 6.00 Build 0)  -->
<svg version="1.1" id="Layer_1" xmlns="http://www.w3.org/2000/svg" xmlns:xlink="http://www.w3.org/1999/xlink" x="0px" y="0px"
	 viewBox="0 0 1920 1080" style="enable-background:new 0 0 1920 1080;" xml:space="preserve">
<style type="text/css">
	.st0{fill:#263238;}
	.st1{fill:#262D38;stroke:#000000;stroke-width:3;stroke-miterlimit:10;}
	.st2{stroke:#000000;stroke-width:2.470000e-03;stroke-miterlimit:1.9297;}
	.st3{fill:#515151;stroke:#000000;stroke-width:2.470000e-03;stroke-miterlimit:1.9297;}
	.st4{fill:#FFFFFF;stroke:#000000;stroke-width:2.470000e-03;stroke-miterlimit:1.9297;}
	.st5{fill:#DC0000;stroke:#000000;stroke-width:2.470000e-03;stroke-miterlimit:1.9297;}
	.st6{fill:#2F2F2F;stroke:#000000;stroke-width:2.470000e-03;stroke-miterlimit:1.9297;}
	.st7{fill:#38454F;}
	.st8{fill:#546A79;}
	.st9{fill:#DC0000;}
	.st10{fill:#333E48;}
	.st11{fill:#3E4A57;}
	.st12{fill:#2F2F2F;}
	.st13{fill:#656D78;}
	.st14{fill:#CCD1D9;}
	.st15{fill:#AAB2BC;}
	.st16{fill:#FFCE54;}
	.st17{fill:#A0D468;}
	.st18{fill:#ED5564;}
	.st19{fill:#5D9CEC;}
	.st20{fill:#434A54;}
</style>
<g>
	<g>
		
			<rect x="698.71" y="4.68" transform="matrix(0.0937 -0.9956 0.9956 0.0937 374.2637 1407.5383)" class="st0" width="523" height="987.04"/>
		<path d="M494.71,193.27l979.72,92.17l-48.7,517.71L446,710.98L494.71,193.27 M492,190l-49.26,523.69l985.69,92.73l49.26-523.69
			L492,190L492,190z"/>
	</g>
	<g>
		<polygon class="st0" points="806.08,847.35 878.9,753.04 993.67,763.83 1047.62,870.07 		"/>
		<path d="M879.58,754.61l113.12,10.64l52.35,103.07l-236.12-22.21L879.58,754.61 M878.22,751.46l-74.99,97.12l246.97,23.23
			l-55.56-109.4L878.22,751.46L878.22,751.46z"/>
	</g>
	<path class="st1" d="M1347.43,273.13l128.38,12.08l-10.9,115.91c0,0-442.89-75.68-466.57,105.99S483.11,717.48,483.11,717.48
		l-40.38-3.8l15.21-161.67c0,0,398.36,6.57,481.26-92.99S1347.43,273.13,1347.43,273.13z"/>
</g>
<g id="SVGRepo_iconCarrier">
	
		<rect x="435.74" y="454.36" transform="matrix(0.2442 -0.9697 0.9697 0.2442 -350.5729 1152.4584)" class="st2" width="256.53" height="693.52"/>
	<g>
		
			<rect x="300.5" y="637.98" transform="matrix(0.2442 -0.9697 0.9697 0.2442 -402.2021 805.1694)" class="st3" width="29.81" height="45.23"/>
		
			<rect x="359.85" y="652.92" transform="matrix(0.2442 -0.9697 0.9697 0.2442 -371.8378 874.007)" class="st3" width="29.81" height="45.23"/>
		
			<rect x="419.2" y="667.86" transform="matrix(0.2442 -0.9697 0.9697 0.2442 -341.4681 942.8568)" class="st3" width="29.81" height="45.23"/>
		
			<rect x="478.54" y="682.8" transform="matrix(0.2442 -0.9697 0.9697 0.2442 -311.1038 1011.6943)" class="st3" width="29.81" height="45.23"/>
		
			<rect x="537.89" y="697.74" transform="matrix(0.2442 -0.9697 0.9697 0.2442 -280.7342 1080.5441)" class="st3" width="29.81" height="45.23"/>
		
			<rect x="597.23" y="712.69" transform="matrix(0.2442 -0.9697 0.9697 0.2442 -250.3699 1149.3816)" class="st3" width="29.81" height="45.23"/>
		
			<rect x="656.53" y="727.62" transform="matrix(0.2442 -0.9697 0.9697 0.2442 -220.0271 1218.1704)" class="st3" width="29.81" height="45.23"/>
		
			<rect x="715.9" y="742.56" transform="matrix(0.2442 -0.9697 0.9697 0.2442 -189.6467 1287.0446)" class="st3" width="29.81" height="45.23"/>
		
			<rect x="775.26" y="757.51" transform="matrix(0.2442 -0.9697 0.9697 0.2442 -159.2716 1355.9065)" class="st3" width="29.81" height="45.23"/>
		
			<rect x="834.65" y="772.46" transform="matrix(0.2442 -0.9697 0.9697 0.2442 -128.8858 1424.7928)" class="st3" width="29.81" height="45.23"/>
		
			<rect x="291.01" y="675.71" transform="matrix(0.2442 -0.9697 0.9697 0.2442 -445.9698 824.4754)" class="st3" width="29.81" height="45.23"/>
		
			<rect x="350.35" y="690.65" transform="matrix(0.2442 -0.9697 0.9697 0.2442 -415.6055 893.3129)" class="st3" width="29.81" height="45.23"/>
		
			<rect x="409.7" y="705.59" transform="matrix(0.2442 -0.9697 0.9697 0.2442 -385.2358 962.1627)" class="st3" width="29.81" height="45.23"/>
		
			<rect x="469.04" y="720.53" transform="matrix(0.2442 -0.9697 0.9697 0.2442 -354.8715 1031.0002)" class="st3" width="29.81" height="45.23"/>
		
			<rect x="528.39" y="735.47" transform="matrix(0.2442 -0.9697 0.9697 0.2442 -324.5018 1099.85)" class="st3" width="29.81" height="45.23"/>
		
			<rect x="587.73" y="750.41" transform="matrix(0.2442 -0.9697 0.9697 0.2442 -294.1375 1168.6876)" class="st3" width="29.81" height="45.23"/>
		
			<rect x="647.03" y="765.34" transform="matrix(0.2442 -0.9697 0.9697 0.2442 -263.7948 1237.4764)" class="st3" width="29.81" height="45.23"/>
		
			<rect x="706.4" y="780.29" transform="matrix(0.2442 -0.9697 0.9697 0.2442 -233.4144 1306.3506)" class="st3" width="29.81" height="45.23"/>
		
			<rect x="765.76" y="795.24" transform="matrix(0.2442 -0.9697 0.9697 0.2442 -203.0393 1375.2125)" class="st3" width="29.81" height="45.23"/>
		
			<rect x="825.15" y="810.19" transform="matrix(0.2442 -0.9697 0.9697 0.2442 -172.6535 1444.0989)" class="st3" width="29.81" height="45.23"/>
		
			<rect x="281.5" y="713.45" transform="matrix(0.2442 -0.9697 0.9697 0.2442 -489.7575 843.7902)" class="st3" width="29.81" height="45.23"/>
		
			<rect x="340.84" y="728.39" transform="matrix(0.2442 -0.9697 0.9697 0.2442 -459.3932 912.6277)" class="st3" width="29.81" height="45.23"/>
		
			<rect x="400.19" y="743.34" transform="matrix(0.2442 -0.9697 0.9697 0.2442 -429.0235 981.4775)" class="st3" width="29.81" height="45.23"/>
		
			<rect x="459.53" y="758.28" transform="matrix(0.2442 -0.9697 0.9697 0.2442 -398.6592 1050.3151)" class="st3" width="29.81" height="45.23"/>
		
			<rect x="518.89" y="773.22" transform="matrix(0.2442 -0.9697 0.9697 0.2442 -368.2896 1119.1648)" class="st3" width="29.81" height="45.23"/>
		
			<rect x="578.23" y="788.16" transform="matrix(0.2442 -0.9697 0.9697 0.2442 -337.9253 1188.0023)" class="st3" width="29.81" height="45.23"/>
		
			<rect x="637.53" y="803.09" transform="matrix(0.2442 -0.9697 0.9697 0.2442 -307.5825 1256.7911)" class="st3" width="29.81" height="45.23"/>
		
			<rect x="696.9" y="818.04" transform="matrix(0.2442 -0.9697 0.9697 0.2442 -277.2021 1325.6653)" class="st3" width="29.81" height="45.23"/>
		
			<rect x="756.26" y="832.99" transform="matrix(0.2442 -0.9697 0.9697 0.2442 -246.827 1394.5272)" class="st3" width="29.81" height="45.23"/>
		
			<rect x="815.64" y="847.94" transform="matrix(0.2442 -0.9697 0.9697 0.2442 -216.4412 1463.4136)" class="st3" width="29.81" height="45.23"/>
		
			<rect x="361.04" y="773.59" transform="matrix(0.2442 -0.9697 0.9697 0.2442 -487.9552 966.3785)" class="st3" width="29.81" height="45.23"/>
		
			<rect x="420.38" y="788.53" transform="matrix(0.2442 -0.9697 0.9697 0.2442 -457.5909 1035.2161)" class="st3" width="29.81" height="45.23"/>
		
			<rect x="479.73" y="803.48" transform="matrix(0.2442 -0.9697 0.9697 0.2442 -427.2213 1104.0658)" class="st3" width="29.81" height="45.23"/>
		
			<rect x="539.08" y="818.42" transform="matrix(0.2442 -0.9697 0.9697 0.2442 -396.857 1172.9034)" class="st3" width="29.81" height="45.23"/>
		
			<rect x="598.42" y="833.36" transform="matrix(0.2442 -0.9697 0.9697 0.2442 -366.4927 1241.741)" class="st3" width="29.81" height="45.23"/>
		
			<rect x="657.77" y="848.3" transform="matrix(0.2442 -0.9697 0.9697 0.2442 -336.123 1310.5907)" class="st3" width="29.81" height="45.23"/>
		
			<rect x="717.11" y="863.24" transform="matrix(0.2442 -0.9697 0.9697 0.2442 -305.7588 1379.4282)" class="st3" width="29.81" height="45.23"/>
		
			<rect x="286.85" y="739.6" transform="matrix(0.2442 -0.9697 0.9697 0.2442 -525.9173 880.3163)" class="st3" width="29.81" height="75.85"/>
		
			<rect x="791.25" y="866.6" transform="matrix(0.2442 -0.9697 0.9697 0.2442 -267.8181 1465.4418)" class="st3" width="29.81" height="75.85"/>
		
			<rect x="262.5" y="788.94" transform="matrix(0.2442 -0.9697 0.9697 0.2442 -577.3229 882.4153)" class="st3" width="29.81" height="45.23"/>
		
			<rect x="321.84" y="803.88" transform="matrix(0.2442 -0.9697 0.9697 0.2442 -546.9586 951.2529)" class="st3" width="29.81" height="45.23"/>
		
			<rect x="381.19" y="818.82" transform="matrix(0.2442 -0.9697 0.9697 0.2442 -516.5889 1020.1027)" class="st3" width="29.81" height="45.23"/>
		
			<rect x="529.57" y="764.36" transform="matrix(0.2442 -0.9697 0.9697 0.2442 -440.6647 1192.2271)" class="st3" width="29.81" height="228.86"/>
		
			<rect x="677.89" y="893.52" transform="matrix(0.2442 -0.9697 0.9697 0.2442 -364.7675 1364.2904)" class="st3" width="29.81" height="45.23"/>
		
			<rect x="737.25" y="908.47" transform="matrix(0.2442 -0.9697 0.9697 0.2442 -334.3924 1433.1525)" class="st3" width="29.81" height="45.23"/>
		
			<rect x="796.64" y="923.42" transform="matrix(0.2442 -0.9697 0.9697 0.2442 -304.0066 1502.0388)" class="st3" width="29.81" height="45.23"/>
	</g>
	<g>
		
			<rect x="301.61" y="633.6" transform="matrix(0.2442 -0.9697 0.9697 0.2442 -397.1177 802.9267)" class="st4" width="29.81" height="45.23"/>
		
			<rect x="360.95" y="648.54" transform="matrix(0.2442 -0.9697 0.9697 0.2442 -366.7534 871.7643)" class="st4" width="29.81" height="45.23"/>
		
			<rect x="420.3" y="663.48" transform="matrix(0.2442 -0.9697 0.9697 0.2442 -336.3837 940.614)" class="st4" width="29.81" height="45.23"/>
		
			<rect x="479.64" y="678.42" transform="matrix(0.2442 -0.9697 0.9697 0.2442 -306.0194 1009.4516)" class="st4" width="29.81" height="45.23"/>
		
			<rect x="538.99" y="693.36" transform="matrix(0.2442 -0.9697 0.9697 0.2442 -275.6498 1078.3014)" class="st4" width="29.81" height="45.23"/>
		
			<rect x="598.33" y="708.3" transform="matrix(0.2442 -0.9697 0.9697 0.2442 -245.2855 1147.1389)" class="st4" width="29.81" height="45.23"/>
		
			<rect x="657.63" y="723.23" transform="matrix(0.2442 -0.9697 0.9697 0.2442 -214.9427 1215.9277)" class="st4" width="29.81" height="45.23"/>
		
			<rect x="717" y="738.18" transform="matrix(0.2442 -0.9697 0.9697 0.2442 -184.5623 1284.8019)" class="st4" width="29.81" height="45.23"/>
		
			<rect x="776.37" y="753.13" transform="matrix(0.2442 -0.9697 0.9697 0.2442 -154.1872 1353.6638)" class="st4" width="29.81" height="45.23"/>
		
			<rect x="835.75" y="768.08" transform="matrix(0.2442 -0.9697 0.9697 0.2442 -123.8014 1422.5502)" class="st4" width="29.81" height="45.23"/>
		
			<rect x="292.1" y="671.37" transform="matrix(0.2442 -0.9697 0.9697 0.2442 -440.9354 822.2548)" class="st4" width="29.81" height="45.23"/>
		
			<rect x="351.44" y="686.31" transform="matrix(0.2442 -0.9697 0.9697 0.2442 -410.5711 891.0923)" class="st4" width="29.81" height="45.23"/>
		
			<rect x="410.79" y="701.25" transform="matrix(0.2442 -0.9697 0.9697 0.2442 -380.2015 959.9421)" class="st4" width="29.81" height="45.23"/>
		
			<rect x="470.13" y="716.19" transform="matrix(0.2442 -0.9697 0.9697 0.2442 -349.8372 1028.7797)" class="st4" width="29.81" height="45.23"/>
		
			<rect x="529.48" y="731.13" transform="matrix(0.2442 -0.9697 0.9697 0.2442 -319.4675 1097.6294)" class="st4" width="29.81" height="45.23"/>
		
			<rect x="588.82" y="746.08" transform="matrix(0.2442 -0.9697 0.9697 0.2442 -289.1032 1166.4669)" class="st4" width="29.81" height="45.23"/>
		
			<rect x="648.12" y="761" transform="matrix(0.2442 -0.9697 0.9697 0.2442 -258.7604 1235.2557)" class="st4" width="29.81" height="45.23"/>
		
			<rect x="707.49" y="775.95" transform="matrix(0.2442 -0.9697 0.9697 0.2442 -228.38 1304.1299)" class="st4" width="29.81" height="45.23"/>
		
			<rect x="766.86" y="790.9" transform="matrix(0.2442 -0.9697 0.9697 0.2442 -198.005 1372.9918)" class="st4" width="29.81" height="45.23"/>
		
			<rect x="826.24" y="805.85" transform="matrix(0.2442 -0.9697 0.9697 0.2442 -167.6192 1441.8782)" class="st4" width="29.81" height="45.23"/>
		
			<rect x="282.6" y="709.09" transform="matrix(0.2442 -0.9697 0.9697 0.2442 -484.6931 841.5563)" class="st4" width="29.81" height="45.23"/>
		
			<rect x="341.94" y="724.03" transform="matrix(0.2442 -0.9697 0.9697 0.2442 -454.3288 910.3939)" class="st4" width="29.81" height="45.23"/>
		
			<rect x="401.29" y="738.97" transform="matrix(0.2442 -0.9697 0.9697 0.2442 -423.9591 979.2436)" class="st4" width="29.81" height="45.23"/>
		
			<rect x="460.63" y="753.91" transform="matrix(0.2442 -0.9697 0.9697 0.2442 -393.5948 1048.0812)" class="st4" width="29.81" height="45.23"/>
		
			<rect x="519.99" y="768.86" transform="matrix(0.2442 -0.9697 0.9697 0.2442 -363.2252 1116.9309)" class="st4" width="29.81" height="45.23"/>
		
			<rect x="579.33" y="783.8" transform="matrix(0.2442 -0.9697 0.9697 0.2442 -332.8609 1185.7684)" class="st4" width="29.81" height="45.23"/>
		
			<rect x="638.62" y="798.73" transform="matrix(0.2442 -0.9697 0.9697 0.2442 -302.5181 1254.5573)" class="st4" width="29.81" height="45.23"/>
		
			<rect x="698" y="813.67" transform="matrix(0.2442 -0.9697 0.9697 0.2442 -272.1377 1323.4314)" class="st4" width="29.81" height="45.23"/>
		
			<rect x="757.36" y="828.62" transform="matrix(0.2442 -0.9697 0.9697 0.2442 -241.7626 1392.2933)" class="st4" width="29.81" height="45.23"/>
		
			<rect x="816.74" y="843.57" transform="matrix(0.2442 -0.9697 0.9697 0.2442 -211.3768 1461.1797)" class="st4" width="29.81" height="45.23"/>
		
			<rect x="362.14" y="769.24" transform="matrix(0.2442 -0.9697 0.9697 0.2442 -482.9109 964.1534)" class="st4" width="29.81" height="45.23"/>
		
			<rect x="421.48" y="784.18" transform="matrix(0.2442 -0.9697 0.9697 0.2442 -452.5466 1032.9911)" class="st4" width="29.81" height="45.23"/>
		
			<rect x="480.83" y="799.13" transform="matrix(0.2442 -0.9697 0.9697 0.2442 -422.177 1101.8408)" class="st4" width="29.81" height="45.23"/>
		
			<rect x="540.17" y="814.07" transform="matrix(0.2442 -0.9697 0.9697 0.2442 -391.8127 1170.6783)" class="st4" width="29.81" height="45.23"/>
		
			<rect x="599.51" y="829.01" transform="matrix(0.2442 -0.9697 0.9697 0.2442 -361.4484 1239.5159)" class="st4" width="29.81" height="45.23"/>
		
			<rect x="658.86" y="843.95" transform="matrix(0.2442 -0.9697 0.9697 0.2442 -331.0787 1308.3657)" class="st4" width="29.81" height="45.23"/>
		
			<rect x="718.2" y="858.89" transform="matrix(0.2442 -0.9697 0.9697 0.2442 -300.7144 1377.2032)" class="st4" width="29.81" height="45.23"/>
		
			<rect x="287.95" y="735.25" transform="matrix(0.2442 -0.9697 0.9697 0.2442 -520.873 878.0912)" class="st4" width="29.81" height="75.85"/>
		
			<rect x="792.35" y="862.25" transform="matrix(0.2442 -0.9697 0.9697 0.2442 -262.7738 1463.2167)" class="st4" width="29.81" height="75.85"/>
		
			<rect x="263.6" y="784.56" transform="matrix(0.2442 -0.9697 0.9697 0.2442 -572.2485 880.177)" class="st4" width="29.81" height="45.23"/>
		
			<rect x="322.94" y="799.51" transform="matrix(0.2442 -0.9697 0.9697 0.2442 -541.8842 949.0146)" class="st4" width="29.81" height="45.23"/>
		
			<rect x="382.29" y="814.45" transform="matrix(0.2442 -0.9697 0.9697 0.2442 -511.5145 1017.8643)" class="st4" width="29.81" height="45.23"/>
		
			<rect x="530.67" y="759.99" transform="matrix(0.2442 -0.9697 0.9697 0.2442 -435.5904 1189.9888)" class="st4" width="29.81" height="228.86"/>
		
			<rect x="678.99" y="889.15" transform="matrix(0.2442 -0.9697 0.9697 0.2442 -359.6931 1362.0521)" class="st4" width="29.81" height="45.23"/>
		
			<rect x="738.36" y="904.1" transform="matrix(0.2442 -0.9697 0.9697 0.2442 -329.318 1430.9142)" class="st4" width="29.81" height="45.23"/>
		
			<rect x="797.74" y="919.05" transform="matrix(0.2442 -0.9697 0.9697 0.2442 -298.9322 1499.8004)" class="st4" width="29.81" height="45.23"/>
	</g>
	
		<rect x="519.31" y="589.16" transform="matrix(0.2442 -0.9697 0.9697 0.2442 -506.9475 1221.4353)" class="st5" width="21.5" height="693.52"/>
	
		<rect x="564.84" y="632.14" transform="matrix(0.2442 -0.9697 0.9697 0.2442 -160.8345 1068.7646)" class="st6" width="80.7" height="10.84"/>
</g>
<g transform="translate(0 1)">
	<path class="st7" d="M1642.68,209.71l-43.2-95.92c-1.61-1.98-3.48-4.52-5.09-6.49c-10.19-16.35-31.6-23.01-51.74-16.79l0,0
		c-41.28,6.84-81.66,24.04-120.4,53.3l0,0c-18.15,10.72-26.99,30.78-22.35,49.59c3.54,24.67,27.11,51.24,39.68,77.97
		c8.34,17.17,14.2,35.42,16.12,54.76c2.03,17.94-2.72,42.24,5.25,60.24c29.63,66.94,89.9,81.3,152.88,53.42
		c62.98-27.88,90.32-104.57,60.69-171.51c-6.97-15.75-16.78-29.57-27.95-41.45L1642.68,209.71z"/>
	<path class="st8" d="M1459.95,384.12c-7.1-17.71-2.47-40.62-4.51-58.55c-2.53-19.06-7.78-37.59-16.12-54.76
		c-0.25-0.56-0.5-1.13-0.5-1.13C1478.54,316.02,1532.42,384.34,1459.95,384.12"/>
	<path class="st7" d="M1528.46,221.93L1528.46,221.93c6.79-3.01,10.11-10.53,7.37-16.72l-19.92-45c-2.74-6.19-10.54-8.79-17.33-5.78
		c-6.79,3.01-10.11,10.53-7.37,16.72l19.92,45C1513.87,222.34,1521.67,224.94,1528.46,221.93"/>
	<path class="st8" d="M1530.95,227.56c-10.5,4.65-21.76,0.89-25.99-8.68l-19.92-45c-4.23-9.56,0.56-20.43,11.05-25.08
		s21.76-0.89,25.99,8.68l19.92,45C1546.24,212.04,1541.45,222.91,1530.95,227.56z M1501.07,160.05c-3.7,1.64-5.18,4.98-3.68,8.36
		l19.92,45c1.49,3.38,4.96,4.53,8.66,2.89c3.7-1.64,5.18-4.98,3.68-8.36l-19.92-45C1508.24,159.57,1504.77,158.41,1501.07,160.05z"
		/>
	<g transform="translate(19)">
		<path class="st7" d="M1479.58,154.43l-19.92-45"/>
		<path class="st8" d="M1482.07,160.05c-3.7,1.64-7.17,0.48-8.66-2.89l-19.92-45c-1.49-3.38-0.02-6.72,3.68-8.36
			c3.7-1.64,7.17-0.48,8.66,2.89l19.92,45C1487.25,155.07,1485.77,158.41,1482.07,160.05z"/>
	</g>
	<g transform="translate(19 20)">
		<path class="st7" d="M1509.46,201.93l14.94,33.75"/>
		<path class="st8" d="M1526.89,241.31c-3.7,1.64-7.17,0.48-8.66-2.89l-14.94-33.75c-1.49-3.38-0.02-6.72,3.68-8.36
			c3.7-1.64,7.17-0.48,8.66,2.89l14.94,33.75C1532.07,236.33,1530.6,239.67,1526.89,241.31z"/>
	</g>
	<path class="st9" d="M1554.87,364.98c5.48,12.38,21.08,17.58,34.66,11.57c13.58-6.01,20.22-21.06,14.74-33.44
		c-5.48-12.38-21.08-17.58-34.66-11.57C1556.02,337.56,1549.39,352.61,1554.87,364.98"/>
	<path class="st8" d="M1642.68,209.71l-1.73-0.58c-2.21,46.73-12.98,162.5,45.72,111.62c-0.3-17.36-4.43-35.04-11.91-51.92
		c-6.97-15.75-16.78-29.57-27.95-41.45L1642.68,209.71z"/>
</g>
<path class="st9" d="M1667.08,659.45c-14.72,10.03-34.79,6.24-44.83-8.49c-30.88-45.3-92.85-57.03-138.15-26.16
	c-45.3,30.88-57.03,92.85-26.15,138.14c10.03,14.72,6.23,34.79-8.49,44.83c-14.72,10.03-34.79,6.24-44.82-8.49
	c-50.91-74.69-31.56-176.88,43.13-227.79c74.7-50.91,176.88-31.57,227.8,43.13C1685.6,629.35,1681.8,649.42,1667.08,659.45z"/>
<path class="st9" d="M1584.09,549.12c-28.02-0.14-56.36,7.89-81.22,24.83c-43.97,29.97-65.99,80.27-62.09,129.86
	c1.01-30.65,16.1-60.45,43.33-79c45.3-30.88,107.27-19.14,138.15,26.16c10.03,14.72,30.1,18.52,44.83,8.49s18.52-30.1,8.49-44.82
	C1652.91,581.39,1620.11,559.12,1584.09,549.12z"/>
<path class="st10" d="M1632.38,644.06c-39.88,27.18-50.18,81.55-22.99,121.43l39.57,58.06c27.18,39.88,81.56,50.18,121.44,22.99
	l27.03-18.42c39.88-27.18,50.18-81.55,22.99-121.44l-39.57-58.06c-27.19-39.88-81.55-50.18-121.44-22.99L1632.38,644.06
	L1632.38,644.06z"/>
<path class="st11" d="M1793.4,725.11c27.18,39.88,16.89,94.25-23,121.44c-39.88,27.18-94.25,16.89-121.44-22.99l-39.57-58.06
	c-27.19-39.88-16.89-94.25,22.99-121.43c39.88-27.19,94.25-16.89,121.44,22.99L1793.4,725.11L1793.4,725.11z"/>
<g>
	<path class="st10" d="M1764.15,733.11c19.56,28.69,12.15,67.8-16.54,87.36s-67.8,12.15-87.36-16.54l-28.47-41.76
		c-19.55-28.69-12.15-67.8,16.54-87.35c28.69-19.56,67.8-12.15,87.36,16.54L1764.15,733.11L1764.15,733.11z"/>
	<path class="st10" d="M1421.94,787.5c-39.88,27.18-50.18,81.55-22.99,121.43l39.57,58.06c27.18,39.88,81.55,50.18,121.43,22.99
		l27.03-18.42c39.88-27.18,50.18-81.55,22.99-121.44l-39.57-58.06c-27.19-39.88-81.55-50.18-121.44-22.99L1421.94,787.5
		L1421.94,787.5z"/>
</g>
<path class="st11" d="M1582.95,868.55c27.18,39.88,16.89,94.25-22.99,121.44c-39.88,27.18-94.25,16.89-121.43-22.99l-39.57-58.06
	c-27.19-39.88-16.89-94.25,22.99-121.43c39.88-27.18,94.25-16.89,121.44,22.99L1582.95,868.55z"/>
<path class="st9" d="M1553.7,876.55c19.56,28.69,12.15,67.8-16.54,87.36c-28.69,19.56-67.8,12.15-87.36-16.54l-28.47-41.76
	c-19.55-28.69-12.15-67.8,16.54-87.35c28.69-19.56,67.8-12.15,87.36,16.54L1553.7,876.55z"/>
<circle class="st12" cx="1487.52" cy="891.08" r="37.99"/>
<rect x="1663.43" y="875.25" transform="matrix(0.8263 -0.5632 0.5632 0.8263 -217.9312 1099.5924)" class="st10" width="20.78" height="55.75"/>
<g>
	
		<rect x="1653.35" y="885.34" transform="matrix(0.8263 -0.5632 0.5632 0.8263 -211.3481 1091.3406)" class="st11" width="20.78" height="5.99"/>
	
		<rect x="1659.83" y="894.85" transform="matrix(0.8263 -0.5632 0.5632 0.8263 -215.5792 1096.6442)" class="st11" width="20.78" height="5.99"/>
</g>
<path d="M1679.94,606.78c-54.15-75.64-159.46-94.63-236.73-41.97c-77.39,52.75-98.15,157.95-47.24,236.04
	c-24.91,31.86-27.67,77.47-3.71,112.63l39.57,58.06c27.29,40.04,79.87,52.77,121.99,31.43l3.29,4.83
	c25.4,37.27,76.39,46.93,113.67,21.52c16.92-11.53,28.83-28.85,33.53-48.76c4.1-17.36,2.44-35.4-4.62-51.55l2.95-2.01
	c3.69-2.51,4.64-7.54,2.13-11.23l-31.4-46.07c-2.51-3.69-7.54-4.64-11.23-2.13l-2.06,1.41l-6.12-8.98
	c-2.51-3.69-7.54-4.64-11.23-2.13c-3.69,2.51-4.64,7.54-2.13,11.23l6.12,8.98l-1.74,1.19c-3.69,2.51-4.64,7.54-2.13,11.23
	l31.4,46.07c2.51,3.69,7.54,4.64,11.23,2.13l0.56-0.38c4.67,12.21,5.6,25.6,2.54,38.53c-3.78,15.97-13.33,29.87-26.9,39.12
	c-29.9,20.38-70.82,12.64-91.2-17.27l-2.84-4.17l23.89-16.29c43.5-29.65,54.77-89.17,25.12-132.67l-39.57-58.06
	c-25.95-38.07-74.78-51.45-115.72-34.32c-24.13-41.04-12.6-94.5,27.3-121.7c39.99-27.26,94.11-18.35,123.45,19.31
	c-30.06,31.89-35.08,81.57-9.4,119.25l39.57,58.06c29.65,43.5,89.17,54.77,132.67,25.12l27.03-18.42
	c43.5-29.65,54.77-89.17,25.12-132.67l-39.57-58.06C1763.27,608.5,1719.05,594.49,1679.94,606.78z M1660.77,888.08l3.81-2.6
	l22.3,32.71l-3.81,2.6L1660.77,888.08z M1532.61,957.23c-24.96,17.01-59.11,10.55-76.12-14.41l-28.47-41.76
	c-17.01-24.96-10.55-59.11,14.41-76.12c24.96-17.01,59.11-10.55,76.12,14.41l28.47,41.76
	C1564.04,906.07,1557.57,940.22,1532.61,957.23z M1563.73,796.62l39.57,58.06c19.35,28.39,17.71,64.98-1.4,91.31
	c8.28-26.83,4.73-57.04-12.27-81.99l-39.57-58.06c-17.01-24.95-43.83-39.29-71.83-41.4
	C1509.72,756.38,1544.38,768.23,1563.73,796.62z M1536.7,815.04l39.57,58.06c23.91,35.09,15.78,82.71-17.79,107.99l-10.46-15.35
	c27.02-23.21,32.88-63.63,12.36-93.74l-28.47-41.76c-22.03-32.33-66.26-40.7-98.59-18.66c-32.33,22.03-40.7,66.26-18.67,98.59
	l28.47,41.76c20.47,30.03,60.07,39.37,91.51,22.89l9.99,14.66c-34.65,16.41-77.17,5.62-99.43-27.04l-39.57-58.06
	c-24.63-36.14-15.27-85.57,20.86-110.2C1462.63,769.55,1512.07,778.91,1536.7,815.04z M1432.69,703.95
	c-0.57,19.36,4.06,39.02,14.31,56.75c-0.86,0.55-1.73,1.11-2.58,1.69l-27.03,18.42c-3.55,2.42-6.88,5.04-10,7.84
	c-43.38-70.38-24.07-163.45,44.94-210.48c23.23-15.83,49.25-24.52,75.46-26.55c-10.29,4.08-20.16,9.3-29.46,15.64
	C1453.73,597.66,1428.62,650,1432.69,703.95z M1479.55,618.13c-6.35,4.33-12.09,9.23-17.2,14.58c10.14-20.66,25.5-38.74,45.07-52.08
	c22.42-15.28,48.55-23.35,75.63-23.41c31.58,9.03,60.48,28,81.51,55.94c-3.31,1.72-6.55,3.65-9.71,5.8l-27.03,18.42
	c-1.24,0.84-2.45,1.72-3.63,2.61C1589.52,596.38,1526.32,586.25,1479.55,618.13z M1765.85,839.87
	c-36.14,24.63-85.57,15.27-110.2-20.87l-39.57-58.06c-24.63-36.14-15.27-85.57,20.87-110.2c36.14-24.63,85.58-15.27,110.21,20.86
	l39.57,58.06C1811.35,765.8,1801.98,815.24,1765.85,839.87z M1813.74,711.24c19.35,28.39,17.71,64.98-1.4,91.31
	c8.28-26.83,4.73-57.04-12.27-81.99l-39.57-58.06c-17.01-24.95-43.83-39.29-71.83-41.39c31.49-8.16,66.15,3.69,85.5,32.08
	L1813.74,711.24L1813.74,711.24z M1643.77,668.13c-32.33,22.03-40.7,66.26-18.67,98.59l28.47,41.76
	c22.03,32.33,66.26,40.7,98.59,18.67c32.33-22.03,40.7-66.26,18.67-98.59l-28.47-41.76C1720.32,654.47,1676.1,646.1,1643.77,668.13z
	 M1757.47,737.67c17.01,24.96,10.55,59.11-14.41,76.12c-24.96,17.01-59.11,10.55-76.12-14.41l-28.47-41.76
	c-17.01-24.96-10.55-59.11,14.41-76.12c24.96-17.01,59.11-10.55,76.12,14.41L1757.47,737.67L1757.47,737.67z"/>
<g id="SVGRepo_iconCarrier_00000003064907949745592870000009880671527525734788_">
	<path class="st13" d="M652.21,217.98c-28.65-43.5-125.45-120.9-129.55-124.17c-1.42-1.13-3.13-1.77-4.88-1.84L507,91.55l-4.66-7.77
		c-2-3.34-5.84-4.95-9.44-3.95l-62.57,17.3c-2.43,0.67-4.43,2.46-5.45,4.87l-9.85,23.26l-81.43,52.79l-24.43-1.04
		c-2.53-0.11-4.95,0.98-6.61,2.95l-42.48,50.8c-2.45,2.92-2.74,7.21-0.74,10.55l4.66,7.77l-4.39,10.24
		c-0.71,1.67-0.91,3.55-0.56,5.37c1.01,5.28,25.27,129.7,50.24,175.59c14.57,26.79,34.27,33.77,48.22,34.9
		c14.97,1.22,26.52-4.02,27-4.24c2.39-1.1,4.15-3.32,4.72-5.99c0.06-0.24,5.34-23.97,12.28-48.76
		c12.85-45.92,19.32-52.61,20.14-53.32l114.21-74.04c0.97-0.46,9.6-3.56,54.92,4.66c24.47,4.43,47.28,9.94,47.51,10
		c2.2,0.53,4.46,0.13,6.32-1.08c0.32-0.21,0.64-0.44,0.94-0.7c0.4-0.35,10.01-8.83,15.54-23.34
		C666.3,264.84,668.94,243.37,652.21,217.98z"/>
	
		<ellipse transform="matrix(0.9849 -0.1732 0.1732 0.9849 -41.8639 62.3902)" class="st14" cx="336.54" cy="271.06" rx="25.36" ry="26.67"/>
	<path class="st15" d="M318.36,240.77c-15.76,10.21-20.43,32.12-10.41,48.82c10.02,16.7,30.99,21.98,46.75,11.76
		c15.77-10.22,20.44-32.12,10.42-48.83C355.1,235.82,334.13,230.54,318.36,240.77z M345.62,286.21c-7.88,5.11-18.37,2.47-23.38-5.88
		c-5.01-8.35-2.68-19.3,5.2-24.41c7.88-5.11,18.38-2.48,23.39,5.88C355.84,270.14,353.5,281.1,345.62,286.21z"/>
	
		<ellipse transform="matrix(0.9849 -0.1732 0.1732 0.9849 -35.9497 87.3909)" class="st14" cx="482.74" cy="249.67" rx="25.36" ry="26.67"/>
	<path class="st15" d="M500.9,279.96c-15.76,10.21-36.73,4.94-46.74-11.76c-10.02-16.71-5.35-38.61,10.41-48.82
		c15.77-10.22,36.74-4.95,46.76,11.76C521.34,247.83,516.67,269.74,500.9,279.96z M473.65,234.52c-7.88,5.11-10.21,16.06-5.2,24.41
		c5.01,8.35,15.49,10.99,23.37,5.88s10.23-16.06,5.22-24.41C492.02,232.05,481.53,229.41,473.65,234.52z"/>
	<g>
		<path class="st14" d="M424.9,318.72c-3.95,2.56-9.19,1.24-11.7-2.94l-18.17-30.29c-2.51-4.18-1.34-9.65,2.61-12.21
			c3.95-2.56,9.17-1.24,11.68,2.94l18.17,30.29C430.01,310.69,428.85,316.16,424.9,318.72z"/>
		<path class="st14" d="M430.1,294.3l-28.59,18.53c-3.95,2.56-9.17,1.24-11.68-2.94c-2.51-4.18-1.35-9.64,2.6-12.2l28.59-18.53
			c3.95-2.56,9.18-1.25,11.69,2.94S434.05,291.74,430.1,294.3z"/>
	</g>
	<path class="st16" d="M470.49,134.82c4.57,1.15,7.45,5.94,6.42,10.71c-1.01,4.77-5.54,7.71-10.1,6.55
		c-4.57-1.14-7.44-5.94-6.42-10.71C461.4,136.6,465.93,133.67,470.49,134.82z"/>
	<path class="st17" d="M497.65,180.09c4.57,1.14,7.45,5.94,6.42,10.71c-1.01,4.76-5.54,7.7-10.1,6.55
		c-4.57-1.14-7.45-5.94-6.42-10.71C488.55,181.88,493.09,178.94,497.65,180.09z"/>
	<path class="st18" d="M505.46,143.47c4.57,1.14,7.45,5.94,6.42,10.71c-1.01,4.76-5.54,7.7-10.1,6.55
		c-4.57-1.14-7.45-5.94-6.42-10.71C496.37,145.26,500.9,142.32,505.46,143.47z"/>
	<path class="st19" d="M462.58,171.27c4.57,1.15,7.45,5.94,6.42,10.71c-1.01,4.76-5.54,7.7-10.1,6.55
		c-4.57-1.14-7.45-5.94-6.42-10.71C453.49,173.06,458.02,170.12,462.58,171.27z"/>
	<polygon class="st20" points="333.61,178.05 363.9,200.48 421.08,163.41 415.04,125.27 	"/>
</g>
</svg>
