<svg class="animated" id="freepik_stories-modern-desktop-computer" xmlns="http://www.w3.org/2000/svg" viewBox="0 0 750 500" version="1.1" xmlns:xlink="http://www.w3.org/1999/xlink" xmlns:svgjs="http://svgjs.com/svgjs"><style>svg#freepik_stories-modern-desktop-computer:not(.animated) .animable {opacity: 0;}svg#freepik_stories-modern-desktop-computer.animated #freepik--Plant--inject-9 {animation: 1s 1 forwards cubic-bezier(.36,-0.01,.5,1.38) slideLeft,6s Infinite  linear wind;animation-delay: 0s,1s;}svg#freepik_stories-modern-desktop-computer.animated #freepik--Mouse--inject-9 {animation: 1s 1 forwards cubic-bezier(.36,-0.01,.5,1.38) slideUp,6s Infinite  linear floating;animation-delay: 0s,1s;}svg#freepik_stories-modern-desktop-computer.animated #freepik--CPU--inject-9 {animation: 1s 1 forwards cubic-bezier(.36,-0.01,.5,1.38) slideRight,6s Infinite  linear floating;animation-delay: 0s,1s;}svg#freepik_stories-modern-desktop-computer.animated #freepik--Keyboard--inject-9 {animation: 1s 1 forwards cubic-bezier(.36,-0.01,.5,1.38) slideUp,6s Infinite  linear floating;animation-delay: 0s,1s;}svg#freepik_stories-modern-desktop-computer.animated #freepik--Monitor--inject-9 {animation: 1s 1 forwards cubic-bezier(.36,-0.01,.5,1.38) zoomIn;animation-delay: 0s;}            @keyframes slideLeft {                0% {                    opacity: 0;                    transform: translateX(-30px);                }                100% {                    opacity: 1;                    transform: translateX(0);                }            }                    @keyframes wind {                0% {                    transform: rotate( 0deg );                }                25% {                    transform: rotate( 1deg );                }                75% {                    transform: rotate( -1deg );                }            }                    @keyframes slideUp {                0% {                    opacity: 0;                    transform: translateY(30px);                }                100% {                    opacity: 1;                    transform: inherit;                }            }                    @keyframes floating {                0% {                    opacity: 1;                    transform: translateY(0px);                }                50% {                    transform: translateY(-10px);                }                100% {                    opacity: 1;                    transform: translateY(0px);                }            }                    @keyframes slideRight {                0% {                    opacity: 0;                    transform: translateX(30px);                }                100% {                    opacity: 1;                    transform: translateX(0);                }            }                    @keyframes zoomIn {                0% {                    opacity: 0;                    transform: scale(0.5);                }                100% {                    opacity: 1;                    transform: scale(1);                }            }        .animator-hidden { display: none; }</style><g id="freepik--background-complete--inject-9" class="animable animator-hidden" style="transform-origin: 380.915px 262.755px;"><rect x="61.28" y="198.02" width="73.82" height="18.88" style="fill: rgb(235, 235, 235); transform-origin: 98.19px 207.46px;" id="eljr4sf8m4jn" class="animable"></rect><path d="M103.89,236.78a2.47,2.47,0,0,1,0-.34c0-.25,0-.57,0-1,0-.89,0-2.13,0-3.71,0-3.26-.07-7.95-.13-13.85l.23.22-73.82.14.37-.36h0v18.86l-.37-.35,52.61.16,15.52.1,4.2.05,1.1,0,.39,0a1.17,1.17,0,0,1-.34,0l-1,0-4.12,0L82.93,237l-52.86.16H29.7v-.36c0-3,0-6.13,0-9.28v-9.58h0l.38-.37,73.82.14h.23v.22c-.06,6-.1,10.69-.13,14,0,1.56,0,2.79,0,3.66q0,.57,0,.93A.87.87,0,0,1,103.89,236.78Z" style="fill: rgb(224, 224, 224); transform-origin: 66.915px 227.365px;" id="el32mmosy8pqa" class="animable"></path><path d="M621.27,91.41a3.26,3.26,0,0,1,0-.39c0-.28,0-.64,0-1.09q0-1.5-.06-4.2c0-3.68-.08-9-.14-15.64l.25.25-80,.16c.18-.18-.41.41.4-.41h0V80.93c0,3.55,0,7,0,10.48l-.4-.4,57.06.18,16.84.12,4.55,0,1.19,0,.42,0a1.49,1.49,0,0,1-.37,0l-1.14,0-4.47.06-16.75.11-57.33.18h-.4V70.11h0c.81-.82.22-.22.41-.41l80,.16h.25v.25c-.06,6.74-.1,12.08-.14,15.79q0,2.66-.06,4.14c0,.43,0,.78,0,1A1.34,1.34,0,0,1,621.27,91.41Z" style="fill: rgb(224, 224, 224); transform-origin: 581.25px 80.662px;" id="el2hr8b0c4l2m" class="animable"></path><path d="M632.13,70.09a2.25,2.25,0,0,1,0-.4c0-.31,0-.68,0-1.13,0-1-.05-2.48-.08-4.28,0-3.73-.09-9-.16-15.5l.3.29-48.1.12c-.37.36.49-.5.4-.41h0v11c0,3.56,0,7,0,10.33L584,69.7l34.41.19,10,.11,2.7,0c.62,0,1,0,1,0a4.27,4.27,0,0,1-.88,0l-2.62,0-9.93.11L584,70.48h-.39v-.4c0-3.31,0-6.77,0-10.33v-11h0l.41-.41,48.1.11h.29v.3c-.07,6.56-.12,11.9-.16,15.68,0,1.77,0,3.18-.07,4.21A12.16,12.16,0,0,1,632.13,70.09Z" style="fill: rgb(224, 224, 224); transform-origin: 608.01px 59.41px;" id="elal8cbhk1nz7" class="animable"></path><rect x="359.92" y="64.41" width="73.82" height="18.88" style="fill: rgb(235, 235, 235); transform-origin: 396.83px 73.85px;" id="el2wxtnjyqh61" class="animable"></rect><path d="M402.53,103.16a1.3,1.3,0,0,1,0-.34c0-.25,0-.57,0-1,0-.89,0-2.13-.05-3.71,0-3.26-.08-8-.13-13.85l.23.22-73.82.14.37-.36h0v9.58c0,3.15,0,6.25,0,9.28l-.36-.35,52.6.16,15.53.1,4.2.05,1.1,0,.39,0a1.34,1.34,0,0,1-.34,0l-1.06,0-4.12.05-15.44.1-52.86.16h-.37v-.36c0-3,0-6.13,0-9.28V84.3h0l.38-.37,73.82.15h.23v.22c-.06,6-.1,10.69-.13,14,0,1.56,0,2.79-.05,3.66q0,.57,0,.93A1.45,1.45,0,0,1,402.53,103.16Z" style="fill: rgb(224, 224, 224); transform-origin: 365.615px 93.66px;" id="el84ohp5tnwjc" class="animable"></path><rect x="552.54" y="317.66" width="73.82" height="18.88" style="fill: rgb(235, 235, 235); transform-origin: 589.45px 327.1px;" id="el6il1au8viva" class="animable"></rect><path d="M595.14,356.42a2.73,2.73,0,0,1,0-.35c0-.25,0-.57,0-1,0-.88,0-2.12-.06-3.71,0-3.26-.07-7.94-.13-13.85l.23.22-73.82.14c.17-.16-.37.37.38-.36h0v4.82c0,1.6,0,3.19,0,4.76v9.29l-.37-.36,52.61.16,15.53.1,4.19.05,1.1,0,.39,0-.34,0-1,0-4.12.05-15.45.1-52.86.16H521v-9.64c0-1.57,0-3.16,0-4.76v-4.82h0l.38-.36,73.82.14h.23v.22c0,6-.1,10.69-.13,14,0,1.57,0,2.79,0,3.67,0,.38,0,.68,0,.93A1.16,1.16,0,0,1,595.14,356.42Z" style="fill: rgb(224, 224, 224); transform-origin: 558.215px 346.85px;" id="el5ne2yaai50c" class="animable"></path><path d="M208.92,69.66a1.75,1.75,0,0,1,0-.38q0-.41,0-1,0-1.45-.06-4c0-3.55-.07-8.66-.13-15.09l.24.24-77.24.15c.18-.17-.4.4.39-.39h0V59.54c0,3.43,0,6.81,0,10.11l-.38-.38,55,.17,16.25.11,4.39.06,1.15,0,.41,0-.36,0-1.1,0-4.31.05L187,69.87,131.68,70h-.39v-.39c0-3.3,0-6.68,0-10.11V49.1h0l.4-.4,77.24.16h.24v.24c-.06,6.5-.1,11.65-.13,15.23,0,1.71-.05,3-.06,4,0,.41,0,.74,0,1A1.19,1.19,0,0,1,208.92,69.66Z" style="fill: rgb(224, 224, 224); transform-origin: 170.23px 59.35px;" id="elqhfq7lr62e" class="animable"></path><path d="M731.86,175.37a1.61,1.61,0,0,1,0-.37c0-.28,0-.63,0-1.06q0-1.45-.06-4.05c0-3.55-.07-8.65-.13-15.09l.24.24-77.24.16c.18-.18-.4.39.39-.4h0v10.43c0,3.44,0,6.81,0,10.12l-.38-.39,55,.18,16.25.11,4.39,0,1.15,0,.41,0a1.27,1.27,0,0,1-.36,0l-1.1,0-4.31.05-16.16.11-55.31.18h-.39v-.39q0-5,0-10.12V154.82h0c.79-.79.22-.22.4-.39l77.24.15h.24v.24c-.06,6.5-.1,11.65-.13,15.24q0,2.55-.06,4c0,.42,0,.75,0,1A1.77,1.77,0,0,1,731.86,175.37Z" style="fill: rgb(224, 224, 224); transform-origin: 693.19px 164.989px;" id="elfi40lpkok05" class="animable"></path><path d="M221.42,352.44a2.71,2.71,0,0,1,0-.37q0-.4,0-1.05c0-1,0-2.32-.05-4,0-3.55-.08-8.66-.14-15.09l.24.24-77.24.15c.18-.17-.39.4.39-.39h0v20.55l-.39-.38,55,.17,16.24.11,4.4.05,1.15,0,.4,0a1.39,1.39,0,0,1-.35,0l-1.11,0-4.31.06-16.16.11-55.31.17h-.38v-.39c0-3.3,0-6.68,0-10.11V331.89h0l.39-.4,77.24.16h.24v.24c0,6.49-.1,11.65-.13,15.23,0,1.71,0,3-.06,4,0,.41,0,.74,0,1A1.15,1.15,0,0,1,221.42,352.44Z" style="fill: rgb(224, 224, 224); transform-origin: 182.735px 342.13px;" id="elr3fsuai142b" class="animable"></path><path d="M86.32,472.65l63.83-87.84,439.43,1.56s83.73,86.28,85.78,86.25Z" style="fill: rgb(245, 245, 245); transform-origin: 380.84px 428.73px;" id="el8n02bd83tyl" class="animable"></path><polygon points="193.24 456.67 192.26 462.04 528.34 460.93 526.12 456.67 193.24 456.67" style="fill: rgb(224, 224, 224); transform-origin: 360.3px 459.355px;" id="elsrwkg6zcyui" class="animable"></polygon><path d="M563.86,438.62s22.09,36.16,65.81,25c31.13-7.93-10.93-32.94-11.56-33s-54.25,7.95-54.25,7.95" style="fill: rgb(224, 224, 224); transform-origin: 602.497px 448.189px;" id="elj4tvrzwftad" class="animable"></path><rect x="86.32" y="472.65" width="589.04" height="4.52" style="fill: rgb(224, 224, 224); transform-origin: 380.84px 474.91px;" id="elu7n1qyn61o" class="animable"></rect></g><g id="freepik--Table--inject-9" class="animable animator-active animator-hidden" style="transform-origin: 375px 370.35px;"><path d="M719.15,370.35c0,.15-154.09.26-344.13.26s-344.17-.11-344.17-.26,154.06-.26,344.17-.26S719.15,370.21,719.15,370.35Z" style="fill: rgb(38, 50, 56); transform-origin: 375px 370.35px;" id="elkg2si9y2kyo" class="animable"></path></g><g id="freepik--Plant--inject-9" class="animable" style="transform-origin: 88.77px 234.594px;"><path d="M89.56,316.59s-7.81-53.68-7.16-84.92,0-66.37,0-66.37H86s-2.43,62,.22,99.39,9.63,51.9,9.63,51.9H89.56" style="fill: rgb(38, 50, 56); transform-origin: 89.1058px 240.945px;" id="el19ogmrqvayh" class="animable"></path><path d="M112.82,104.9c-.72-1.84-1.61-3.75-3.28-4.8-2.28-1.45-5.27-.85-7.82.05C90.85,104,81.21,124.27,76.81,134.93l14.44,48.63C117.3,159.39,121.81,127.69,112.82,104.9Z" style="fill: rgb(69, 90, 100); transform-origin: 96.9301px 141.394px;" id="elrazxch5ckc" class="animable"></path><path d="M108.7,102.06a2.51,2.51,0,0,1-.21.64l-.71,1.77c-.63,1.53-1.52,3.76-2.58,6.52-2.13,5.52-4.83,13.24-7.25,21.94s-4.07,16.72-5.1,22.55c-.51,2.91-.9,5.28-1.15,6.91-.12.77-.22,1.39-.3,1.89a3,3,0,0,1-.15.65,2.83,2.83,0,0,1,0-.67c0-.5.11-1.13.19-1.9.18-1.65.5-4,1-7a205.71,205.71,0,0,1,12.37-44.57c1.11-2.75,2.06-5,2.76-6.46.33-.7.6-1.27.81-1.73A3.2,3.2,0,0,1,108.7,102.06Z" style="fill: rgb(38, 50, 56); transform-origin: 99.965px 133.495px;" id="eluxvdsnqannb" class="animable"></path><path d="M84.83,195.23c-13.53-7.48-21.5-21.54-22.24-37-.52-10.8,2.79-21.39,6.55-31.52a4,4,0,0,1,1.53-2.28c1.13-.65,2.55-.07,3.69.57,9.83,5.6,15.78,16.27,19,27.13a54.85,54.85,0,0,1,2.23,22.31,37.06,37.06,0,0,1-10.71,20.77" style="fill: rgb(69, 90, 100); transform-origin: 79.2175px 159.688px;" id="elanr30bdjqyt" class="animable"></path><path d="M84.83,195.23a3.58,3.58,0,0,1,0-.66c0-.49,0-1.11,0-1.86,0-1.62-.07-4-.2-6.86A188.17,188.17,0,0,0,82,163.38c-1.5-8.71-3.32-16.51-4.66-22.15-.66-2.75-1.21-5-1.6-6.67l-.42-1.82a2.79,2.79,0,0,1-.11-.65,2.61,2.61,0,0,1,.22.62c.14.47.32,1.06.53,1.79.44,1.56,1.06,3.82,1.79,6.63,1.44,5.62,3.33,13.42,4.84,22.15A164.92,164.92,0,0,1,85,185.83c.08,2.91.08,5.26,0,6.88,0,.76-.06,1.37-.08,1.87A2.45,2.45,0,0,1,84.83,195.23Z" style="fill: rgb(38, 50, 56); transform-origin: 80.135px 163.66px;" id="elxl6x06k5re" class="animable"></path><g id="elhavjcxv0m9s"><g style="opacity: 0.3; transform-origin: 79.2175px 159.688px;" class="animable"><path d="M84.83,195.23c-13.53-7.48-21.5-21.54-22.24-37-.52-10.8,2.79-21.39,6.55-31.52a4,4,0,0,1,1.53-2.28c1.13-.65,2.55-.07,3.69.57,9.83,5.6,15.78,16.27,19,27.13a54.85,54.85,0,0,1,2.23,22.31,37.06,37.06,0,0,1-10.71,20.77" id="el0wwdizr9obp" class="animable" style="transform-origin: 79.2175px 159.688px;"></path></g></g><path d="M100.1,277.37c13.31,2.92,24.28,12.31,37.12,16.88,8.5,3,18.11,4.09,24.9,10-1.63-4.11-5.49-6.85-9.24-9.19A165.24,165.24,0,0,0,119.23,279c-6-2.09-12.6-3.83-18.76-2.11" style="fill: rgb(69, 90, 100); transform-origin: 131.11px 290.22px;" id="elmp72agz0lk" class="animable"></path><path d="M80.85,289.23C64.17,289,46.61,274.76,30,273.92c17.37-5.61,42.24-1,50.84,15.31" style="fill: rgb(69, 90, 100); transform-origin: 55.425px 280.435px;" id="elh6stw3grbq8" class="animable"></path><path d="M87.36,249.23c8.47-3.06,17.77-3.2,26.66-1.82s17.48,4.24,26,7.08c-.86-5.79-5.54-10.14-10-14a69.26,69.26,0,0,0-10.45-8,23.23,23.23,0,0,0-12.53-3.54,19.83,19.83,0,0,0-13.83,7,23,23,0,0,0-5.93,13.33" style="fill: rgb(69, 90, 100); transform-origin: 113.65px 241.72px;" id="ely174c6xtqa" class="animable"></path><path d="M53.14,230.81c-10.5-9-26.4-8.08-40.2-7.77C34.15,233.18,57,247.09,75.28,261.89,75.84,252.13,66.4,242.14,53.14,230.81Z" style="fill: rgb(69, 90, 100); transform-origin: 44.1218px 242.373px;" id="elm0zpcrpcqlp" class="animable"></path><g id="elllce9c6ar4c"><g style="opacity: 0.3; transform-origin: 44.1218px 242.373px;" class="animable"><path d="M53.14,230.81c-10.5-9-26.4-8.08-40.2-7.77C34.15,233.18,57,247.09,75.28,261.89,75.84,252.13,66.4,242.14,53.14,230.81Z" id="elbvz5ukzzrg" class="animable" style="transform-origin: 44.1218px 242.373px;"></path></g></g><path d="M92.08,218.44a117.58,117.58,0,0,1,16.15-9.38c5.52-2.51,10.68-6.51,16-9.4,6.92-3.74,12.92-8.95,19.27-13.6s13.32-8.84,21.1-10.07c-6.34-1.3-13-.59-19.21,1.11a124.48,124.48,0,0,0-18.07,7c-8.19,3.68-16.52,7.46-23.21,13.45s-12.75,11.9-12,20.85" style="fill: rgb(69, 90, 100); transform-origin: 128.324px 196.88px;" id="elrtgh2dfxk4j" class="animable"></path><path d="M136.92,289.23a2,2,0,0,1-.53-.23l-1.46-.75c-1.25-.67-3.05-1.66-5.32-2.8-1.13-.6-2.37-1.22-3.73-1.85s-2.79-1.32-4.33-2A63.47,63.47,0,0,0,111.29,278a22,22,0,0,0-10.7-.27,29.85,29.85,0,0,0-4.53,1.35A23.57,23.57,0,0,0,92.4,281a23.1,23.1,0,0,0-4.6,3.8c-1,1-1.43,1.67-1.48,1.63a2.73,2.73,0,0,1,.3-.49c.21-.31.55-.75,1-1.3a21.26,21.26,0,0,1,4.54-4,22.88,22.88,0,0,1,3.7-2,30.5,30.5,0,0,1,4.59-1.43,22.21,22.21,0,0,1,11,.23,60.22,60.22,0,0,1,10.35,3.65c1.55.69,3,1.36,4.33,2.05s2.59,1.3,3.7,1.91c2.25,1.2,4,2.24,5.25,3l1.4.85A2,2,0,0,1,136.92,289.23Z" style="fill: rgb(38, 50, 56); transform-origin: 111.62px 282.929px;" id="elq3lrvn32a7l" class="animable"></path><path d="M68.41,281a3.79,3.79,0,0,1,1,.3,24,24,0,0,1,2.72,1.18A32.91,32.91,0,0,1,86.1,295.84a24.1,24.1,0,0,1,1.29,2.66,4.25,4.25,0,0,1,.35,1c-.1,0-.72-1.37-2-3.49A37,37,0,0,0,72,282.82C69.81,281.63,68.37,281.06,68.41,281Z" style="fill: rgb(38, 50, 56); transform-origin: 78.0746px 290.25px;" id="ela8q7mde40o" class="animable"></path><path d="M31.51,230a3.11,3.11,0,0,1,.71.21l2,.71,3.16,1.16c1.23.46,2.57,1.14,4.08,1.8a96.63,96.63,0,0,1,21.71,13.83,106.53,106.53,0,0,1,10.12,10,112.94,112.94,0,0,1,7.19,9.11c1.9,2.69,3.34,4.94,4.33,6.49L86,275.05a2.87,2.87,0,0,1,.37.65,5.29,5.29,0,0,1-.47-.58c-.29-.39-.71-1-1.23-1.73-1.05-1.51-2.54-3.72-4.49-6.38s-4.38-5.72-7.25-9a110.71,110.71,0,0,0-10.1-9.88,101.68,101.68,0,0,0-21.5-13.91c-1.5-.69-2.81-1.38-4-1.87l-3.11-1.25-2-.82A3.94,3.94,0,0,1,31.51,230Z" style="fill: rgb(38, 50, 56); transform-origin: 58.94px 252.85px;" id="elwoscrhn6dg" class="animable"></path><path d="M112.38,239.85a5.65,5.65,0,0,1-1.33-.17l-1.53-.28c-.59-.12-1.29-.12-2-.2a20.67,20.67,0,0,0-16.67,6.13,24.19,24.19,0,0,0-3.36,4.15,34.82,34.82,0,0,0-2.29,4.37,5,5,0,0,1,.34-1.3,19,19,0,0,1,1.6-3.29A22.22,22.22,0,0,1,90.41,245a20.29,20.29,0,0,1,17.1-6.17c.77.11,1.47.14,2.07.29l1.52.39A5.4,5.4,0,0,1,112.38,239.85Z" style="fill: rgb(38, 50, 56); transform-origin: 98.79px 246.269px;" id="elczr94q2ihas" class="animable"></path><path d="M129.14,187.86a3.57,3.57,0,0,1-.63.39l-1.86,1c-1.62.87-4,2.16-6.77,3.82s-6.14,3.77-9.66,6.29a81,81,0,0,0-10.79,9A27.07,27.07,0,0,0,95,214.12c-1.09,2.1-2.14,4.12-3.1,6.07a108.26,108.26,0,0,0-4.63,10.55A62.5,62.5,0,0,0,85,238.16c-.43,1.79-.59,2.79-.64,2.78a3.35,3.35,0,0,1,.06-.73c.06-.48.16-1.19.35-2.1a56.21,56.21,0,0,1,2.08-7.52A100.93,100.93,0,0,1,91.43,220c.95-2,2-4,3.07-6.1A27.83,27.83,0,0,1,99,208a78.85,78.85,0,0,1,10.9-9.07c3.56-2.51,6.91-4.55,9.76-6.2s5.23-2.86,6.88-3.67l1.92-.91A3.46,3.46,0,0,1,129.14,187.86Z" style="fill: rgb(38, 50, 56); transform-origin: 106.749px 214.4px;" id="elt0b770gi41a" class="animable"></path><path d="M82.38,238.35a7.08,7.08,0,0,1-.33-1.4c-.19-1-.44-2.32-.73-3.86a107.5,107.5,0,0,0-3.15-12.51,110.47,110.47,0,0,0-4.76-12L71.78,205a6,6,0,0,1-.53-1.34,7.33,7.33,0,0,1,.74,1.24c.44.82,1.06,2,1.8,3.49a88.91,88.91,0,0,1,4.95,12,87.71,87.71,0,0,1,3,12.62c.26,1.64.45,3,.54,3.89A6.23,6.23,0,0,1,82.38,238.35Z" style="fill: rgb(38, 50, 56); transform-origin: 76.8186px 221.005px;" id="el2lswexh8xsq" class="animable"></path><path d="M81.18,200.41a45.13,45.13,0,0,0-5.43-18,59.42,59.42,0,0,0-40.28-30L72.76,208l4.82,9.92C80.87,212.48,81.59,206.71,81.18,200.41Z" style="fill: rgb(69, 90, 100); transform-origin: 58.3771px 185.165px;" id="elbjlf75ihu47" class="animable"></path><rect x="47.95" y="309.95" width="86.72" height="15.37" style="fill: rgb(220, 0, 0); transform-origin: 91.31px 317.635px;" id="elw504cpblqpe" class="animable"></rect><polygon points="54.43 322.27 61.81 369.96 119.38 369.96 128.19 322.27 54.43 322.27" style="fill: rgb(220, 0, 0); transform-origin: 91.31px 346.115px;" id="el1owlz1rpff6" class="animable"></polygon><path d="M134.62,325.34c0,.17-19.56.31-43.68.31s-43.69-.14-43.69-.31,19.56-.3,43.69-.3S134.62,325.17,134.62,325.34Z" style="fill: rgb(38, 50, 56); transform-origin: 90.935px 325.345px;" id="elehaeozxs8y" class="animable"></path></g><g id="freepik--Mouse--inject-9" class="animable" style="transform-origin: 595.851px 435.553px;"><path d="M561.47,435.94c-1-2.73-2.65-7.47-2.21-8.13l1.12-1.09-.91-1.74S585,408.19,608,417.57s26,34.34,24,35.51-21.78,6.7-49.58,1.17c0,0-1.34.34-7.88-7a37.43,37.43,0,0,0-10.59-8.6A5,5,0,0,1,561.47,435.94Z" style="fill: rgb(69, 90, 100); transform-origin: 595.851px 435.694px;" id="elga1j96bmaug" class="animable"></path><g id="el5sppbvqffjf"><path d="M560.38,426.72s4.25-1.31,10.59,1.09c3.58,1.35,6.58,5.19,6.58,5.19s-1.48-10.22-18.08-8Z" style="opacity: 0.3; transform-origin: 568.51px 428.842px;" class="animable"></path></g><path d="M576.83,447.83l.24-.69s11.39,4.67,22.44,4.65,12.42.47,18.67-.31S628.27,449.69,630,449a3.69,3.69,0,0,0,2.06-1.62l0,.43s1.85,2.74-13.81,4.64c-10,1.21-20.83.29-27.34-.53a44.16,44.16,0,0,1-10.6-2.71l-3.57-1.4" style="fill: rgb(220, 0, 0); transform-origin: 604.434px 450.087px;" id="elmc4xzesui1q" class="animable"></path><path d="M576.67,446.84a2.89,2.89,0,0,1,.57.17l1.57.57a59.35,59.35,0,0,0,5.83,1.94c1.25.34,2.63.65,4.13.91s3.12.42,4.83.61c3.42.35,7.18.63,11.14.73a102.54,102.54,0,0,0,11.15-.29,89.72,89.72,0,0,0,9-1.25,21.58,21.58,0,0,0,5.83-1.78,2.64,2.64,0,0,0,1.19-1.06.83.83,0,0,0,0-.55s.18.19,0,.58a2.64,2.64,0,0,1-1.19,1.2,20.09,20.09,0,0,1-5.86,2,82,82,0,0,1-9,1.37,96.18,96.18,0,0,1-11.21.33c-4-.1-7.76-.4-11.18-.78-1.71-.19-3.34-.38-4.85-.66a41.42,41.42,0,0,1-4.16-1,47.21,47.21,0,0,1-5.8-2.12l-1.54-.65A2.69,2.69,0,0,1,576.67,446.84Z" style="fill: rgb(38, 50, 56); transform-origin: 604.33px 449.6px;" id="elofb9c4s9h9b" class="animable"></path><g id="elx1jkykeccw"><path d="M559.26,427.81s11.66,2.87,15.16,6.3c6.42,6.29,1.84,15.09,1.84,15.09a90.4,90.4,0,0,0-8-7.8c-2.72-2-5.36-2.9-6.32-4.58C560.77,434.82,559.19,430.42,559.26,427.81Z" style="opacity: 0.3; transform-origin: 568.55px 438.505px;" class="animable"></path></g><path d="M572.72,418.59s-.25-2.1,2.59-3c1.83-.54,8.68-2.72,12.87.86,1.69,1.45,2.23,3.76,1.23,2.9a12.7,12.7,0,0,0-7-2.21C579.27,417.11,572.72,418.59,572.72,418.59Z" style="fill: rgb(38, 50, 56); transform-origin: 581.313px 416.988px;" id="elfn2jacs81on" class="animable"></path></g><g id="freepik--CPU--inject-9" class="animable" style="transform-origin: 652.609px 242.025px;"><polygon points="602.8 356.37 602.8 120.84 608.83 114.17 696.89 114.17 702.42 120.09 702.42 355.71 689.18 369.88 612.45 369.88 602.8 356.37" style="fill: rgb(38, 50, 56); transform-origin: 652.61px 242.025px;" id="elcsln8xv78a" class="animable"></polygon><ellipse cx="652.61" cy="196.02" rx="25.8" ry="27.63" style="fill: rgb(220, 0, 0); transform-origin: 652.61px 196.02px;" id="elvd154d0lspa" class="animable"></ellipse><ellipse cx="652.61" cy="196.02" rx="7.3" ry="7.82" style="fill: rgb(38, 50, 56); transform-origin: 652.61px 196.02px;" id="elnszaph3xxje" class="animable"></ellipse><g id="eljewztmxlhiq"><path d="M654.93,203.43c-.41.13,6.6,18.52,6.6,18.52a27.89,27.89,0,0,0,12.9-11.18l-16.1-9.89Z" style="fill: rgb(255, 255, 255); opacity: 0.3; transform-origin: 664.671px 211.415px;" class="animable"></path></g><ellipse cx="652.61" cy="259.13" rx="25.8" ry="27.63" style="fill: rgb(220, 0, 0); transform-origin: 652.61px 259.13px;" id="eltf6e0owdnat" class="animable"></ellipse><g id="elo3vb6e6ewa"><path d="M646.67,263.53c-.24-.38-14.48,12.49-14.48,12.49a24.45,24.45,0,0,0,13.74,9.8L650,266.21Z" style="fill: rgb(255, 255, 255); opacity: 0.3; transform-origin: 641.095px 274.671px;" class="animable"></path></g><ellipse cx="652.61" cy="259.13" rx="7.3" ry="7.82" style="fill: rgb(38, 50, 56); transform-origin: 652.61px 259.13px;" id="el4ggk10so0qp" class="animable"></ellipse><ellipse cx="650.87" cy="326.04" rx="25.8" ry="27.63" style="fill: rgb(220, 0, 0); transform-origin: 650.87px 326.04px;" id="ele5binel50t" class="animable"></ellipse><g id="elll6qtau8ct"><path d="M646.76,319.68c.35-.26-11.67-15.51-11.67-15.51a26.09,26.09,0,0,0-9.16,14.72l18.32,4.33Z" style="fill: rgb(255, 255, 255); opacity: 0.3; transform-origin: 636.349px 313.695px;" class="animable"></path></g><ellipse cx="650.87" cy="326.04" rx="7.3" ry="7.82" style="fill: rgb(38, 50, 56); transform-origin: 650.87px 326.04px;" id="elb2ho84p1rtc" class="animable"></ellipse><g id="eliqog9fst3eo"><polygon points="625.93 369.88 637.65 330.3 702.42 271.07 702.42 342.54 631.82 369.88 625.93 369.88" style="opacity: 0.3; transform-origin: 664.175px 320.475px;" class="animable"></polygon></g><path d="M602.8,120.85,650,179.56l9.35-29.36,37.56-36H608.83Z" style="fill: rgb(69, 90, 100); transform-origin: 649.855px 146.88px;" id="elgwej27hm9jp" class="animable"></path><path d="M650,179.56c.14,1.21-40.1,186.73-40.1,186.73l-7.08-9.92V120.85Z" style="fill: rgb(69, 90, 100); transform-origin: 626.41px 243.57px;" id="el09y2xq0uuwul" class="animable"></path><polygon points="602.8 181.29 611.18 191.84 611.18 289.89 602.8 301.87 602.8 181.29" style="fill: rgb(38, 50, 56); transform-origin: 606.99px 241.58px;" id="eldpcicxo60yu" class="animable"></polygon><polygon points="630.48 369.88 640.51 338.33 702.42 282.19 702.42 355.71 689.18 369.88 630.48 369.88" style="fill: rgb(69, 90, 100); transform-origin: 666.45px 326.035px;" id="elbgoxokzcudo" class="animable"></polygon><polygon points="640.51 338.33 642.04 333.11 702.42 277.25 702.42 282.19 640.51 338.33" style="fill: rgb(220, 0, 0); transform-origin: 671.465px 307.79px;" id="elhukliyzr4av" class="animable"></polygon><g id="elzihikd1trsi"><path d="M602.8,120.85l47.32,58.71,9.34-29.36,37.57-36h-88.2Z" style="fill: rgb(255, 255, 255); opacity: 0.2; transform-origin: 649.915px 146.88px;" class="animable"></path></g><rect x="605.65" y="259.13" width="1.34" height="21.55" style="fill: rgb(220, 0, 0); transform-origin: 606.32px 269.905px;" id="elajgef1bci49" class="animable"></rect><g id="eln6jxpednt5"><polygon points="611.18 219.89 602.8 230.05 602.8 239.99 611.18 229.94 611.18 219.89" style="opacity: 0.3; transform-origin: 606.99px 229.94px;" class="animable"></polygon></g><g id="elpswwaf52s9f"><polygon points="611.18 216.75 602.8 226.82 602.8 222.62 611.18 212.51 611.18 216.75" style="opacity: 0.3; transform-origin: 606.99px 219.665px;" class="animable"></polygon></g><g id="elmj75aiqaa3"><polygon points="702.42 198.12 634.24 253.64 611.18 241.35 611.18 259.13 630.48 271.07 702.42 209.95 702.42 198.12" style="fill: rgb(255, 255, 255); opacity: 0.2; transform-origin: 656.8px 234.595px;" class="animable"></polygon></g><g id="el8p9gql870ku"><polygon points="702.42 217.58 628.08 282.19 611.18 268.71 611.18 273.62 627.09 286.76 702.42 222.05 702.42 217.58" style="fill: rgb(255, 255, 255); opacity: 0.2; transform-origin: 656.8px 252.17px;" class="animable"></polygon></g><path d="M680.45,204.81a14.41,14.41,0,0,1,.64-1.76,30.07,30.07,0,0,0-.16-21.35A27.18,27.18,0,0,0,670.45,169a33.5,33.5,0,0,0-6.27-3,1.43,1.43,0,0,1,.48.09,12.69,12.69,0,0,1,1.34.4,22.46,22.46,0,0,1,4.64,2.19,26.56,26.56,0,0,1,5.85,4.89,27.35,27.35,0,0,1,4.92,7.93,29.28,29.28,0,0,1,1.4,16.72,26,26,0,0,1-1.53,4.9c-.22.57-.45,1-.59,1.27A1.92,1.92,0,0,1,680.45,204.81Z" style="fill: rgb(220, 0, 0); transform-origin: 673.808px 185.405px;" id="elt0vbdqamy1b" class="animable"></path><g id="elnx70wislxz"><polygon points="602.8 319.58 617.63 330.52 702.42 254.96 702.42 263.29 615.94 338.33 602.8 328.85 602.8 319.58" style="fill: rgb(255, 255, 255); opacity: 0.1; transform-origin: 652.61px 296.645px;" class="animable"></polygon></g><g id="el2xfbe39eoo"><polygon points="612.45 369.88 654.91 179.56 664.18 153.04 699.69 117.17 697.03 114.17 659.46 150.21 650.12 179.56 609.88 366.29 612.45 369.88" style="opacity: 0.3; transform-origin: 654.785px 242.025px;" class="animable"></polygon></g><path d="M650.12,179.56c-.11.09-10.8-13-23.87-29.19s-23.57-29.43-23.45-29.52,10.79,13,23.86,29.19S650.23,179.47,650.12,179.56Z" style="fill: rgb(220, 0, 0); transform-origin: 626.46px 150.205px;" id="eltgtnx8vchp" class="animable"></path></g><g id="freepik--Keyboard--inject-9" class="animable" style="transform-origin: 359.922px 428.59px;"><path d="M526.22,456.67h-333a2.13,2.13,0,0,1-2.13-2.1l-.05-4.17,337.75-.62v4.31A2.59,2.59,0,0,1,526.22,456.67Z" style="fill: rgb(69, 90, 100); transform-origin: 359.915px 453.225px;" id="eln2zejqjy1wb" class="animable"></path><g id="elx0z2hcggqq"><path d="M526.22,456.67h-333a2.13,2.13,0,0,1-2.13-2.1l-.05-4.17,337.75-.62v4.31A2.59,2.59,0,0,1,526.22,456.67Z" style="opacity: 0.3; transform-origin: 359.915px 453.225px;" class="animable"></path></g><path d="M511.62,400.51H205.79a2.59,2.59,0,0,0-2.51,1.95l-12.14,47.32a2.6,2.6,0,0,0,2.51,3.24l332.57-.22a2.59,2.59,0,0,0,2.47-3.35l-14.6-47.11A2.59,2.59,0,0,0,511.62,400.51Z" style="fill: rgb(69, 90, 100); transform-origin: 359.932px 426.765px;" id="el53atf2yeh9r" class="animable"></path><path d="M426,410.65c.14,1.67.29,3.35.44,5H440l0-.33-.45-5H426Z" style="fill: rgb(38, 50, 56); transform-origin: 433px 412.985px;" id="el345rptis1xa" class="animable"></path><path d="M352.87,424.35h-22l.18,6.32h22.82Z" style="fill: rgb(38, 50, 56); transform-origin: 342.37px 427.51px;" id="elw0v5qn63ju9" class="animable"></path><path d="M414,417.12H392.41l.67,5.77h21.36Z" style="fill: rgb(38, 50, 56); transform-origin: 403.425px 420.005px;" id="eljt4l3cwf8g" class="animable"></path><path d="M377.59,424.35H354.33l1,6.32h23.49Z" style="fill: rgb(38, 50, 56); transform-origin: 366.575px 427.51px;" id="elcxf0r61eos8" class="animable"></path><path d="M436.49,417.12H415.41l.49,5.77h21.33Z" style="fill: rgb(38, 50, 56); transform-origin: 426.32px 420.005px;" id="ela4pl8dej0r9" class="animable"></path><path d="M505.14,417.12H483.41l.6,5.77h22Z" style="fill: rgb(38, 50, 56); transform-origin: 494.71px 420.005px;" id="elfin12ssmpmg" class="animable"></path><path d="M471.13,410.65l.45,5h13.6l0-.33-.45-5H471.11Z" style="fill: rgb(38, 50, 56); transform-origin: 478.145px 412.985px;" id="elahct9yvefnn" class="animable"></path><path d="M479,424.35H467.75a.37.37,0,0,0-.37.43l.9,5.58a.37.37,0,0,0,.37.31h11.27a.37.37,0,0,0,.36-.43l-.9-5.58A.37.37,0,0,0,479,424.35Z" style="fill: rgb(38, 50, 56); transform-origin: 473.83px 427.51px;" id="eljiupikyt88" class="animable"></path><path d="M482,417.12H460.85l.6,5.77h21.11Z" style="fill: rgb(38, 50, 56); transform-origin: 471.705px 420.005px;" id="eld9gnueg4kl6" class="animable"></path><path d="M514,417.12H506.6l.88,5.77h8.15Z" style="fill: rgb(38, 50, 56); transform-origin: 511.115px 420.005px;" id="el1lo2gy0wo0d" class="animable"></path><path d="M459.39,417.12H438l.73,5.77H460Z" style="fill: rgb(38, 50, 56); transform-origin: 449px 420.005px;" id="elr6i0ncpzmh9" class="animable"></path><path d="M368.6,417.12H347.82l.53,5.77h21Z" style="fill: rgb(38, 50, 56); transform-origin: 358.585px 420.005px;" id="elliv3sk1eodh" class="animable"></path><path d="M346.37,417.12H326.2l-.32,5.77h21Z" style="fill: rgb(38, 50, 56); transform-origin: 336.38px 420.005px;" id="elrldc5rikzd" class="animable"></path><path d="M329.38,424.35H309.29l-.3,6.32h20.57Z" style="fill: rgb(38, 50, 56); transform-origin: 319.275px 427.51px;" id="eldel3m0rpzyt" class="animable"></path><path d="M456.08,410.65l.45,5h13.6l0-.33-.45-5H456.06Z" style="fill: rgb(38, 50, 56); transform-origin: 463.095px 412.985px;" id="el47e5008z5z5" class="animable"></path><path d="M391,417.12H370.05l.75,5.77h20.83Z" style="fill: rgb(38, 50, 56); transform-origin: 380.84px 420.005px;" id="elvws64srj5bl" class="animable"></path><path d="M308.69,417.12h-5.22l-.73,5.77h21.69l.32-5.77Z" style="fill: rgb(38, 50, 56); transform-origin: 313.745px 420.005px;" id="elgf4arjs89a9" class="animable"></path><path d="M262.91,424.35l-1,6.32h22.74l.86-6.32Z" style="fill: rgb(38, 50, 56); transform-origin: 273.71px 427.51px;" id="elpcpg5ms7n4" class="animable"></path><path d="M281.45,417.12a.67.67,0,0,1,0,.2c0,.26-.08.52-.13.77l-.78,4.8h20.75l.73-5.77Z" style="fill: rgb(38, 50, 56); transform-origin: 291.28px 420.005px;" id="el1ean9xrawjp" class="animable"></path><path d="M286.8,424.35l-.86,6.32h21.48l.3-6.32Z" style="fill: rgb(38, 50, 56); transform-origin: 296.83px 427.51px;" id="ellozrty1qbc" class="animable"></path><path d="M259.12,417.12l-.52,5.77h20.47l.95-5.77Z" style="fill: rgb(38, 50, 56); transform-origin: 269.31px 420.005px;" id="elr6u99hsowx" class="animable"></path><path d="M389.31,432.12H362.72a.78.78,0,0,0-.78.86l.66,6.07a.77.77,0,0,0,.77.69H390a.78.78,0,0,0,.77-.86l-.65-6.06A.79.79,0,0,0,389.31,432.12Z" style="fill: rgb(38, 50, 56); transform-origin: 376.355px 435.93px;" id="el3uwbvqj8qjx" class="animable"></path><path d="M477.38,403.7l.27,5.19h19.7v-.13c-.1-1.92-.21-3.85-.31-5.78l-19.7,0Z" style="fill: rgb(38, 50, 56); transform-origin: 487.345px 405.935px;" id="elhqb7d66sw2k" class="animable"></path><path d="M228.82,404.13c-.27,1.58-.55,3.17-.82,4.76h22.23v-.15c.16-2,.33-4,.49-6l-21.89,0a.8.8,0,0,1,.12.61C228.92,403.58,228.87,403.85,228.82,404.13Z" style="fill: rgb(38, 50, 56); transform-origin: 239.36px 405.815px;" id="eljtvg9r9bbvd" class="animable"></path><path d="M516.06,424.35H494.41l1,6.32H517.9Z" style="fill: rgb(38, 50, 56); transform-origin: 506.155px 427.51px;" id="elcwv3fplgtli" class="animable"></path><path d="M489.83,432.12H476.3a.6.6,0,0,0-.59.66l.77,6.45a.59.59,0,0,0,.59.51H490.6a.58.58,0,0,0,.58-.65l-.77-6.45A.59.59,0,0,0,489.83,432.12Z" style="fill: rgb(38, 50, 56); transform-origin: 483.446px 435.93px;" id="el9rbsgl7akpu" class="animable"></path><path d="M473.82,432.12H455.38a.59.59,0,0,0-.58.66l.77,6.45a.58.58,0,0,0,.58.51h18.44a.58.58,0,0,0,.58-.65l-.77-6.45A.59.59,0,0,0,473.82,432.12Z" style="fill: rgb(38, 50, 56); transform-origin: 464.985px 435.93px;" id="el2z9a6vft5n5" class="animable"></path><path d="M459.51,441.2H442.68a.45.45,0,0,0-.46.49l.49,6.48a.47.47,0,0,0,.46.43h16.91a.46.46,0,0,0,.46-.5l-.57-6.48A.46.46,0,0,0,459.51,441.2Z" style="fill: rgb(38, 50, 56); transform-origin: 451.38px 444.9px;" id="elrdx72c146x" class="animable"></path><path d="M505.08,441.2H486.6a.84.84,0,0,0-.84.93l.58,5.7a.84.84,0,0,0,.84.77h18.35a.85.85,0,0,0,.84-.92l-.45-5.7A.84.84,0,0,0,505.08,441.2Z" style="fill: rgb(38, 50, 56); transform-origin: 496.064px 444.9px;" id="elpzegznpcfrr" class="animable"></path><path d="M423.15,424.35h-19a.58.58,0,0,0-.58.68l.83,5.15a.59.59,0,0,0,.58.49h19a.6.6,0,0,0,.58-.68l-.84-5.15A.58.58,0,0,0,423.15,424.35Z" style="fill: rgb(38, 50, 56); transform-origin: 414.063px 427.51px;" id="elx6h8bfbpyci" class="animable"></path><path d="M406.26,442.08a1,1,0,0,0-1-.88h-110a1,1,0,0,0-1,1.05l.3,5.4a1,1,0,0,0,1,1h110.4a1,1,0,0,0,1-1.12Z" style="fill: rgb(38, 50, 56); transform-origin: 350.613px 444.925px;" id="elhfmd8ryon8u" class="animable"></path><path d="M432.53,432.12H413.22a.58.58,0,0,0-.58.65l.69,6.45a.59.59,0,0,0,.59.52H433.3a.58.58,0,0,0,.58-.65l-.77-6.45A.58.58,0,0,0,432.53,432.12Z" style="fill: rgb(38, 50, 56); transform-origin: 423.26px 435.93px;" id="el3wckv10573c" class="animable"></path><path d="M257.62,417.12H236.86a.58.58,0,0,0-.58.49c-.25,1.47-.54,3.11-.79,4.59a.58.58,0,0,0,.58.69H257Z" style="fill: rgb(38, 50, 56); transform-origin: 246.55px 420.005px;" id="el8hhasut79w5" class="animable"></path><path d="M287.18,410.65l-.45,5h14l0-.33.45-5h-14Z" style="fill: rgb(38, 50, 56); transform-origin: 293.955px 412.985px;" id="el2xhmmxxguv" class="animable"></path><path d="M271.76,410.65l-.45,5h14l0-.33.45-5h-14Z" style="fill: rgb(38, 50, 56); transform-origin: 278.535px 412.985px;" id="elnb9jortglae" class="animable"></path><path d="M249.81,415.67h20.05l0-.33.45-5H248.2l0,.21c-.15,1.71-.3,3.42-.46,5.12Z" style="fill: rgb(38, 50, 56); transform-origin: 259.025px 413.005px;" id="el87tyj9rg8k9" class="animable"></path><path d="M333.44,410.65l-.45,5h14.73l0-.33c-.06-1.67-.13-3.33-.2-5h-14Z" style="fill: rgb(38, 50, 56); transform-origin: 340.355px 412.985px;" id="elvb9p7nhauen" class="animable"></path><path d="M349,410.65c.06,1.67.13,3.35.2,5h14.47c0-.11,0-.21,0-.32-.21-1.67-.43-3.34-.64-5H349Z" style="fill: rgb(38, 50, 56); transform-origin: 356.335px 412.99px;" id="eljvp4mzntnk" class="animable"></path><path d="M273.79,433.16l-.86,5.12a1.24,1.24,0,0,0,1.23,1.46h18.53a1.25,1.25,0,0,0,1.25-1.2l.19-5.12a1.25,1.25,0,0,0-1.25-1.3H275A1.26,1.26,0,0,0,273.79,433.16Z" style="fill: rgb(38, 50, 56); transform-origin: 283.521px 435.93px;" id="el7wmtxx08lfi" class="animable"></path><path d="M379.9,410.46c.32,1.74.64,3.47,1,5.21H394.3l0-.33-.48-5H379.87Z" style="fill: rgb(38, 50, 56); transform-origin: 387.085px 413.005px;" id="elbse7qae412" class="animable"></path><path d="M247.62,432.77l-1,6.07a.78.78,0,0,0,.77.9h23.19a.77.77,0,0,0,.77-.64l1-6.07a.78.78,0,0,0-.77-.91H248.39A.77.77,0,0,0,247.62,432.77Z" style="fill: rgb(38, 50, 56); transform-origin: 259.486px 435.93px;" id="el0rcu2o5gcppg" class="animable"></path><path d="M441,410.34c0,.1,0,.21,0,.31l.45,5h13.6l0-.33-.45-5H441Z" style="fill: rgb(38, 50, 56); transform-origin: 448.025px 412.985px;" id="el1dnd1q2d83r" class="animable"></path><path d="M234.58,417.12H203.71a.4.4,0,0,0-.39.32l-1.14,5a.41.41,0,0,0,.4.49h31.49s0-.08,0-.12c0-.27.09-.55.14-.82l.75-4.35A.4.4,0,0,0,234.58,417.12Z" style="fill: rgb(38, 50, 56); transform-origin: 218.575px 420.025px;" id="ellfwc7zngqjq" class="animable"></path><path d="M445.28,424.43v-.08H425.11l1,6.32H446.3Z" style="fill: rgb(38, 50, 56); transform-origin: 435.705px 427.51px;" id="elxwieqc65bzd" class="animable"></path><path d="M219.46,441.69l-1.23,6.17a.63.63,0,0,0,.61.74h20.35a.63.63,0,0,0,.61-.51l1.16-6.16a.62.62,0,0,0-.6-.73h-20.3A.61.61,0,0,0,219.46,441.69Z" style="fill: rgb(38, 50, 56); transform-origin: 229.595px 444.9px;" id="els2i880d262e" class="animable"></path><path d="M242.51,441.85l-1.2,5.75a.83.83,0,0,0,.81,1h20.33a.82.82,0,0,0,.82-.72l.77-5.75a.82.82,0,0,0-.82-.93h-19.9A.83.83,0,0,0,242.51,441.85Z" style="fill: rgb(38, 50, 56); transform-origin: 252.67px 444.9px;" id="el1y97ca3ljwq" class="animable"></path><path d="M265.54,441.83l-.75,5.95a.72.72,0,0,0,.71.82h11.1a.73.73,0,0,0,.72-.66l.57-5.95a.72.72,0,0,0-.72-.79H266.26A.72.72,0,0,0,265.54,441.83Z" style="fill: rgb(38, 50, 56); transform-origin: 271.338px 444.9px;" id="elr54chsd9ayp" class="animable"></path><path d="M218.85,432.65l-1.61,6.21a.71.71,0,0,0,.69.88h26.45a.7.7,0,0,0,.69-.58c.34-2,.68-4,1.14-6,.13-.77-.25-1.08-.84-1.08H219.53A.71.71,0,0,0,218.85,432.65Z" style="fill: rgb(38, 50, 56); transform-origin: 231.727px 435.91px;" id="elm0blmf14jo8" class="animable"></path><path d="M291.71,441.2h-11a1.13,1.13,0,0,0-1.12,1l-.51,5.13a1.14,1.14,0,0,0,1.13,1.25h11.55a1.13,1.13,0,0,0,1.13-1.15l-.07-5.14A1.12,1.12,0,0,0,291.71,441.2Z" style="fill: rgb(38, 50, 56); transform-origin: 285.982px 444.89px;" id="el6vt3pphsqpu" class="animable"></path><path d="M410.59,432.12H392.12a.59.59,0,0,0-.59.65l.7,6.45a.58.58,0,0,0,.58.52h18.47a.59.59,0,0,0,.59-.65l-.7-6.45A.58.58,0,0,0,410.59,432.12Z" style="fill: rgb(38, 50, 56); transform-origin: 401.7px 435.93px;" id="el7pkhg8xl5q9" class="animable"></path><path d="M226,410.34c0,.15-.05.29-.07.44-.28,1.63-.57,3.26-.85,4.89h21.19l0-.43c.14-1.63.29-3.26.44-4.9Z" style="fill: rgb(38, 50, 56); transform-origin: 235.895px 413.005px;" id="elw9w7cocm8pj" class="animable"></path><path d="M199.84,432.65l-1.43,6.26a.68.68,0,0,0,.67.83H215a.68.68,0,0,0,.66-.51l1.62-6.26a.68.68,0,0,0-.66-.85h-16.1A.69.69,0,0,0,199.84,432.65Z" style="fill: rgb(38, 50, 56); transform-origin: 207.847px 435.93px;" id="elcu6ghj903gj" class="animable"></path><path d="M274.14,403.57l-.54,5.32h20.2l.05-.42.57-5.7-20.2,0C274.19,403,274.17,403.3,274.14,403.57Z" style="fill: rgb(38, 50, 56); transform-origin: 284.01px 405.83px;" id="elfzf42i1tya" class="animable"></path><path d="M204,415.67h19.41l.23-.19.84-4.87a.23.23,0,0,0-.22-.27H205.12a.23.23,0,0,0-.22.18l-1.12,4.87A.23.23,0,0,0,204,415.67Z" style="fill: rgb(38, 50, 56); transform-origin: 214.129px 413.005px;" id="elvd8g85p61jg" class="animable"></path><path d="M201.59,425l-1.06,4.62a.85.85,0,0,0,.83,1h35.58a.86.86,0,0,0,.84-.71l.79-4.62a.84.84,0,0,0-.83-1H202.41A.84.84,0,0,0,201.59,425Z" style="fill: rgb(38, 50, 56); transform-origin: 219.551px 427.455px;" id="elg82v50b57tw" class="animable"></path><path d="M252.12,403.55c-.15,1.78-.29,3.56-.44,5.34h20.47l0-.42c.19-1.91.39-3.82.58-5.72l-20.59,0Z" style="fill: rgb(38, 50, 56); transform-origin: 262.205px 405.82px;" id="elin2b58iluo" class="animable"></path><path d="M410.91,410.34l0,.31c.15,1.67.29,3.35.44,5H425l0-.33c-.15-1.67-.3-3.33-.44-5Z" style="fill: rgb(38, 50, 56); transform-origin: 417.955px 412.985px;" id="el7yserpvfnzu" class="animable"></path><path d="M198,441.66l-1.42,6.21a.59.59,0,0,0,.57.73h19.21a.59.59,0,0,0,.58-.48l1.21-6.22a.59.59,0,0,0-.58-.7h-19A.59.59,0,0,0,198,441.66Z" style="fill: rgb(38, 50, 56); transform-origin: 207.362px 444.9px;" id="el0025fmwq8ror2" class="animable"></path><path d="M206.6,403l-1.2,5.28a.46.46,0,0,0,.45.57h20.68l.05-.29c.33-1.89.66-3.79,1-5.68a.88.88,0,0,1,.1-.22l-20.6,0A.47.47,0,0,0,206.6,403Z" style="fill: rgb(38, 50, 56); transform-origin: 216.533px 405.755px;" id="el8t19820el94" class="animable"></path><path d="M453.11,432.12H435.16a.59.59,0,0,0-.58.66l.77,6.45a.59.59,0,0,0,.58.51h17.43a.59.59,0,0,0,.59-.65Z" style="fill: rgb(38, 50, 56); transform-origin: 444.264px 435.93px;" id="el7941323i81m" class="animable"></path><path d="M520.63,441.19l-12.81-.06a.47.47,0,0,0-.47.51l.49,6.41a.46.46,0,0,0,.46.43l14.21.11a.47.47,0,0,0,.45-.6l-1.88-6.46A.48.48,0,0,0,520.63,441.19Z" style="fill: rgb(38, 50, 56); transform-origin: 515.163px 444.86px;" id="elq6oypdkvqoe" class="animable"></path><path d="M439.9,441.2H427a.92.92,0,0,0-.91,1l.6,5.55a.92.92,0,0,0,.91.83h12.84a.93.93,0,0,0,.92-1l-.58-5.56A.91.91,0,0,0,439.9,441.2Z" style="fill: rgb(38, 50, 56); transform-origin: 433.725px 444.89px;" id="eltpav3l14cgo" class="animable"></path><path d="M483.7,441.2H462.13a.56.56,0,0,0-.56.61l.64,6.28a.56.56,0,0,0,.55.51h21.46a.56.56,0,0,0,.56-.61l-.53-6.28A.55.55,0,0,0,483.7,441.2Z" style="fill: rgb(38, 50, 56); transform-origin: 473.175px 444.9px;" id="el5jsxx4v053r" class="animable"></path><path d="M506.44,432.12h-14a.59.59,0,0,0-.58.66l.77,6.45a.58.58,0,0,0,.58.51h14a.58.58,0,0,0,.58-.65l-.77-6.45A.58.58,0,0,0,506.44,432.12Z" style="fill: rgb(38, 50, 56); transform-origin: 499.825px 435.93px;" id="elr51delkh15" class="animable"></path><path d="M517.89,432.12h-8.82a.59.59,0,0,0-.59.66l.78,6.45a.59.59,0,0,0,.58.51h9.93a.59.59,0,0,0,.57-.75l-1.89-6.45A.58.58,0,0,0,517.89,432.12Z" style="fill: rgb(38, 50, 56); transform-origin: 514.419px 435.93px;" id="els98vrx3af1" class="animable"></path><path d="M498.53,403.7c.09,1.73.19,3.46.28,5.19h12.74l-1.73-5.9H498.5Z" style="fill: rgb(38, 50, 56); transform-origin: 505.025px 405.94px;" id="elaui7o192cx" class="animable"></path><path d="M423.51,441.2H408.88a1.16,1.16,0,0,0-1.16,1.26l.45,5.08a1.15,1.15,0,0,0,1.15,1.06h14.74a1.16,1.16,0,0,0,1.15-1.29l-.54-5.08A1.16,1.16,0,0,0,423.51,441.2Z" style="fill: rgb(38, 50, 56); transform-origin: 416.466px 444.9px;" id="elpxwhrd3uo2j" class="animable"></path><path d="M317.65,432.87l-.23,6.07a.76.76,0,0,0,.77.8h19A.77.77,0,0,0,338,439l.23-6.06a.77.77,0,0,0-.77-.81h-19A.77.77,0,0,0,317.65,432.87Z" style="fill: rgb(38, 50, 56); transform-origin: 327.825px 435.935px;" id="el0w1wucbq00bi" class="animable"></path><path d="M240.19,424.35l-1.07,6.32H260.4l1-6.32Z" style="fill: rgb(38, 50, 56); transform-origin: 250.26px 427.51px;" id="elvrmzri5ko7i" class="animable"></path><path d="M295.6,432.87l-.23,6.07a.78.78,0,0,0,.78.8h19A.78.78,0,0,0,316,439l.23-6.06a.78.78,0,0,0-.78-.81h-19A.78.78,0,0,0,295.6,432.87Z" style="fill: rgb(38, 50, 56); transform-origin: 305.8px 435.935px;" id="elvvuygokcd47" class="animable"></path><path d="M360.4,432.12H339.72l-.29,7.62h21.79Z" style="fill: rgb(38, 50, 56); transform-origin: 350.325px 435.93px;" id="el6peswuw0dsx" class="animable"></path><path d="M401.53,424.35H379.78a.58.58,0,0,0-.58.69l1,5.15a.6.6,0,0,0,.58.48h21.62A.59.59,0,0,0,403,430l-.84-5.15A.58.58,0,0,0,401.53,424.35Z" style="fill: rgb(38, 50, 56); transform-origin: 391.097px 427.509px;" id="elysvd03tyam" class="animable"></path><path d="M318,410.65l-.45,5h14l0-.33.45-5h-14Z" style="fill: rgb(38, 50, 56); transform-origin: 324.775px 412.985px;" id="eld4zw3ihvdd" class="animable"></path><path d="M395.27,410.65l.48,5h14.18l0-.33c-.15-1.67-.3-3.33-.44-5H395.24Z" style="fill: rgb(38, 50, 56); transform-origin: 402.585px 412.985px;" id="elauteg57jsm" class="animable"></path><path d="M364.45,410.64c.22,1.68.43,3.35.64,5h14.3l0-.14q-.5-2.59-1-5.19h-14Z" style="fill: rgb(38, 50, 56); transform-origin: 371.89px 412.975px;" id="el9vwjqdx68iw" class="animable"></path><path d="M302.63,410.34l0,.31-.45,5h14l0-.33.45-5h-14Z" style="fill: rgb(38, 50, 56); transform-origin: 309.405px 412.985px;" id="elzyq3ywsleuj" class="animable"></path><path d="M465.35,424.35H447.42a.59.59,0,0,0-.58.68l.84,5.15a.59.59,0,0,0,.58.49h17.92a.58.58,0,0,0,.58-.68l-.83-5.15A.59.59,0,0,0,465.35,424.35Z" style="fill: rgb(38, 50, 56); transform-origin: 456.801px 427.51px;" id="el3e8eecaf0vd" class="animable"></path><path d="M317.45,403.57l-.54,5.32h21.16v-6.08l-20.54,0C317.5,403.05,317.48,403.31,317.45,403.57Z" style="fill: rgb(38, 50, 56); transform-origin: 327.49px 405.85px;" id="elphi3ejuzbcs" class="animable"></path><path d="M411.47,403.7l.27,5.19h22.15v-.13q-.17-2.92-.31-5.85l-22.15,0C411.44,403.16,411.45,403.43,411.47,403.7Z" style="fill: rgb(38, 50, 56); transform-origin: 422.66px 405.9px;" id="elol8y71z5xal" class="animable"></path><path d="M361.25,402.85l.05.85.27,5.19h23.54c-.35-2-.7-4-1.06-6h0l-22.8,0Z" style="fill: rgb(38, 50, 56); transform-origin: 373.18px 405.87px;" id="eln9lgabfe7oc" class="animable"></path><path d="M385.61,403.36c.32,1.84.64,3.69,1,5.53h23.71v-.13q-.15-2.92-.31-5.87l-24.45,0Z" style="fill: rgb(38, 50, 56); transform-origin: 397.94px 405.89px;" id="el12wgo8fsd9n" class="animable"></path><path d="M339.52,402.82v6.07h20.6v-.13c-.1-2-.21-3.94-.31-5.91h0Z" style="fill: rgb(38, 50, 56); transform-origin: 349.82px 405.855px;" id="elboaf4ytkfwo" class="animable"></path><path d="M295.79,403.57l-.53,5.32h20.2l0-.42q.28-2.85.58-5.68l-20.21,0C295.85,403,295.82,403.3,295.79,403.57Z" style="fill: rgb(38, 50, 56); transform-origin: 305.65px 405.84px;" id="el07f3pnaol6l" class="animable"></path><path d="M492.45,424.35h-11a.59.59,0,0,0-.58.68l.84,5.15a.58.58,0,0,0,.58.49h11a.59.59,0,0,0,.58-.68l-.83-5.15A.59.59,0,0,0,492.45,424.35Z" style="fill: rgb(38, 50, 56); transform-origin: 487.37px 427.51px;" id="el7ihd1vo2pk5" class="animable"></path><path d="M501.23,410.65l.45,5h11.85L512,410.34H501.2Z" style="fill: rgb(38, 50, 56); transform-origin: 507.365px 412.995px;" id="elxopctdegr2" class="animable"></path><path d="M486.15,410.34l0,.31.45,5h13.59l0-.33c-.14-1.67-.29-3.33-.44-5Z" style="fill: rgb(38, 50, 56); transform-origin: 493.17px 412.985px;" id="eltri4nk6b6ln" class="animable"></path><path d="M456.23,403.7l.27,5.19h19.7v-.13l-.3-5.8-19.7,0C456.2,403.19,456.21,403.44,456.23,403.7Z" style="fill: rgb(38, 50, 56); transform-origin: 466.2px 405.925px;" id="elx2d8rg8ny" class="animable"></path><path d="M435.07,403.7c.09,1.73.18,3.46.28,5.19h19.7v-.13c-.1-1.94-.21-3.88-.31-5.82l-19.7,0C435,403.18,435.06,403.44,435.07,403.7Z" style="fill: rgb(38, 50, 56); transform-origin: 445.038px 405.915px;" id="el78h1r18ylt8" class="animable"></path><path d="M426.18,409.12l.45,5h13.59c0-.11,0-.22,0-.33l-.45-5h-13.6Z" style="fill: rgb(220, 0, 0); transform-origin: 433.195px 411.455px;" id="elymz4rxqmhbl" class="animable"></path><path d="M353.06,422.82H331l.18,6.32H354Z" style="fill: rgb(220, 0, 0); transform-origin: 342.5px 425.98px;" id="el0t7xv2rl7o5m" class="animable"></path><path d="M414.15,415.59H392.61l.67,5.77h21.36Z" style="fill: rgb(220, 0, 0); transform-origin: 403.625px 418.475px;" id="ell116uu15v89" class="animable"></path><path d="M377.79,422.82H354.52l1,6.32H379Z" style="fill: rgb(220, 0, 0); transform-origin: 366.76px 425.98px;" id="el2pwntdv7r5m" class="animable"></path><path d="M436.69,415.59H415.6l.49,5.77h21.33Z" style="fill: rgb(220, 0, 0); transform-origin: 426.51px 418.475px;" id="elruompajjrw" class="animable"></path><path d="M505.33,415.59H483.61l.6,5.77h22Z" style="fill: rgb(220, 0, 0); transform-origin: 494.91px 418.475px;" id="el2zbq14iin9" class="animable"></path><path d="M471.33,409.12l.45,5h13.59l0-.33c-.15-1.67-.29-3.33-.44-5H471.3Z" style="fill: rgb(220, 0, 0); transform-origin: 478.335px 411.455px;" id="el78m9xg2uv9q" class="animable"></path><path d="M479.21,422.82H467.94a.36.36,0,0,0-.36.43l.9,5.58a.37.37,0,0,0,.36.31h11.28a.37.37,0,0,0,.36-.43l-.9-5.58A.37.37,0,0,0,479.21,422.82Z" style="fill: rgb(220, 0, 0); transform-origin: 474.029px 425.98px;" id="eldzng97cfx7t" class="animable"></path><path d="M482.15,415.59H461l.6,5.77h21.11Z" style="fill: rgb(220, 0, 0); transform-origin: 471.855px 418.475px;" id="el261xyuw72bq" class="animable"></path><path d="M514.15,415.59h-7.36l.89,5.77h8.15Z" style="fill: rgb(220, 0, 0); transform-origin: 511.31px 418.475px;" id="elj7mucz25sbn" class="animable"></path><path d="M459.59,415.59H438.14l.74,5.77h21.31Z" style="fill: rgb(220, 0, 0); transform-origin: 449.165px 418.475px;" id="el4k84zga1mdn" class="animable"></path><path d="M368.79,415.59H348l.54,5.77h21Z" style="fill: rgb(220, 0, 0); transform-origin: 358.77px 418.475px;" id="elxjn83r0raum" class="animable"></path><path d="M346.56,415.59H326.4l-.32,5.77h21Z" style="fill: rgb(220, 0, 0); transform-origin: 336.58px 418.475px;" id="elsq4o0ocs8ob" class="animable"></path><path d="M329.58,422.82H309.49l-.31,6.32h20.58Z" style="fill: rgb(220, 0, 0); transform-origin: 319.47px 425.98px;" id="el8qalu3d49cc" class="animable"></path><path d="M456.28,409.12l.45,5h13.59l0-.33c-.14-1.67-.29-3.33-.44-5h-13.6Z" style="fill: rgb(220, 0, 0); transform-origin: 463.3px 411.455px;" id="el6ooozo38cgm" class="animable"></path><path d="M391.16,415.59H370.25l.75,5.77h20.83Z" style="fill: rgb(220, 0, 0); transform-origin: 381.04px 418.475px;" id="elf5hz9mtw45" class="animable"></path><path d="M308.88,415.59h-5.21l-.74,5.77h21.69l.33-5.77Z" style="fill: rgb(220, 0, 0); transform-origin: 313.94px 418.475px;" id="el9n45sf0mgul" class="animable"></path><path d="M263.1,422.82l-1,6.32h22.74l.85-6.32Z" style="fill: rgb(220, 0, 0); transform-origin: 273.895px 425.98px;" id="elxjiketakqp9" class="animable"></path><path d="M281.65,415.59a1.33,1.33,0,0,1,0,.2c0,.26-.09.52-.13.77l-.78,4.8h20.74l.73-5.77Z" style="fill: rgb(220, 0, 0); transform-origin: 291.475px 418.475px;" id="eltb1tajf2fn" class="animable"></path><path d="M287,422.82l-.86,6.32h21.47l.3-6.32Z" style="fill: rgb(220, 0, 0); transform-origin: 297.025px 425.98px;" id="elrtg68r0qyr" class="animable"></path><path d="M259.32,415.59l-.52,5.77h20.47l1-5.77Z" style="fill: rgb(220, 0, 0); transform-origin: 269.535px 418.475px;" id="elsafafkr5l1r" class="animable"></path><path d="M389.51,430.59h-26.6a.78.78,0,0,0-.77.86l.65,6.07a.79.79,0,0,0,.78.69h26.59a.78.78,0,0,0,.78-.86l-.66-6.06A.77.77,0,0,0,389.51,430.59Z" style="fill: rgb(220, 0, 0); transform-origin: 376.54px 434.4px;" id="elbujgyf91b48" class="animable"></path><path d="M477.58,402.17l.27,5.19h19.7v-.13l-.3-5.78-19.7,0C477.55,401.67,477.56,401.92,477.58,402.17Z" style="fill: rgb(220, 0, 0); transform-origin: 487.55px 404.405px;" id="elbbnju9esu29" class="animable"></path><path d="M229,402.6c-.28,1.58-.55,3.17-.83,4.76h22.24v-.15q.24-3,.49-6l-21.89,0a.85.85,0,0,1,.12.61C229.11,402.05,229.07,402.32,229,402.6Z" style="fill: rgb(220, 0, 0); transform-origin: 239.535px 404.285px;" id="el7cqpm9z93y2" class="animable"></path><path d="M516.26,422.82H494.61l1,6.32H518.1Z" style="fill: rgb(220, 0, 0); transform-origin: 506.355px 425.98px;" id="el4kwjp54so9g" class="animable"></path><path d="M490,430.59H476.49a.59.59,0,0,0-.58.66l.77,6.45a.59.59,0,0,0,.58.51h13.53a.58.58,0,0,0,.58-.65l-.76-6.45A.59.59,0,0,0,490,430.59Z" style="fill: rgb(220, 0, 0); transform-origin: 483.64px 434.4px;" id="el9brk9kg624j" class="animable"></path><path d="M474,430.59H455.58a.58.58,0,0,0-.58.66l.77,6.45a.58.58,0,0,0,.58.51h18.43a.59.59,0,0,0,.59-.65l-.77-6.45A.59.59,0,0,0,474,430.59Z" style="fill: rgb(220, 0, 0); transform-origin: 465.184px 434.4px;" id="ellepwz939gqn" class="animable"></path><path d="M459.71,439.67H442.87a.45.45,0,0,0-.45.49l.49,6.48a.47.47,0,0,0,.46.43h16.91a.47.47,0,0,0,.46-.5l-.57-6.48A.46.46,0,0,0,459.71,439.67Z" style="fill: rgb(220, 0, 0); transform-origin: 451.58px 443.37px;" id="elfl7do4wnc7j" class="animable"></path><path d="M505.27,439.67H486.8a.84.84,0,0,0-.84.93l.57,5.7a.86.86,0,0,0,.85.77h18.34a.85.85,0,0,0,.85-.92l-.45-5.7A.85.85,0,0,0,505.27,439.67Z" style="fill: rgb(220, 0, 0); transform-origin: 496.264px 443.37px;" id="el1rnsg7vr6ro" class="animable"></path><path d="M423.35,422.82h-19a.59.59,0,0,0-.58.68l.84,5.15a.59.59,0,0,0,.58.49h19a.58.58,0,0,0,.58-.68l-.83-5.15A.59.59,0,0,0,423.35,422.82Z" style="fill: rgb(220, 0, 0); transform-origin: 414.271px 425.98px;" id="elheckrtp25f7" class="animable"></path><path d="M406.46,440.55a1,1,0,0,0-1-.88H295.41a1,1,0,0,0-1,1.05l.3,5.4a1,1,0,0,0,1,.95H406.11a1,1,0,0,0,1-1.12Z" style="fill: rgb(220, 0, 0); transform-origin: 350.763px 443.37px;" id="els4ilruzgon" class="animable"></path><path d="M432.73,430.59H413.42a.58.58,0,0,0-.58.65l.69,6.45a.58.58,0,0,0,.58.52H433.5a.58.58,0,0,0,.58-.65l-.77-6.45A.59.59,0,0,0,432.73,430.59Z" style="fill: rgb(220, 0, 0); transform-origin: 423.46px 434.4px;" id="el9l07p566i4a" class="animable"></path><path d="M257.82,415.59H237.06a.58.58,0,0,0-.58.49c-.26,1.46-.54,3.11-.8,4.59a.59.59,0,0,0,.59.69h20.92Z" style="fill: rgb(220, 0, 0); transform-origin: 246.746px 418.475px;" id="el0b3ij6fa9cuq" class="animable"></path><path d="M287.38,409.12l-.45,5h14l0-.33.45-5h-14Z" style="fill: rgb(220, 0, 0); transform-origin: 294.155px 411.455px;" id="el5zwzw9msa1w" class="animable"></path><path d="M272,409.12l-.45,5h14l0-.33c.15-1.67.3-3.33.44-5H272Z" style="fill: rgb(220, 0, 0); transform-origin: 278.77px 411.455px;" id="el3dlhs2n17mo" class="animable"></path><path d="M250,414.14h20.06l0-.33c.15-1.67.29-3.33.44-5H248.4l0,.21c-.15,1.71-.31,3.41-.46,5.12Z" style="fill: rgb(220, 0, 0); transform-origin: 259.22px 411.475px;" id="elr7z9njpy3nc" class="animable"></path><path d="M333.64,409.12l-.45,5h14.72v-.33c-.07-1.67-.13-3.33-.2-5h-14Z" style="fill: rgb(220, 0, 0); transform-origin: 340.55px 411.455px;" id="el8f6wym018t6" class="animable"></path><path d="M349.16,409.12l.21,5h14.47l0-.32-.63-5h-14Z" style="fill: rgb(220, 0, 0); transform-origin: 356.5px 411.46px;" id="el833e1xlhj5" class="animable"></path><path d="M274,431.63l-.87,5.12a1.25,1.25,0,0,0,1.23,1.46h18.53a1.24,1.24,0,0,0,1.25-1.2l.2-5.12a1.26,1.26,0,0,0-1.25-1.3H275.22A1.25,1.25,0,0,0,274,431.63Z" style="fill: rgb(220, 0, 0); transform-origin: 283.726px 434.4px;" id="eldjn7vq1sd34" class="animable"></path><path d="M380.09,408.93c.33,1.74.65,3.47,1,5.21H394.5l0-.33-.48-5H380.07Z" style="fill: rgb(220, 0, 0); transform-origin: 387.285px 411.475px;" id="elqfnpfy33yl" class="animable"></path><path d="M247.82,431.24l-1,6.07a.77.77,0,0,0,.77.9h23.19a.78.78,0,0,0,.77-.64l1-6.07a.78.78,0,0,0-.77-.91H248.59A.77.77,0,0,0,247.82,431.24Z" style="fill: rgb(220, 0, 0); transform-origin: 259.685px 434.4px;" id="elwbsa6qkxmks" class="animable"></path><path d="M441.2,408.81l0,.31.45,5h13.59l0-.33c-.14-1.67-.29-3.33-.44-5H441.2Z" style="fill: rgb(220, 0, 0); transform-origin: 448.22px 411.455px;" id="elw72edx4le1" class="animable"></path><path d="M234.77,415.59H203.91a.41.41,0,0,0-.4.32l-1.13,5a.4.4,0,0,0,.39.49h31.5v-.12l.15-.82.75-4.35A.41.41,0,0,0,234.77,415.59Z" style="fill: rgb(220, 0, 0); transform-origin: 218.777px 418.495px;" id="eldm1ezb7kh5a" class="animable"></path><path d="M445.48,422.9v-.08H425.31l1,6.32h20.15Q446,426,445.48,422.9Z" style="fill: rgb(220, 0, 0); transform-origin: 435.885px 425.98px;" id="el0i4hlks103k6" class="animable"></path><path d="M219.65,440.16l-1.22,6.17a.61.61,0,0,0,.6.74h20.36a.63.63,0,0,0,.61-.51l1.16-6.16a.62.62,0,0,0-.61-.73H220.26A.62.62,0,0,0,219.65,440.16Z" style="fill: rgb(220, 0, 0); transform-origin: 229.793px 443.37px;" id="elt4lgap4bsf" class="animable"></path><path d="M242.71,440.32l-1.2,5.75a.83.83,0,0,0,.81,1h20.33a.84.84,0,0,0,.82-.72l.77-5.75a.83.83,0,0,0-.82-.93H243.51A.81.81,0,0,0,242.71,440.32Z" style="fill: rgb(220, 0, 0); transform-origin: 252.869px 443.37px;" id="elg2h6xcflrqr" class="animable"></path><path d="M265.74,440.3l-.76,5.95a.73.73,0,0,0,.72.82h11.1a.73.73,0,0,0,.72-.66l.57-6a.72.72,0,0,0-.72-.79H266.45A.71.71,0,0,0,265.74,440.3Z" style="fill: rgb(220, 0, 0); transform-origin: 271.534px 443.345px;" id="elylbhrwq9n7" class="animable"></path><path d="M219.05,431.12l-1.61,6.21a.7.7,0,0,0,.68.88h26.46a.7.7,0,0,0,.69-.58c.34-2,.68-4,1.14-6,.12-.77-.25-1.08-.84-1.08H219.73A.71.71,0,0,0,219.05,431.12Z" style="fill: rgb(220, 0, 0); transform-origin: 231.925px 434.38px;" id="eldq4f1wpibc" class="animable"></path><path d="M291.9,439.67h-11a1.12,1.12,0,0,0-1.12,1l-.51,5.13a1.13,1.13,0,0,0,1.12,1.25H292a1.14,1.14,0,0,0,1.14-1.15l-.07-5.14A1.13,1.13,0,0,0,291.9,439.67Z" style="fill: rgb(220, 0, 0); transform-origin: 286.202px 443.36px;" id="elvrxjeqcdm3r" class="animable"></path><path d="M410.79,430.59H392.31a.59.59,0,0,0-.58.65l.7,6.45a.58.58,0,0,0,.58.52h18.47a.58.58,0,0,0,.58-.65l-.69-6.45A.58.58,0,0,0,410.79,430.59Z" style="fill: rgb(220, 0, 0); transform-origin: 401.896px 434.4px;" id="elluuysoveenf" class="animable"></path><path d="M226.2,408.81c0,.15,0,.29-.07.44-.29,1.63-.57,3.26-.85,4.89h21.19l0-.43c.15-1.63.3-3.26.44-4.9Z" style="fill: rgb(220, 0, 0); transform-origin: 236.095px 411.475px;" id="eljzyxsfyhyq" class="animable"></path><path d="M200,431.12l-1.43,6.26a.68.68,0,0,0,.67.83h15.9a.67.67,0,0,0,.66-.51l1.63-6.26a.69.69,0,0,0-.67-.85H200.7A.68.68,0,0,0,200,431.12Z" style="fill: rgb(220, 0, 0); transform-origin: 208.001px 434.4px;" id="elzse3pn5ewj" class="animable"></path><path d="M274.33,402c-.17,1.77-.35,3.55-.53,5.32H294l0-.42.58-5.7-20.2,0Z" style="fill: rgb(220, 0, 0); transform-origin: 284.19px 404.26px;" id="elifcjmig0v8a" class="animable"></path><path d="M204.2,414.14h19.42l.22-.19c.29-1.62.57-3.25.85-4.87a.24.24,0,0,0-.23-.27H205.31a.24.24,0,0,0-.22.18L204,413.86A.23.23,0,0,0,204.2,414.14Z" style="fill: rgb(220, 0, 0); transform-origin: 214.343px 411.475px;" id="elozj2ferxij" class="animable"></path><path d="M201.78,423.48l-1.05,4.62a.85.85,0,0,0,.83,1h35.58a.85.85,0,0,0,.83-.71l.8-4.62a.85.85,0,0,0-.84-1H202.61A.85.85,0,0,0,201.78,423.48Z" style="fill: rgb(220, 0, 0); transform-origin: 219.75px 425.935px;" id="elx4shi8k68c" class="animable"></path><path d="M252.31,402c-.14,1.78-.29,3.56-.43,5.34h20.46l.05-.42.57-5.72-20.58,0C252.36,401.47,252.33,401.75,252.31,402Z" style="fill: rgb(220, 0, 0); transform-origin: 262.42px 404.27px;" id="elywlij470pb8" class="animable"></path><path d="M411.11,408.81l0,.31.45,5h13.6l0-.33-.45-5Z" style="fill: rgb(220, 0, 0); transform-origin: 418.135px 411.455px;" id="elb8crbttmi1q" class="animable"></path><path d="M198.21,440.13l-1.42,6.21a.6.6,0,0,0,.58.73h19.21a.6.6,0,0,0,.58-.48l1.21-6.22a.59.59,0,0,0-.58-.7h-19A.59.59,0,0,0,198.21,440.13Z" style="fill: rgb(220, 0, 0); transform-origin: 207.578px 443.37px;" id="elk888ilit7" class="animable"></path><path d="M206.8,401.51l-1.21,5.28a.47.47,0,0,0,.46.57h20.68l.05-.29c.32-1.89.65-3.79,1-5.68a.49.49,0,0,1,.1-.22l-20.61,0A.47.47,0,0,0,206.8,401.51Z" style="fill: rgb(220, 0, 0); transform-origin: 216.73px 404.265px;" id="elcel5pipf9do" class="animable"></path><path d="M453.31,430.59H435.36a.59.59,0,0,0-.58.66l.77,6.45a.58.58,0,0,0,.58.51h17.43a.58.58,0,0,0,.58-.65Z" style="fill: rgb(220, 0, 0); transform-origin: 444.46px 434.4px;" id="elf0ss8zx69zm" class="animable"></path><path d="M520.83,439.66,508,439.6a.47.47,0,0,0-.47.51l.49,6.41a.47.47,0,0,0,.47.43l14.21.11a.47.47,0,0,0,.45-.6L521.27,440A.47.47,0,0,0,520.83,439.66Z" style="fill: rgb(220, 0, 0); transform-origin: 515.348px 443.33px;" id="eldiwhl0mwr3e" class="animable"></path><path d="M440.09,439.67H427.23a.91.91,0,0,0-.91,1l.59,5.55a.93.93,0,0,0,.92.83h12.84a.93.93,0,0,0,.92-1l-.58-5.56A.91.91,0,0,0,440.09,439.67Z" style="fill: rgb(220, 0, 0); transform-origin: 433.954px 443.36px;" id="el9rn1nxa51nv" class="animable"></path><path d="M483.89,439.67H462.32a.55.55,0,0,0-.55.61l.63,6.28a.56.56,0,0,0,.56.51h21.46a.57.57,0,0,0,.56-.61l-.53-6.28A.56.56,0,0,0,483.89,439.67Z" style="fill: rgb(220, 0, 0); transform-origin: 473.374px 443.37px;" id="el0ljyxl77d87o" class="animable"></path><path d="M506.64,430.59h-14a.6.6,0,0,0-.59.66l.77,6.45a.59.59,0,0,0,.59.51h14a.58.58,0,0,0,.58-.65l-.77-6.45A.58.58,0,0,0,506.64,430.59Z" style="fill: rgb(220, 0, 0); transform-origin: 500.021px 434.4px;" id="elgsdb2eha2ia" class="animable"></path><path d="M518.09,430.59h-8.83a.59.59,0,0,0-.58.66l.78,6.45a.58.58,0,0,0,.58.51H520a.58.58,0,0,0,.56-.75L518.65,431A.58.58,0,0,0,518.09,430.59Z" style="fill: rgb(220, 0, 0); transform-origin: 514.631px 434.4px;" id="elzih3p1fs95" class="animable"></path><path d="M498.73,402.17l.27,5.19h12.74l-1.72-5.9H498.69C498.7,401.69,498.72,401.93,498.73,402.17Z" style="fill: rgb(220, 0, 0); transform-origin: 505.215px 404.41px;" id="elc1isgqoe8p" class="animable"></path><path d="M423.71,439.67H409.07a1.15,1.15,0,0,0-1.15,1.26l.44,5.08a1.17,1.17,0,0,0,1.16,1.06h14.74a1.16,1.16,0,0,0,1.15-1.29l-.55-5.08A1.15,1.15,0,0,0,423.71,439.67Z" style="fill: rgb(220, 0, 0); transform-origin: 416.666px 443.37px;" id="elpu7mqok7nw" class="animable"></path><path d="M317.84,431.34l-.23,6.07a.78.78,0,0,0,.78.8h19a.78.78,0,0,0,.78-.75l.23-6.06a.78.78,0,0,0-.78-.81h-19A.78.78,0,0,0,317.84,431.34Z" style="fill: rgb(220, 0, 0); transform-origin: 328.005px 434.4px;" id="elllsy8gra2af" class="animable"></path><path d="M240.38,422.82l-1.07,6.32H260.6l1-6.32Z" style="fill: rgb(220, 0, 0); transform-origin: 250.455px 425.98px;" id="eldk006npx4mw" class="animable"></path><path d="M295.8,431.34l-.23,6.07a.77.77,0,0,0,.78.8h19a.78.78,0,0,0,.78-.75l.23-6.06a.79.79,0,0,0-.78-.81h-19A.78.78,0,0,0,295.8,431.34Z" style="fill: rgb(220, 0, 0); transform-origin: 305.965px 434.4px;" id="elgcrt4waqqam" class="animable"></path><path d="M360.59,430.59H339.91l-.28,7.62h21.78Z" style="fill: rgb(220, 0, 0); transform-origin: 350.52px 434.4px;" id="elqdpykkrxyz" class="animable"></path><path d="M401.73,422.82H380a.58.58,0,0,0-.57.69l1,5.15a.58.58,0,0,0,.58.48h21.62a.58.58,0,0,0,.57-.68l-.83-5.15A.59.59,0,0,0,401.73,422.82Z" style="fill: rgb(220, 0, 0); transform-origin: 391.314px 425.979px;" id="elus9asevvgmm" class="animable"></path><path d="M318.22,409.12l-.45,5h14l0-.33.45-5h-14Z" style="fill: rgb(220, 0, 0); transform-origin: 324.995px 411.455px;" id="elne5v634fqwd" class="animable"></path><path d="M395.47,409.12l.48,5h14.18l0-.33-.45-5H395.44Z" style="fill: rgb(220, 0, 0); transform-origin: 402.785px 411.455px;" id="elcaf7jabr1ze" class="animable"></path><path d="M364.65,409.11c.21,1.68.43,3.35.64,5h14.3l0-.14-1-5.19h-14Z" style="fill: rgb(220, 0, 0); transform-origin: 372.09px 411.445px;" id="elrs5hzqrjjxd" class="animable"></path><path d="M302.83,408.81l0,.31-.45,5h14l0-.33.45-5h-14Z" style="fill: rgb(220, 0, 0); transform-origin: 309.605px 411.455px;" id="el80expte9x2" class="animable"></path><path d="M465.55,422.82H447.62a.59.59,0,0,0-.58.68l.84,5.15a.58.58,0,0,0,.58.49h17.92a.59.59,0,0,0,.58-.68l-.84-5.15A.58.58,0,0,0,465.55,422.82Z" style="fill: rgb(220, 0, 0); transform-origin: 457px 425.98px;" id="el8h9lyuylk4h" class="animable"></path><path d="M317.65,402l-.54,5.32h21.15v-6.08l-20.54,0C317.7,401.52,317.67,401.78,317.65,402Z" style="fill: rgb(220, 0, 0); transform-origin: 327.685px 404.28px;" id="ele7a4fgl9s24" class="animable"></path><path d="M411.66,402.17c.1,1.73.19,3.46.28,5.19h22.15v-.13q-.15-2.93-.31-5.85l-22.15,0C411.64,401.63,411.65,401.9,411.66,402.17Z" style="fill: rgb(220, 0, 0); transform-origin: 422.86px 404.37px;" id="el0u2hmj1838w" class="animable"></path><path d="M361.45,401.32c0,.28,0,.56,0,.85.09,1.73.19,3.46.28,5.19H385.3l-1.05-6h0l-22.8,0Z" style="fill: rgb(220, 0, 0); transform-origin: 373.375px 404.34px;" id="elwwb5uhaql" class="animable"></path><path d="M385.81,401.83l1,5.53h23.72v-.13c-.1-2-.21-3.91-.31-5.87l-24.45,0Z" style="fill: rgb(220, 0, 0); transform-origin: 398.15px 404.36px;" id="el2f9zrv3j27b" class="animable"></path><path d="M339.72,401.29v6.07h20.59v-.13c-.11-2-.21-3.94-.32-5.91h0Z" style="fill: rgb(220, 0, 0); transform-origin: 350.015px 404.325px;" id="ela6iavgd022" class="animable"></path><path d="M296,402l-.54,5.32h20.21l0-.42.57-5.68-20.2,0C296,401.51,296,401.77,296,402Z" style="fill: rgb(220, 0, 0); transform-origin: 305.85px 404.27px;" id="elu942aqwrev" class="animable"></path><path d="M492.64,422.82h-11a.59.59,0,0,0-.58.68l.83,5.15a.6.6,0,0,0,.58.49h11a.59.59,0,0,0,.58-.68l-.84-5.15A.58.58,0,0,0,492.64,422.82Z" style="fill: rgb(220, 0, 0); transform-origin: 487.555px 425.98px;" id="el026awj84flqx" class="animable"></path><path d="M501.43,409.12c.15,1.67.3,3.35.44,5h11.85l-1.55-5.33H501.4Z" style="fill: rgb(220, 0, 0); transform-origin: 507.56px 411.455px;" id="ellzr9e5184ue" class="animable"></path><path d="M486.35,408.81l0,.31c.15,1.67.3,3.35.44,5h13.6l0-.33c-.15-1.67-.29-3.33-.44-5Z" style="fill: rgb(220, 0, 0); transform-origin: 493.37px 411.455px;" id="eltqzijxex3km" class="animable"></path><path d="M456.42,402.17c.09,1.73.18,3.46.28,5.19h19.7v-.13c-.1-1.93-.2-3.87-.31-5.8l-19.7,0C456.4,401.66,456.41,401.91,456.42,402.17Z" style="fill: rgb(220, 0, 0); transform-origin: 466.395px 404.395px;" id="el7bacr2bnz16" class="animable"></path><path d="M435.27,402.17l.27,5.19h19.7v-.13q-.17-2.91-.31-5.83l-19.7,0C435.24,401.65,435.25,401.91,435.27,402.17Z" style="fill: rgb(220, 0, 0); transform-origin: 445.235px 404.38px;" id="el7pdn7sbd6xf" class="animable"></path></g><g id="freepik--Monitor--inject-9" class="animable" style="transform-origin: 366.555px 242.26px;"><path d="M167.92,114.17c3.62,2,133.09,9,200.05,9.27,117.17.49,199.66-9.27,199.66-9.27V341.25S456.09,335.42,368,335c-92.47-.47-200.05,6.27-200.05,6.27Z" style="fill: rgb(38, 50, 56); transform-origin: 367.775px 227.72px;" id="elqogdvgvphx" class="animable"></path><polygon points="332.99 335.11 317.1 369.49 421.22 369.49 400.93 335.11 332.99 335.11" style="fill: rgb(69, 90, 100); transform-origin: 369.16px 352.3px;" id="elyygh7p9rjps" class="animable"></polygon><path d="M167.92,341.25V330.19s222.63-10.41,399.71,0v12.39S411.26,330.19,167.92,341.25Z" style="fill: rgb(69, 90, 100); transform-origin: 367.775px 334.072px;" id="elm2ttlbdnhpi" class="animable"></path><g id="elq4h2afe62i9"><polygon points="332.31 336.59 329.01 343.72 405.9 343.72 401.8 336.59 332.31 336.59" style="opacity: 0.3; transform-origin: 367.455px 340.155px;" class="animable"></polygon></g><g id="elhklnk6e9xka"><path d="M475.67,121.07S389.05,268.35,167.92,241.9v88.29s152.79-79,221.27-104.56c148.74-55.45,178.44-43.53,178.44-43.53V114.17Z" style="fill: rgb(255, 255, 255); opacity: 0.1; transform-origin: 367.775px 222.18px;" class="animable"></path></g><path d="M256.89,360.35H490a10,10,0,0,1,10,10v0a0,0,0,0,1,0,0H246.89a0,0,0,0,1,0,0v0a10,10,0,0,1,10-10Z" style="fill: rgb(69, 90, 100); transform-origin: 373.445px 365.35px;" id="elret9npq7o6i" class="animable"></path><path d="M435.92,360.56c0,.15-33.38.26-74.55.26s-74.55-.11-74.55-.26,33.37-.26,74.55-.26S435.92,360.42,435.92,360.56Z" style="fill: rgb(38, 50, 56); transform-origin: 361.37px 360.56px;" id="elnqcfmzv5dbl" class="animable"></path><path d="M173.2,267.11c-.14,0-.26-32.05-.26-71.59s.12-71.6.26-71.6.26,32.05.26,71.6S173.35,267.11,173.2,267.11Z" style="fill: rgb(255, 255, 255); transform-origin: 173.2px 195.515px;" id="el9djqfoa1hbt" class="animable"></path><path d="M165.48,341.18l1-.06,3-.15,11.64-.52,18.42-.8,11.5-.47,12.9-.42c36.16-1.32,86.15-2.39,141.36-2.43s105.22,1.28,141.37,2.83c18.08.75,32.69,1.59,42.79,2.21l11.63.8,3,.24c.68.06,1,.11,1,.11l-1,0-3-.19-11.63-.71c-10.1-.56-24.72-1.34-42.8-2-36.15-1.46-86.13-2.63-141.35-2.68s-105.19,1-141.35,2.28l-12.9.38-11.5.44-18.42.7-11.64.42-3,.1C165.83,341.19,165.48,341.18,165.48,341.18Z" style="fill: rgb(220, 0, 0); transform-origin: 365.285px 339.425px;" id="elvjd5ej2u87i" class="animable"></path><path d="M409.24,359.63c0,.15-19.29.26-43.09.26s-43.09-.11-43.09-.26,19.29-.26,43.09-.26S409.24,359.49,409.24,359.63Z" style="fill: rgb(220, 0, 0); transform-origin: 366.15px 359.63px;" id="elo4rfi1trvn" class="animable"></path></g><defs>     <filter id="active" height="200%">         <feMorphology in="SourceAlpha" result="DILATED" operator="dilate" radius="2"></feMorphology>                <feFlood flood-color="#32DFEC" flood-opacity="1" result="PINK"></feFlood>        <feComposite in="PINK" in2="DILATED" operator="in" result="OUTLINE"></feComposite>        <feMerge>            <feMergeNode in="OUTLINE"></feMergeNode>            <feMergeNode in="SourceGraphic"></feMergeNode>        </feMerge>    </filter>    <filter id="hover" height="200%">        <feMorphology in="SourceAlpha" result="DILATED" operator="dilate" radius="2"></feMorphology>                <feFlood flood-color="#ff0000" flood-opacity="0.5" result="PINK"></feFlood>        <feComposite in="PINK" in2="DILATED" operator="in" result="OUTLINE"></feComposite>        <feMerge>            <feMergeNode in="OUTLINE"></feMergeNode>            <feMergeNode in="SourceGraphic"></feMergeNode>        </feMerge>            <feColorMatrix type="matrix" values="0   0   0   0   0                0   1   0   0   0                0   0   0   0   0                0   0   0   1   0 "></feColorMatrix>    </filter></defs></svg>