<?xml version="1.0" encoding="utf-8"?>
<!-- Generator: Adobe Illustrator 28.1.0, SVG Export Plug-In . SVG Version: 6.00 Build 0)  -->
<svg version="1.1" id="Layer_1" xmlns="http://www.w3.org/2000/svg" xmlns:xlink="http://www.w3.org/1999/xlink" x="0px" y="0px"
	 viewBox="0 0 1920 1080" style="enable-background:new 0 0 1920 1080;" xml:space="preserve">
<style type="text/css">
	.st0{fill:#E0E0E0;}
	.st1{fill:#FFFFFF;}
	.st2{fill:#F0F0F0;}
	.st3{opacity:0.2;fill:#DC0000;enable-background:new    ;}
	.st4{opacity:0.2;}
	.st5{fill:#DC0000;}
	.st6{opacity:0.4;fill:#FFFFFF;enable-background:new    ;}
	.st7{opacity:0.25;}
	.st8{opacity:0.5;}
	.st9{fill:#FFBDA7;}
	.st10{fill:#37474F;}
	.st11{fill:#263238;}
	.st12{opacity:0.3;enable-background:new    ;}
	.st13{fill:#455A64;}
	.st14{fill:#F0997A;}
	.st15{fill:#B16668;}
	.st16{fill:#F28F8F;}
	.st17{fill:#FAFAFA;}
	.st18{opacity:0.15;enable-background:new    ;}
	.st19{fill:#FFA8A7;}
	.st20{opacity:0.2;enable-background:new    ;}
	.st21{opacity:0.4;enable-background:new    ;}
</style>
<g id="freepik--Plants--inject-336">
	<g id="freepik--plants--inject-336">
		<path id="elyn96sw43wes" class="st0" d="M1242.22,544.77c-16.81,1.58-36.71,30.3-41.74,56.48c-3.38,16.49-4.11,33.34-2.16,50.02
			l7.1,3.77l2.06,1.11l5.75,3.05l5.08,2.71l1.02,0.53l0.49-8.96l0,0v-0.15l0,0v-1.3c-1.28-13.03,7.12-30.68,16.4-46.53
			c6.22-10.66,12.82-20.38,17.23-27.51C1264.55,560.23,1257.87,543.3,1242.22,544.77z"/>
		<path id="elkxgegfcluf" class="st1" d="M1245.6,555.69c-20.71,15.18-41.14,55.54-38.08,100.56l-2.06-1.11
			c-2.67-45.16,18-85.61,38.89-100.9c0.41-0.32,1.02-0.28,1.37,0.1c0.01,0.02,0.03,0.03,0.04,0.05c0.35,0.39,0.28,0.97-0.15,1.29
			C1245.61,555.68,1245.61,555.68,1245.6,555.69z"/>
		<path id="elg6ev55k0ztq" class="st2" d="M1220.28,662.94L1220.28,662.94l6.96,3.75c3.05-8.05,7.44-15.62,13.01-22.43
			c12.27-15.2,30.82-26.25,32.47-35.63c2.06-11.26-7.21-18.08-23.49-12.09c-5.02,2.05-9.48,5.1-13.06,8.93
			c-14.06,15-22.19,33.94-23.05,53.73l5.08,2.71l1.02,0.53L1220.28,662.94z"/>
		<path id="el8nrrw8zslfw" class="st1" d="M1220.28,662.94L1220.28,662.94c3.99-33.35,25.51-51.79,37.38-57.17
			c0.5-0.22,0.72-0.77,0.49-1.24c-0.23-0.46-0.82-0.66-1.32-0.45c-0.02,0.01-0.03,0.01-0.04,0.02
			c-11.8,5.35-30.52,21.17-36.92,49.36l0,0c-0.66,2.78-1.16,5.59-1.51,8.42l1.02,0.53L1220.28,662.94z"/>
	</g>
	<g id="freepik--plants--inject-336_00000146475358403658113950000004537502327176585891_">
		<path id="el3ig7wjdr9vc" class="st0" d="M223.57,625.86l-5.1,2.73l-11.6,6.16c0-22.35-8.14-41.81-17.67-57.57
			c-6.78-10.7-14.3-20.98-22.52-30.79c-13.66-17.25,6.96-26.27,23.54-18.23s29.34,27.31,33.74,51.83
			C227.19,597.63,225.01,616.58,223.57,625.86z"/>
		<path id="el6gs29m8352o" class="st1" d="M216.34,628.44h0.19c0.55,0.01,1.01-0.39,1.02-0.9c0,0,0,0,0,0
			c1.23-53.03-16.54-80.41-37.96-94.86c-0.44-0.31-1.06-0.23-1.4,0.17c-0.01,0.01-0.01,0.01-0.02,0.02
			c-0.32,0.4-0.24,0.96,0.19,1.25c0.01,0.01,0.03,0.02,0.04,0.03c21.15,14.29,38.38,41.09,37.11,93.35
			C215.5,627.96,215.85,628.35,216.34,628.44z"/>
		<path id="elsktu9m341r" class="st2" d="M218.47,628.59l-11.6,6.16l-5.61,2.99l-1.51,0.79l-16.23,8.53
			c-6.82-2.79-9.81-6.08-10.92-11.22c-0.97-4.61-0.28-9.87-3.53-13.5c-2.25-2.08-5.17-3.44-8.33-3.86
			c-1.04-0.23-2.06-0.51-3.06-0.85c-2.08-0.79-4.11-1.7-6.08-2.71c-2.43-1.17-4.23-3.21-4.99-5.63c-1.32-5.82,6.45-10.87,5.43-16.74
			c-0.46-2.75-3.04-4.88-5.38-7.02c-2.34-2.13-4.8-4.26-4.96-7.29c0.04-2.73,1.57-5.26,4.06-6.74c4.35-2.54,9.72-3.12,14.59-1.58
			c4.94,1.39,9.28,4.26,14.05,6.06s9.81,0.21,14.82,1.19h0.23c4.89,1,10.04,2.79,11.8,7.61s-0.46,10.51,2.55,14.69
			c3.34,4.67,10.44,5.54,13.91,10.21C221.77,615.38,222.05,622.65,218.47,628.59z"/>
		<path id="el4yl2lig69gu" class="st1" d="M201.29,637.73l-1.51,0.79c1.14-12.02-2.02-24.05-9-34.27
			c-10.34-4.3-22.23-4.18-32.47,0.32c-0.11,0.08-0.25,0.11-0.39,0.11c-0.24-0.01-0.45-0.13-0.58-0.32c-0.2-0.31-0.09-0.72,0.26-0.9
			c0.01,0,0.02-0.01,0.02-0.01c9.97-4.43,21.49-4.83,31.79-1.11c-11.87-16.1-30.4-24.37-36.83-25.99c-0.39-0.1-0.61-0.47-0.51-0.83
			c0.1-0.34,0.48-0.55,0.85-0.46c0.01,0,0.02,0.01,0.03,0.01c6.82,1.71,26.72,10.66,38.8,28.17c0.1,0.07,0.17,0.17,0.21,0.28
			C198.97,613.71,202.24,625.7,201.29,637.73z"/>
	</g>
</g>
<g id="freepik--Clouds--inject-336">
	<g id="freepik--Cloud--inject-336">
		<path id="el9w5r5kapzdd" class="st1" d="M1297.09,103.68c0-7.02-8.37-11.9-17.83-12.79c-11.15-0.96-19.09,3.62-19.34,11.71
			c-7.31-2.77-15-1-14.42,6.4c-1.9-2-9-1.96-11.6-1.39c-2.8,0.73-5.12,2.54-6.35,4.97c-0.6,1.18-0.83,2.48-0.65,3.77
			c-4.27-1.28-13.91-2.13-16.23,1.54c-4.31,6.4,12.89,6.59,16.37,4.65c0.72,4.97,19.23,5.8,23.7,1.19
			c3.48,3.24,8.51,3.97,13.91,4.26c9.14,0.49,14.75-2.35,21.89-5.71c7.77,6.06,21.2,6.16,28.18-0.75c1.79,1.54,6.7,2.03,10.64,1.15
			c2.57-0.55,3.18-1.58,3.18-1.58c1.49,0.59,3.05,1.04,4.64,1.32c5.08,0.98,14.52,0,10.55-4.26c-2.44-1.57-5.42-2.24-8.37-1.9
			c-2.2-3.99-11.09-7.78-16.23-4.39c-0.21-4.86-5.01-8.66-11.8-9.62C1305.21,101.97,1299.76,101.7,1297.09,103.68z"/>
		<path id="el3krvtpprkt3" class="st0" d="M1266.71,129.03h-2.11c-4.64-0.26-9.97-0.81-13.91-3.9c-4.04,2.92-13.54,3.39-19.5,1.71
			c-1.95-0.38-3.68-1.42-4.82-2.92c-3.99,1.19-13.29,1.17-16.37-1.71c-1.39-1.28-1.5-3.33-0.26-4.73
			c2.55-3.77,11.15-3.41,16.23-2.28c0.08-0.99,0.35-1.95,0.79-2.86c1.35-2.72,3.94-4.75,7.07-5.54c3.59-0.64,7.3-0.44,10.78,0.58
			c0.12-2.08,1.25-4.01,3.08-5.25c3.47-1.86,7.69-2.13,11.41-0.72c0.34-2.92,1.87-5.61,4.27-7.55c4.55-3.25,10.35-4.64,16.05-3.86
			c8.65,0.77,17.44,5.1,18.55,12.07c3.09-0.95,6.38-1.2,9.6-0.72c6.66,0.96,11.46,4.5,12.48,9.02c2.26-0.84,4.75-0.97,7.1-0.36
			c3.52,0.73,6.64,2.6,8.79,5.27c2.57-0.19,7.1,0.68,8.63,2.3c1.53,1.62,1.32,2.94,0.81,3.71c-1.69,2.64-8.84,2.77-12.36,2.13
			c-1.46-0.25-2.88-0.62-4.27-1.11c-0.93,0.69-2.03,1.16-3.2,1.36c-3.58,0.86-7.38,0.57-10.76-0.83c-7.12,6.27-20.2,6.59-28.43,0.64
			l-0.28,0.13C1279.98,126.49,1274.6,129.03,1266.71,129.03z M1250.71,122.83c0.27,0.01,0.53,0.1,0.72,0.28
			c3.08,2.88,7.54,3.67,13.29,3.99c8.49,0.47,13.78-2.13,20.48-5.2l0.88-0.41c0.37-0.18,0.82-0.12,1.14,0.13
			c7.63,5.95,20.39,5.63,26.76-0.68c0.18-0.19,0.44-0.3,0.72-0.3c0.27-0.03,0.54,0.06,0.72,0.26c1.34,1.15,5.77,1.79,9.69,0.92
			c2.02-0.43,2.55-1.13,2.55-1.15c0.28-0.39,0.83-0.54,1.3-0.36c1.46,0.56,2.97,0.97,4.52,1.24c3.92,0.77,9.28,0.13,10.18-1.19
			c0.28-0.43-0.19-1.07-0.6-1.51c-2.19-1.29-4.79-1.85-7.37-1.58c-0.46,0.09-0.93-0.12-1.14-0.51c-1.83-2.5-4.64-4.25-7.84-4.88
			c-2.3-0.66-4.8-0.36-6.84,0.81c-0.45,0.31-1.09,0.22-1.43-0.2c-0.12-0.15-0.19-0.33-0.2-0.52c-0.19-4.26-4.64-7.8-10.95-8.7
			c-2.32-0.34-7.31-0.51-9.51,1.17c-0.43,0.33-1.08,0.27-1.44-0.13c-0.15-0.17-0.23-0.38-0.23-0.6c0-6.78-8.53-11.05-16.91-11.77
			c-6.12-0.53-11.27,0.64-14.54,3.28c-2.35,1.93-3.69,4.69-3.66,7.59c-0.01,0.31-0.18,0.6-0.46,0.77c-0.3,0.15-0.65,0.15-0.95,0
			c-4.17-1.58-8.3-1.54-10.74,0c-1.78,1.27-2.67,3.33-2.32,5.37c0.05,0.41-0.21,0.79-0.63,0.94c-0.41,0.16-0.88,0.06-1.16-0.26
			c-1.44-1.51-7.95-1.66-10.53-1.09c-2.49,0.65-4.56,2.26-5.66,4.41c-0.55,1.03-0.75,2.19-0.58,3.33c0.03,0.32-0.12,0.63-0.39,0.83
			c-0.27,0.19-0.62,0.26-0.95,0.17c-4.22-1.28-13.17-1.81-15.17,1.11c-0.88,1.32-0.49,1.98,0,2.41c2.64,2.45,12.71,2.13,15,0.94
			c0.31-0.14,0.67-0.14,0.97,0c0.3,0.14,0.51,0.41,0.56,0.72c0.16,0.96,1.53,1.88,3.8,2.52c5.66,1.6,15.31,1.07,18.14-1.81
			c0.18-0.2,0.46-0.32,0.74-0.32L1250.71,122.83z"/>
	</g>
	<g id="freepik--cloud--inject-336">
		<path id="ela5sx8aa1coo" class="st1" d="M583.57,183.47c0-7.87-9.28-13.33-19.97-14.24c-12.48-1.09-21.36,4.03-21.64,13.09
			c-8.19-3.09-16.79-1.11-16.23,7.14c-2.13-2.26-10.06-2.13-12.92-1.56c-3.14,0.81-5.74,2.84-7.12,5.57
			c-0.7,1.32-0.96,2.81-0.74,4.26c-4.78-1.43-15.58-2.3-18.3,1.71c-4.82,7.16,14.42,7.38,18.32,5.22c0.81,5.57,21.52,6.4,26.53,1.34
			c3.92,3.62,9.53,4.41,15.61,4.75c10.23,0.55,16.51-2.62,24.51-6.4c8.67,6.76,23.7,6.89,31.54-0.85c1.99,1.73,7.49,2.26,11.9,1.3
			c2.9-0.64,3.57-1.77,3.57-1.77c1.71,0.67,3.49,1.16,5.31,1.47c5.66,1.09,16.23,0,11.8-4.78c-1.51-1.6-6.96-2.6-9.39-2.13
			c-2.46-4.48-12.41-8.72-18.11-4.95c-0.23-5.42-5.61-9.66-13.22-10.66C592.59,181.55,586.47,181.25,583.57,183.47z"/>
		<path id="elighpvlfltt" class="st0" d="M549.48,211.85c-0.74,0-1.53,0-2.32,0c-5.26-0.28-11.18-0.9-15.54-4.26
			c-4.5,3.28-15.14,3.82-21.82,1.92c-2.19-0.42-4.11-1.59-5.38-3.28c-4.48,1.36-14.89,1.32-18.34-1.88
			c-1.56-1.44-1.68-3.74-0.28-5.31c2.85-4.26,12.48-3.82,18.07-2.56c0.08-1.11,0.38-2.19,0.88-3.2c1.51-3.04,4.4-5.32,7.91-6.2
			c4.02-0.71,8.16-0.49,12.06,0.64c0.09-2.39,1.36-4.61,3.46-6.03c3.88-2.1,8.6-2.41,12.76-0.83c0.38-3.29,2.09-6.33,4.78-8.53
			c4.15-3.35,10.53-4.86,18.02-4.26c9.69,0.83,19.53,5.69,20.87,13.5c3.45-1.08,7.14-1.36,10.74-0.81
			c7.44,1.07,12.82,5.03,13.91,10.11c2.52-0.96,5.33-1.11,7.95-0.43c3.95,0.83,7.44,2.92,9.86,5.91c2.88-0.23,7.93,0.77,9.62,2.58
			s1.48,3.28,0.93,4.14c-1.9,2.99-9.9,3.11-13.91,2.35c-1.63-0.28-3.23-0.69-4.78-1.24c-1.04,0.78-2.27,1.31-3.59,1.54
			c-4.01,0.94-8.25,0.61-12.04-0.94c-7.95,7.04-22.61,7.38-31.82,0.72l-0.3,0.13C564.26,208.99,558.32,211.83,549.48,211.85z
			 M531.6,204.9c0.31,0.01,0.6,0.12,0.81,0.32c3.46,3.2,8.44,4.09,14.87,4.44c9.51,0.53,15.42-2.26,22.94-5.8l0.97-0.45
			c0.41-0.21,0.92-0.16,1.28,0.13c8.53,6.65,22.82,6.4,29.94-0.77c0.21-0.2,0.5-0.33,0.81-0.34c0.31-0.01,0.61,0.1,0.83,0.3
			c1.48,1.28,6.45,2,10.83,1.04c2.32-0.49,2.85-1.28,2.85-1.3c0.31-0.44,0.93-0.62,1.46-0.41c1.63,0.63,3.34,1.09,5.08,1.39
			c4.36,0.85,10.44,0.13,11.39-1.34c0.3-0.47-0.21-1.17-0.7-1.68c-2.45-1.41-5.36-2.01-8.23-1.68c-0.52,0.11-1.06-0.12-1.3-0.55
			c-2.03-2.81-5.18-4.77-8.77-5.48c-2.58-0.72-5.37-0.38-7.65,0.94c-0.37,0.19-0.82,0.19-1.18,0c-0.38-0.18-0.63-0.53-0.65-0.92
			c-0.19-4.82-5.1-8.72-12.22-9.74c-2.6-0.36-8.19-0.58-10.64,1.32c-0.35,0.25-0.83,0.3-1.23,0.13c-0.39-0.17-0.65-0.54-0.65-0.94
			c0-7.59-9.55-12.37-18.95-13.2c-6.82-0.58-12.59,0.72-16.23,3.71c-2.6,2.13-4.09,5.16-4.13,8.36c-0.01,0.34-0.2,0.66-0.51,0.85
			c-0.33,0.17-0.74,0.17-1.07,0c-4.64-1.75-9.28-1.73-12.01,0c-1.97,1.43-2.94,3.73-2.55,6.01c0.05,0.58-0.41,1.08-1.04,1.13
			c-0.36,0.03-0.72-0.11-0.96-0.36c-1.62-1.68-8.91-1.86-11.8-1.22c-2.78,0.73-5.08,2.54-6.31,4.95c-0.63,1.21-0.84,2.56-0.6,3.88
			c0.04,0.35-0.12,0.7-0.42,0.92c-0.3,0.23-0.71,0.3-1.09,0.19c-4.64-1.43-14.75-2.03-16.95,1.26c-1,1.47-0.56,2.13,0,2.69
			c2.95,2.75,14.24,2.47,16.79,1.04c0.34-0.16,0.75-0.16,1.09,0c0.35,0.15,0.59,0.46,0.65,0.81c0.16,1.07,1.72,2.13,4.24,2.81
			c6.33,1.79,17.14,1.19,20.29-2.13c0.22-0.22,0.52-0.35,0.83-0.36L531.6,204.9z"/>
	</g>
	<g id="freepik--cloud--inject-336_00000133496767622320723640000009069455458800140672_">
		<path id="elofj8bj7cegc" class="st1" d="M1511.66,191.53c-2.23-0.76-4.58-1.16-6.96-1.19c-2.32-0.17-2.97-0.58-3.41-1.02
			c-4.46-5.97-12.85-8.26-20.13-5.5c-2.05-5.84-8.62-9.26-15.12-7.87c0.26-6.4-8.77-13.45-16.86-14.93
			c-7.75-1.51-14.52-0.9-18.95,3.82c-4.75-8.53-23.33-10.92-33.4-6.4c-5.77,2.58-10.67,5.25-13.08,10.13
			c-1.59,3.01-2.33,6.34-2.18,9.68c-3.92-3.18-11.76-4.03-17-2.13c-5.64,2-6.08,5.93-6.35,9.89c-3.35-0.88-6.89-0.94-10.27-0.17
			c-3.55,0.98-5.59,3.54-5.1,5.61c-2.83-0.15-9.53,1.96-8.74,4.69c0.86,3.05,8.51,2.75,11.36,2.64c2.69-0.2,5.37-0.59,8-1.15
			c1.33,0.47,2.75,0.72,4.17,0.72c4.87,0,6.96-1.94,7.72-3.62c2.32,4.61,10.83,8.12,16.81,9.53c11.27,2.64,27.2,1.02,34.16-6.72
			c0.81,1.46,1.95,2.75,3.34,3.77c2.99,2.2,6.62,3.55,10.44,3.88c4.64,0.38,17.05,0.94,20.55-5.82c2.48,4.5,13.52,6.55,21.94,5.44
			c3.26-0.45,6.43-1.33,9.42-2.6c1.85-0.91,3.66-1.91,5.4-2.99c1.38-0.86,3.15-0.97,4.64-0.3c5.97,1.88,12.47,1.82,18.39-0.19
			C1515.09,196.96,1516.06,193.36,1511.66,191.53z"/>
		<path id="elg7pm3mq0ppw" class="st0" d="M1392.8,206.24c-3.67,0.02-7.32-0.38-10.88-1.19c-4.64-1.11-13.03-4.09-16.58-8.53
			c-1.96,1.97-4.81,2.99-7.7,2.75c-1.45-0.01-2.9-0.24-4.27-0.68c-2.58,0.56-5.21,0.93-7.86,1.11c-3.78,0.15-11.36,0.41-12.41-3.35
			c-0.26-0.93,0.01-1.92,0.72-2.62c2.17-1.87,4.97-3,7.93-3.22c0.56-2.79,2.9-5,5.91-5.59c3.16-0.72,6.46-0.72,9.62,0
			c0.3-3.52,1.11-7.55,6.96-9.6c5.41-1.72,11.36-1.27,16.4,1.24c0.12-2.88,0.91-5.7,2.32-8.27c2.62-5.33,8.14-8.15,13.57-10.66
			c10.13-4.52,28.08-2.43,34.02,5.71c4.29-3.82,10.53-4.84,18.97-3.2c7.93,1.56,16.91,8.21,17.63,14.93
			c6.27-0.77,12.33,2.39,14.82,7.74c7.48-2.37,15.77,0.14,20.25,6.14c0,0,0.46,0.47,2.67,0.64h0.63c2.3,0.04,4.58,0.45,6.73,1.22
			l0,0c1.96,0.55,3.33,2.17,3.43,4.05c-0.37,2.34-2.18,4.27-4.64,4.95c-6.16,2.02-12.9,2.02-19.06,0c-2.02-0.58-2.46-0.55-3.78,0.19
			l-1.79,1.04c-1.18,0.74-2.42,1.41-3.71,1.98c-3.08,1.32-6.35,2.23-9.72,2.69c-8.05,1.07-18.16-0.6-22.01-4.63
			c-4.27,5.5-14.63,5.52-20.71,5.01c-4.02-0.34-7.85-1.76-10.99-4.09c-1.11-0.83-2.08-1.81-2.88-2.9
			C1410.87,203.98,1401.68,206.24,1392.8,206.24z M1365.37,193.66c0.39,0.01,0.75,0.21,0.93,0.53c2.09,4.07,9.83,7.53,16.23,9.02
			c11.11,2.62,26.53,0.94,33.12-6.4c0.21-0.25,0.56-0.38,0.9-0.34c0.35,0.05,0.65,0.25,0.81,0.53c0.74,1.35,1.79,2.53,3.08,3.45
			c2.83,2.07,6.26,3.34,9.86,3.67c4.82,0.41,16.42,0.72,19.53-5.29c0.16-0.32,0.52-0.53,0.9-0.53c0.39,0.01,0.74,0.2,0.93,0.51
			c2.32,4.09,12.89,5.97,20.87,4.93c3.15-0.43,6.22-1.28,9.11-2.52c1.14-0.55,2.24-1.17,3.29-1.86c0.58-0.36,1.18-0.72,1.86-1.09
			c1.62-1,3.69-1.15,5.45-0.38c5.71,1.83,11.93,1.83,17.65,0c2.11-0.81,3.46-2.13,3.48-3.24c0.02-1.11-0.77-1.71-2.32-2.3l0,0
			c-1.92-0.67-3.95-1.03-6.01-1.07h-0.65c-1.51,0.08-2.99-0.41-4.1-1.34c-4.18-5.63-12.07-7.8-18.92-5.2
			c-0.52,0.2-1.12-0.02-1.34-0.49c-0.02-0.05-0.04-0.1-0.05-0.14c-1.91-5.35-7.95-8.47-13.91-7.19c-0.55,0.11-1.09-0.22-1.21-0.73
			c-0.02-0.07-0.02-0.14-0.02-0.21c0.23-6.03-8.6-12.62-16.05-14.09c-8.33-1.62-14.19-0.47-17.97,3.52
			c-0.23,0.24-0.56,0.36-0.9,0.32c-0.34-0.05-0.63-0.24-0.79-0.51c-4.48-8.08-22.4-10.3-32-5.99c-5.31,2.37-10.27,4.9-12.62,9.66
			c-1.52,2.89-2.23,6.09-2.06,9.3c-0.01,0.37-0.26,0.7-0.63,0.85c-0.36,0.16-0.79,0.1-1.09-0.15c-3.5-2.84-10.97-3.77-15.96-2
			c-4.99,1.77-5.19,4.8-5.52,9.06c-0.01,0.28-0.16,0.55-0.42,0.7c-0.25,0.17-0.56,0.22-0.86,0.15c-3.16-0.85-6.52-0.91-9.72-0.17
			c-3.18,0.85-4.75,3.01-4.41,4.5c0.06,0.29-0.02,0.59-0.23,0.81c-0.21,0.22-0.52,0.34-0.83,0.32c-2.7,0.05-5.29,0.96-7.35,2.56
			c-0.42,0.47-0.39,0.77-0.32,0.94c0.42,1.51,3.85,2.13,10.2,1.96c2.68-0.19,5.34-0.57,7.95-1.13c0.22-0.06,0.45-0.06,0.67,0
			c1.18,0.4,2.43,0.61,3.69,0.64c3.48,0,5.89-1.11,6.79-3.05c0.16-0.34,0.52-0.57,0.93-0.58L1365.37,193.66z"/>
	</g>
	<g id="freepik--cloud--inject-336_00000018204300582966839580000000109282023641782919_">
		<path id="elnrtlh1bglqd" class="st1" d="M860.52,116.71c-2.48-0.79-5.1-1.18-7.72-1.17c-2.48-0.13-3.29-0.58-3.78-1.07
			c-5.05-6.41-14.27-8.73-22.17-5.59c-2.42-6.33-9.7-9.9-16.77-8.23c0-7.12-9.93-14.58-18.85-16.16
			c-8.56-1.51-15.96-0.68-20.71,4.56c-5.4-9.25-25.86-11.51-36.8-6.4c-6.28,2.94-11.6,5.97-14.12,11.36
			c-1.66,3.34-2.41,7-2.16,10.66c-4.38-3.41-13.03-4.26-18.72-2.13c-6.17,2.3-6.54,6.61-6.75,10.98c-3.7-0.92-7.6-0.92-11.29,0
			c-3.87,1.13-6.05,3.99-5.47,6.25c-3.08,0-10.39,2.32-9.49,5.31c1.02,3.35,9.42,2.86,12.55,2.71c2.95-0.29,5.88-0.76,8.77-1.43
			c1.49,0.48,3.06,0.72,4.64,0.7c5.36-0.13,7.58-2.28,8.4-4.12c2.71,5.01,12.11,8.68,18.69,10.11c12.43,2.69,29.89,0.6,37.34-8.04
			c0.93,1.59,2.22,2.98,3.78,4.07c3.35,2.37,7.38,3.78,11.6,4.05c5.1,0.34,18.74,0.7,22.43-6.8c2.83,4.88,15,6.91,24.21,5.54
			c3.56-0.57,7.02-1.59,10.27-3.05c2.02-1.03,3.98-2.16,5.87-3.39c1.48-0.98,3.42-1.14,5.06-0.41c6.57,2,13.68,1.87,20.15-0.38
			C864.39,122.61,865.39,118.63,860.52,116.71z"/>
		<path id="el29ijwt6qr3o" class="st0" d="M729.33,135.09c-3.66,0.01-7.31-0.36-10.88-1.11c-5.26-1.13-14.56-4.26-18.55-9.23
			c-2.07,2.26-5.19,3.47-8.4,3.26c-1.57-0.01-3.14-0.23-4.64-0.66c-2.83,0.65-5.72,1.11-8.63,1.36c-3.78,0.21-12.31,0.66-13.54-3.33
			c-0.27-0.98,0-2.01,0.72-2.77c2.34-2.09,5.4-3.38,8.65-3.65c0.49-3.07,2.97-5.55,6.26-6.25c3.47-0.9,7.13-0.99,10.64-0.26
			c0.23-3.88,0.97-8.36,7.31-10.66c5.94-2.01,12.53-1.59,18.11,1.15c0.02-3.22,0.82-6.4,2.32-9.32c2.74-5.84,8.72-9.04,14.59-11.81
			c11.02-5.18,30.82-3.2,37.38,5.69c4.64-4.26,11.39-5.61,20.76-3.97c8.74,1.56,18.76,8.72,19.6,15.99
			c6.89-1.06,13.69,2.32,16.49,8.21c8.13-2.8,17.29-0.23,22.33,6.27c0.14,0.13,0.58,0.55,3.06,0.68h0.7c2.5,0,4.98,0.41,7.33,1.19
			c3.27,1.3,3.78,3.22,3.78,4.26c-0.37,2.53-2.32,4.64-4.99,5.37c-6.69,2.37-14.07,2.52-20.87,0.43c-2.32-0.58-2.81-0.53-4.29,0.32
			l-1.92,1.17c-1.28,0.8-2.62,1.51-4.01,2.13c-3.34,1.5-6.89,2.56-10.55,3.16c-8.7,1.28-20.08-0.38-24.28-4.75
			c-4.43,6.23-15.89,6.4-22.59,6.01c-4.39-0.28-8.59-1.77-12.06-4.26c-1.29-0.9-2.41-1.99-3.32-3.22
			C750.04,132.4,739.44,135.09,729.33,135.09z M699.97,122.1c0.37,0.01,0.71,0.19,0.88,0.49c2.32,4.48,11.04,8.12,18.04,9.64
			c12.29,2.67,29.27,0.51,36.34-7.72c0.21-0.23,0.53-0.36,0.86-0.34c0.33,0.03,0.62,0.22,0.77,0.49c0.88,1.45,2.08,2.71,3.53,3.71
			c3.18,2.24,7,3.58,10.99,3.86c6.66,0.45,18.27,0.23,21.45-6.27c0.16-0.31,0.49-0.52,0.86-0.53c0.38-0.03,0.74,0.16,0.9,0.47
			c2.6,4.5,14.38,6.4,23.19,5.1c3.47-0.55,6.84-1.55,10-2.99c1.31-0.63,2.58-1.34,3.78-2.13c0.63-0.41,1.28-0.81,2.02-1.22
			c1.7-1.12,3.92-1.32,5.82-0.51c5.22,1.32,12.82,2.37,19.5-0.34c2.32-0.98,3.83-2.41,3.83-3.75s-0.93-1.96-2.6-2.62l0,0
			c-2.14-0.7-4.4-1.06-6.68-1.04h-0.7c-1.62,0.11-3.22-0.37-4.45-1.34c-4.75-6.15-13.54-8.39-21.06-5.37
			c-0.26,0.11-0.55,0.11-0.81,0c-0.26-0.11-0.44-0.32-0.51-0.58c-2.25-5.9-9.04-9.24-15.63-7.7c-0.52,0.12-1.05-0.18-1.18-0.66
			c-0.02-0.07-0.03-0.14-0.03-0.22c0.12-6.67-9.79-13.82-18.07-15.29c-9.28-1.64-15.7-0.23-19.78,4.26
			c-0.21,0.24-0.53,0.36-0.86,0.32c-0.32-0.02-0.6-0.2-0.74-0.47c-5.17-8.83-25-10.94-35.51-5.99c-5.8,2.73-11.2,5.61-13.68,10.92
			c-1.6,3.23-2.31,6.78-2.06,10.32c-0.01,0.51-0.46,0.91-1.01,0.91c-0.22,0-0.44-0.07-0.62-0.2c-3.94-3.09-12.22-3.97-17.72-1.92
			c-5.5,2.05-5.89,5.5-6.12,10.21c-0.02,0.26-0.16,0.5-0.39,0.66c-0.22,0.17-0.51,0.23-0.79,0.17c-3.53-0.88-7.25-0.88-10.78,0
			c-3.55,1.02-5.26,3.5-4.82,5.2c0.12,0.48-0.22,0.96-0.74,1.07c-0.08,0.02-0.17,0.02-0.26,0.02c-3.01,0.09-5.9,1.15-8.14,3.01
			c-0.34,0.3-0.48,0.75-0.37,1.17c0.53,1.73,4.36,2.41,11.41,2.13c2.95-0.27,5.87-0.74,8.74-1.41c0.2-0.06,0.42-0.06,0.63,0
			c1.34,0.42,2.74,0.63,4.15,0.62c5.22-0.13,6.96-2.28,7.51-3.56c0.14-0.33,0.49-0.55,0.88-0.55L699.97,122.1z"/>
	</g>
</g>
<g id="freepik--money-symbol--inject-336">
	<g id="freepik--shadow--inject-336_00000028306554199250374020000006618365601568606883_">
		<g id="elnzwmkd8tw0d">
			<ellipse class="st3" cx="980.97" cy="890.74" rx="155.98" ry="82.79"/>
		</g>
		<g id="elbw5275mmuk">
			<g class="st4">
				<path id="ela17bq58ws0u" class="st5" d="M980.97,991.28c-45.94,0-91.88-9.74-126.86-29.23c-34.11-19-52.9-44.33-52.88-71.3
					c0.02-26.97,18.76-52.3,52.88-71.3c69.94-39,183.77-39,253.71,0l0,0c34.09,19.02,52.88,44.33,52.88,71.32
					s-18.78,52.3-52.88,71.3C1072.85,981.53,1026.91,991.28,980.97,991.28z M980.97,792.43c-45.5,0-90.96,9.64-125.58,28.93
					c-33.35,18.57-51.69,43.22-51.69,69.38c0,26.16,18.34,50.79,51.67,69.36c69.27,38.59,181.93,38.59,251.18,0
					c33.33-18.57,51.69-43.2,51.69-69.36s-18.37-50.81-51.69-69.38C1071.93,802.06,1026.45,792.43,980.97,792.43L980.97,792.43z"/>
			</g>
		</g>
	</g>
	<g id="freepik--money-sign--inject-336">
		<polygon id="elt5j8i8f7s6" class="st5" points="1048.94,639.22 1011.65,619.39 1083.78,562.85 1121.04,582.63 		"/>
		<path id="elwnzdn4sa9d" class="st5" d="M1071.83,652.29c-19.06-12.43-52.18-3.05-80.19,5.1c-6.75,2.13-12.85,3.92-18.34,5.48
			c-1.78,3.77-2.71,7.83-2.76,11.94c0,19.96,18.41,14.52,58.44,2.41c13.49-4.26,27.3-7.6,41.33-10c1.23,10.15,8.91,19.38,38.82,4.88
			L1071.83,652.29z"/>
		<polygon id="eldv9mg3zzc0n" class="st5" points="979.49,912.21 942.22,892.43 942.22,851.94 979.49,871.79 		"/>
		<path id="elduwbmukfnr" class="st5" d="M1042.64,758.63c0,16.08-13.17,30.43-32.63,40.85c-31.08,16.59-43.16,3.09-45.8-10.13
			l-6.56-3.5c5.28-1.52,10.35-3.6,15.1-6.2c14.73-7.89,25.83-18.06,30.33-29.51C1026.08,743.19,1042.64,740.48,1042.64,758.63z"/>
		<path id="elr2dv1bh5fea" class="st5" d="M904.02,857.78c-4.12-2.21-8.85-3.27-13.61-3.05c-0.74-2.03-1.41-4.14-1.99-6.4
			l-37.31-19.81c3.69,14.93,11.11,24.16,20.87,29.28l0,0l37.11,19.77C909.08,877.57,915.5,864.67,904.02,857.78z"/>
		<path id="elrz3i6ilgdsk" class="st5" d="M1028.98,677.22c-40.03,12.11-58.44,17.55-58.44-2.41c0.05-4.11,0.98-8.17,2.76-11.94
			c-27.32,7.76-40.03,8.74-40.03-7.85c0-12.2,8.95-27.23,33.63-40.51c26.37-14.07,41.09-10.77,44.76,4.8l72.12-56.55
			c-0.3-0.85-0.67-1.62-1.02-2.45c4.49-0.9,8.81-2.43,12.8-4.52l-29.73-16.25c-0.93-0.55-1.88-1.07-2.85-1.56l-0.44-0.23l0,0
			c-8.8-3.91-18.64-5.39-28.34-4.26c-12.88,1.34-25.45,4.52-37.27,9.42v-0.72l37.38-19.83l-37.29-19.81l0,0l-25.32,13.5
			l-34.21,18.29l0,0v40.51c-50.51,33.8-82.07,78-82.07,125.8c0,21.77,6.4,34.12,16.7,40.41l0,0l0.49,0.26
			c0.88,0.51,1.81,0.98,2.74,1.41l31.19,16.16c0.88-4.38,0.22-8.91-1.88-12.92c9.9-1.19,19.66-3.15,29.2-5.86
			c37.92-10.55,71.57-27.1,71.57-1.26c-0.02,3.88-0.8,7.72-2.32,11.34c23.01-6.91,39.56-9.62,39.56,8.53
			c0,16.08-13.17,30.43-32.63,40.85c-31.08,16.59-43.14,3.09-45.8-10.13l0,0l-6.56-3.5l-30.73-16.33l-75.83,58.91l37.27,19.79
			c1.21,5.06,3.13,9.96,5.73,14.56c14.56,0.21,31.26-4.26,48.08-10.94v16.38l58.97-7.33v-40.51
			c51.02-34.61,86.29-81.24,86.29-129.96c0.28-8.32-1.15-16.61-4.22-24.44C1066.34,666.41,1046.6,672.06,1028.98,677.22z"/>
		<g id="el2fl891a6fbf">
			<path class="st6" d="M1028.98,677.22c-40.03,12.11-58.44,17.55-58.44-2.41c0.05-4.11,0.98-8.17,2.76-11.94
				c-27.32,7.76-40.03,8.74-40.03-7.85c0-12.2,8.95-27.23,33.63-40.51c26.37-14.07,41.09-10.77,44.76,4.8l72.12-56.55
				c-0.3-0.85-0.67-1.62-1.02-2.45c4.49-0.9,8.81-2.43,12.8-4.52l-29.73-16.25c-0.93-0.55-1.88-1.07-2.85-1.56l-0.44-0.23l0,0
				c-8.8-3.91-18.64-5.39-28.34-4.26c-12.88,1.34-25.45,4.52-37.27,9.42v-0.72l37.38-19.83l-37.29-19.81l0,0l-25.32,13.5
				l-34.21,18.29l0,0v40.51c-50.51,33.8-82.07,78-82.07,125.8c0,21.77,6.4,34.12,16.7,40.41l0,0l0.49,0.26
				c0.88,0.51,1.81,0.98,2.74,1.41l31.19,16.16c0.88-4.38,0.22-8.91-1.88-12.92c9.9-1.19,19.66-3.15,29.2-5.86
				c37.92-10.55,71.57-27.1,71.57-1.26c-0.02,3.88-0.8,7.72-2.32,11.34c23.01-6.91,39.56-9.62,39.56,8.53
				c0,16.08-13.17,30.43-32.63,40.85c-31.08,16.59-43.14,3.09-45.8-10.13l0,0l-6.56-3.5l-30.73-16.33l-75.83,58.91l37.27,19.79
				c1.21,5.06,3.13,9.96,5.73,14.56c14.56,0.21,31.26-4.26,48.08-10.94v16.38l58.97-7.33v-40.51
				c51.02-34.61,86.29-81.24,86.29-129.96c0.28-8.32-1.15-16.61-4.22-24.44C1066.34,666.41,1046.6,672.06,1028.98,677.22z"/>
		</g>
		<path id="eleiyyx4rs6cg" class="st5" d="M1083.22,666.07c-16.88,0.34-36.62,5.99-54.24,11.15c-40.03,12.11-58.44,17.55-58.44-2.41
			c0.05-4.11,0.98-8.17,2.76-11.94c4.27-9.32,13.8-19.34,30.94-28.49c26.3-14.05,41.02-10.66,44.71,4.84l72.1-56.59
			c-6.96-19.19-20.87-29.08-41.74-29.49c-12.52-0.3-27.6,2.9-44.99,9.66v-40.51l-37.27,19.92l-22.17,11.86v40.51
			c-50.53,33.86-82.12,78.04-82.12,125.8c-0.31,8.86,1.22,17.7,4.5,26.03c11.15,25.59,41.74,22.11,73.91,13.41
			c11.29-3.11,22.26-6.78,32.03-9.7c23.01-6.91,39.56-9.62,39.56,8.53c0,16.08-13.17,30.43-32.63,40.85
			c-31.08,16.59-43.16,3.09-45.8-10.13l-75.79,59c1.21,5.06,3.13,9.96,5.73,14.56c9.88,17.06,27.5,21.68,48.08,19.19
			c12.87-1.86,25.41-5.32,37.27-10.3v40.51l58.93-31.28v-40.81c51.02-34.56,86.29-81.2,86.29-129.94
			C1124.76,675.24,1106.64,665.58,1083.22,666.07z"/>
		<g id="elxyuw8eah1l">
			<g class="st7">
				<path id="el3q8xqsbl904" class="st1" d="M1083.22,666.07c-16.88,0.34-36.62,5.99-54.24,11.15
					c-40.03,12.11-58.44,17.55-58.44-2.41c0.05-4.11,0.98-8.17,2.76-11.94c4.27-9.32,13.8-19.34,30.94-28.49
					c26.3-14.05,41.02-10.66,44.71,4.84l72.1-56.59c-6.96-19.19-20.87-29.08-41.74-29.49c-12.52-0.3-27.6,2.9-44.99,9.66v-40.51
					l-37.27,19.92l-22.17,11.86v40.51c-50.53,33.86-82.12,78.04-82.12,125.8c-0.31,8.86,1.22,17.7,4.5,26.03
					c11.15,25.59,41.74,22.11,73.91,13.41c11.29-3.11,22.26-6.78,32.03-9.7c23.01-6.91,39.56-9.62,39.56,8.53
					c0,16.08-13.17,30.43-32.63,40.85c-31.08,16.59-43.16,3.09-45.8-10.13l-75.79,59c1.21,5.06,3.13,9.96,5.73,14.56
					c9.88,17.06,27.5,21.68,48.08,19.19c12.87-1.86,25.41-5.32,37.27-10.3v40.51l58.93-31.28v-40.81
					c51.02-34.56,86.29-81.2,86.29-129.94C1124.76,675.24,1106.64,665.58,1083.22,666.07z"/>
			</g>
		</g>
		<g id="elgwt183dda1">
			<g class="st8">
				<path id="el4mu6iv85ne9" class="st1" d="M1038.42,840.25c7.89-5.97,15.82-11.86,23.05-18.49c3.76-3.13,7.19-6.59,10.78-9.89
					c1.72-1.71,3.39-3.48,5.08-5.22c1.69-1.75,3.39-3.48,4.94-5.31c6.48-7.17,12.43-14.74,17.81-22.64
					c5.27-7.93,9.79-16.25,13.52-24.88c3.7-8.63,6.4-17.59,8.07-26.74l0.95-6.89c0.28-2.3,0.28-4.63,0.44-6.95
					c0-1.15,0.16-2.3,0.14-3.48v-3.45c0-2.32-0.28-4.61-0.46-6.93c-0.47-4.57-1.6-9.07-3.36-13.37c-1.74-4.28-4.5-8.15-8.07-11.32
					c-3.66-3.16-8.1-5.45-12.94-6.7c-4.9-1.25-9.96-1.89-15.05-1.92c5.13-0.33,10.29,0.04,15.31,1.09c5.13,1.07,9.9,3.27,13.91,6.4
					c3.9,3.25,6.97,7.25,8.97,11.73c1.99,4.44,3.33,9.1,3.99,13.86c0.28,2.37,0.7,4.73,0.72,7.12c0.14,2.37,0.14,4.75,0,7.12
					c-0.14,2.37,0,4.75-0.37,7.12l-0.9,7.08c-1.59,9.39-4.26,18.61-7.95,27.48c-3.9,8.77-8.62,17.22-14.1,25.25
					c-1.3,2.13-2.85,3.94-4.27,5.93c-1.41,1.98-2.88,3.9-4.48,5.76l-4.64,5.65l-5.03,5.35
					C1070.87,817.14,1055.4,829.65,1038.42,840.25z"/>
			</g>
		</g>
		<g id="elqulc2qcawi">
			<g class="st8">
				<path id="elvqhnb5yo8c" class="st1" d="M974.76,594.57l-9.28,7.12c-3.01,2.49-6.1,4.9-9.04,7.44
					c-5.91,5.05-11.6,10.23-17.02,15.8c-10.76,10.96-20.1,23.03-27.83,35.97c-7.6,13-12.95,27-15.86,41.51
					c-0.32,1.83-0.56,3.67-0.83,5.48c-0.32,1.82-0.54,3.66-0.65,5.5c-0.21,3.69-0.56,7.4-0.44,11.09
					c-0.13,7.43,1.07,14.83,3.55,21.9c-3.21-6.94-5.08-14.34-5.5-21.88c-0.3-3.75,0-7.51,0-11.26c0.03-1.88,0.17-3.76,0.42-5.63
					c0.21-1.88,0.35-3.75,0.6-5.61c2.43-14.93,7.65-29.36,15.45-42.64c7.89-13.19,17.67-25.34,29.08-36.14
					c5.67-5.37,11.63-10.47,17.86-15.29c3.13-2.39,6.4-4.61,9.6-6.91S971.42,596.71,974.76,594.57z"/>
			</g>
		</g>
		<polygon id="elcfxyz6yz9m" class="st5" points="974.73,594.6 937.44,574.79 937.44,534.34 974.73,554.15 		"/>
	</g>
</g>
<g id="freepik--character-2--inject-336">
	<g id="freepik--Character--inject-336">
		<path id="el2001l8jym7eh" class="st9" d="M1451.87,569.06c19.16,2.88,49.91,1.79,83.67,7.38c11.13,1.83,23.38,13.05,28.13,19.19
			c4.61,6.17,8.1,12.98,10.34,20.17c0,0,7.93,12.39,10.6,11.04s11.76-11.92,15.47-22.39c3.71-10.47-1.25-18.25-13.61-30.53
			s-28.71-28.27-28.71-28.27c-1.8,0.69-3.71,1.09-5.66,1.19c-6.15,0.38-7.1,0.3-24.68-5.42c-24.56-7.97-34-12.3-43.16-12.3
			c0,0,42.05-26.46,55.66-34.9c17.11-10.66,40.96-27.89,39.56-48.76l-100.95,1.56c0,0-19.85,25.89-38.61,50.3
			c-20.57,26.8-31.42,41.15-21.66,57.06C1423.03,562.3,1435.2,566.57,1451.87,569.06z"/>
		<path id="eltkle1touz9a" class="st10" d="M1580.79,442.92c0.49,12.54,3.57,17.87-18.55,37.98s-74.35,47.46-74.35,47.46
			s3.06-0.9,18.21,4.37c15.14,5.27,23.19,7.53,23.19,7.53s2.16,16.78-1.6,23.24c-2.5,4.13-5.62,7.91-9.28,11.24
			c0,0-56.77-1.77-70.25-4.26s-30.15-7.76-34.07-18.21c-3.92-10.45-0.49-21.83,8.21-37.25c15.86-28.1,56.84-70.56,56.84-70.56
			L1580.79,442.92z"/>
		<path id="el1js9b6sc7cf" class="st11" d="M1495.64,529.55c-6.28-1.62-7.86-1.19-7.86-1.19c-11.46,6.1-19.62,9.57-19.62,9.57
			C1477.94,537.32,1487.39,534.44,1495.64,529.55z"/>
		<path id="el6ldrkydmute" class="st5" d="M1579.45,548.89c3.18,2.54,5.38,7.57,10.13,11.86c5.38,4.93,11.27,9.35,17.6,13.2
			l8.79,5.44l-1.6,2.13l-16-9.89c-4.89-3.01-13.8-6.08-15.89-4.26C1582.49,567.42,1571.68,559.51,1579.45,548.89z"/>
		<g id="eligr2m7rjou8">
			<path class="st12" d="M1579.45,548.89c3.18,2.54,5.38,7.57,10.13,11.86c5.38,4.93,11.27,9.35,17.6,13.2l8.79,5.44l-1.6,2.13
				l-16-9.89c-4.89-3.01-13.8-6.08-15.89-4.26C1582.49,567.42,1571.68,559.51,1579.45,548.89z"/>
		</g>
		<path id="elsyw0hycwg2r" class="st5" d="M1552.45,546.36c7.37-1.41,11.25-4.54,18.69-2.39c3.71,1.3,7.01,3.44,9.58,6.23
			c0.75,2.42,1.07,4.93,0.95,7.44c-0.14,5.14-0.83,6.23,2.13,10.55c2.97,4.33,3.62,5.42,11.09,11.07c6.28,4.29,9.86,11.13,9.6,18.32
			c-0.22,8.76-2.3,17.4-6.1,25.44c-5.33,12.64-16.35,16.7-18.97,9.85c-3.69-9.68-4.2-13.2-5.4-17.06c0,0,0.23-3.97,5.64-9
			c7.28-6.74,9.44-8.06,9.53-12.24c0.14-5.2-2.95-11.9-17.74-25.93C1554.94,553.01,1552.45,546.36,1552.45,546.36z"/>
		<path id="el7enggtslgke" class="st9" d="M1617.81,612.18c-12.81-17.2-26.75-33.66-41.74-49.3c-8.95-9.57-12.52-13.43-22.24-35.65
			c-12.5-28.53-24.03-57.57-24.03-57.57c-9.69-3.16-19.2-6.78-28.48-10.85c-17.83-7.85-31.59-29.85-35.18-37.04
			c0,0,14.31,5.29,39.19-11.58c25.51-17.27,26.62-24.78,26.62-24.78c9.19,2.79,18.16,6.18,26.83,10.13
			c6.96,2.99,21.87,7.97,30.61,25.01c3.5,6.8,7.33,14.31,10.41,38.93c3.97,31.98,6.52,48.85,9.09,66.89
			c14.36,11.68,21.8,20.75,26.92,37.4c4.23,13.35,9.61,26.37,16.07,38.93c1.36,3.06,3.81,5.59,6.96,7.19c0,0,4.24,20.68,7.75,37.87
			c3.5,17.19,6.31,26.27-3.32,33.65c-9.62,7.38-35.6,14.63-38.78,14.46c-3.18-0.17,3.27-16.33,3.27-16.33
			c2.38-7.51,3.41-15.32,3.06-23.13C1630.4,648.45,1633.21,633.37,1617.81,612.18z"/>
		<path id="el5koox5k24e" class="st13" d="M1533.51,384.18c16.93,5.33,36.29,10.92,49.65,23.45c13.36,12.54,15.75,25.59,18.39,45.35
			c2.64,19.77,8.49,71.49,8.49,71.49c5.94,4.77,11.29,10.13,15.96,15.97c6.54,8.53,15.07,39.17,15.07,39.17s-3.08,8.81-15.35,15.59
			s-17.46,5.39-17.46,5.39s-19.99-22.47-33.91-36.93s-15-19.02-22.36-34.86s-23.05-54.93-23.05-54.93s-31.12-11.15-40.4-19.57
			c-9.28-8.42-25.93-34.65-25.93-34.65L1533.51,384.18z"/>
		<path id="elc322shwzu49" class="st5" d="M1676.39,625.99c1.02,3.94-0.39,9.45,0.81,15.76c1.3,7.19,3.36,14.24,6.15,21.07
			l3.92,9.51l-2.81,0.98l-7.14-17.34c-2.16-5.29-5.03-8.85-8.02-8.53C1669.43,647.51,1662.7,630.73,1676.39,625.99z"/>
		<g id="ellv6u1frkhnd">
			<path class="st12" d="M1676.39,625.99c1.02,3.94-0.39,9.45,0.81,15.76c1.3,7.19,3.36,14.24,6.15,21.07l3.92,9.51l-2.81,0.98
				l-7.14-17.34c-2.16-5.29-5.03-8.85-8.02-8.53C1669.43,647.51,1662.7,630.73,1676.39,625.99z"/>
		</g>
		<path id="elqf16n5w2kjd" class="st5" d="M1656.95,607.79c3.55,3.82,11.46,5.31,16.4,11.3c2.03,2.54,3.15,5.59,3.2,8.74
			c-1.37,2.9-2.53,4.26-3.59,6.2c-2.11,3.23-3.31,6.9-3.5,10.66c-0.11,7.75,0.36,15.5,1.41,23.2c0.95,7.61,1.92,12.09-3.27,17.74
			c-4.06,4.41-18.92,11.47-30.01,13.54c-19.32,3.58-25.51,0-20.52-6.16c4.99-6.16,10.06-13.56,11.29-15.2
			c4.41-0.55,8.87-0.68,13.31-0.38c9.28,0.53,13.66,4.01,20.64-2.71c6.35-6.1,5.87-21.32-2.16-39.89
			C1651.04,613.54,1656.95,607.79,1656.95,607.79z"/>
		<g id="freepik--Top--inject-336">
			<path id="elcdx1pe0sqrp" class="st14" d="M1249.39,395.5c-2.57,0.55-1.95,2.81,0.3,3.73c5.33,2.13,11.6-0.87,15.49-0.68
				c0.95,0.15,13.17,3.58,14.54,5.67c-2.92,0-12.13-0.41-15.03-0.19c-0.83,0-3.06,0.6-9.81,2.28c-1.2,0.19-2.36,0.58-3.41,1.15
				c-0.65,0.53-0.65,2.32,1.46,3.18c3.78,1.49,8.19-0.55,12.31-0.79c1.97-0.17,8.3-0.36,11.48,2.13c-5.82,0.87-9.04,2.49-16.58,6.59
				c-0.88,0.49-0.81,1-0.49,1.54c0.66,0.87,1.72,1.4,2.88,1.43c2.76,0,5.66-1.71,9.28-2.79c3.88-0.94,7.95-1.02,11.87-0.21
				c1.45,0.25,2.84,0.77,4.06,1.54c1.53,0.96,2.78,2.28,4.2,3.37c5.86,4.38,14.02,5.07,20.64,1.73c0.44-0.19,0.82-0.48,1.09-0.85
				c0.27-0.76,0.13-1.59-0.37-2.24c-3.87-6.8-10.83-11.58-16.88-16.89c-1.99-1.75-17.23-14.63-17.88-14.93
				c-0.28-0.15-20.64,3.33-21.24,3.52C1255.52,394.18,1251.99,394.95,1249.39,395.5z"/>
			<path id="elv8o0t16s109" class="st9" d="M1409.13,363c-4.08,5.1-36.71,45.01-36.71,45.01s-37.29-0.23-46.57-1.04
				c-12.78-1.11-19.27-6.4-25.02-10.94c-8.26-6.57-9.93-6.4-15.54-7.08c-3.48-0.45-11.8-2.35-12.11-2.41
				c-1.22-0.12-2.46-0.02-3.64,0.3c-0.65,0-3.32,0.62-3.97,0.75c-3.69,0.72-5.94,1.36-9.65,2.13c-1.14,0.19-2.26,0.49-3.34,0.9
				c-0.24,0.08-0.45,0.22-0.6,0.41c-0.17,0.42-0.05,0.9,0.3,1.22c1.48,1.64,3.66,2.63,5.98,2.71c2.34,0.08,4.67-0.11,6.96-0.55
				c1.41-0.19,2.16-0.41,4.99-0.81c1.14-0.1,2.29,0.08,3.34,0.51c5.24,1.63,10.27,3.77,15,6.4c-4.8,0.91-9.78,0.61-14.4-0.87
				c-4.31-1.43-5.24,3.24-0.28,6.4c5.71,3.62,10.83,2.26,18.27,7.21c7.44,4.95,4.89,14.05,17.07,15.39c6.7,0.28,13.37,1,19.97,2.13
				c9.81,1.88,41.35,10.53,48.7,11.41c15.93,1.92,16.35,1.28,36.6-21.54c28.57-32.22,33.09-38.68,33.09-38.68l-11.78-45.44
				C1426.34,342.83,1423.21,345.9,1409.13,363z"/>
			<path id="el70umqqtg9tj" class="st13" d="M1425.11,344.05c-6.98,6.31-13.31,13.21-18.9,20.6
				c-16.44,19.96-34.04,42.64-34.04,42.64l-24.68,0.28c3.1,3.98,4.67,8.8,4.48,13.69c-0.2,5.55-3.44,10.64-8.6,13.52
				c0,0,11.99,3.11,26.16,6.4s19.3,2.88,22.91,1.9c3.62-0.98,6.61-4.88,13.1-11.73c6.49-6.84,34.14-39.79,34.14-39.79
				L1425.11,344.05z"/>
			<path id="eloac9au543i" class="st14" d="M1288.45,400.4c2.9-0.14,5.81,0.07,8.65,0.62c1.09,0.3-0.3-1.79-4.78-2.67
				c-4.48-0.87-7.17,0.58-8.46-0.15L1288.45,400.4z"/>
			<path id="ela642ivj2u05" class="st11" d="M1485.59,248.1c4.48,2.45,7.42,6.1,13.06,9.53c4.56,2.9,10.41,3.46,15.51,1.49
				c5.39-2.01,9.39-6.3,10.71-11.51c2.95,6.7,1.09,11.68-3.01,15.31c6.86-2.83,11.88-8.45,13.59-15.18
				c0.67-2.69,0.86-5.46,1.37-8.19c1.79-9.62,5.73-13.63,16.65-15.42c-6.15,2.9-8.26,7.57-8.09,13.9s2.74,14.73,1.6,20.98
				c-1.01,5.65-4.04,10.83-8.6,14.71c-4.94,4.39-11.06,7.48-17.74,8.96c5.31,1.3,10.55-0.34,15.58-2.32
				c-3.41,6.55-15.33,11.11-24.56,10.87c-11.09-0.28-20.18-8.08-26.88-16.23c-2.35-3.16-4.99-6.12-7.88-8.87
				c-2.95-2.75-6.88-4.43-11.06-4.75c-4.96-0.15-6.96,2.47-9.93,5.27c-2.97-1.54-7.26-3.52-7.4-6.14
				c-0.23-4.48,5.89-11.24,9.51-13.01C1466.69,243.26,1477.15,243.49,1485.59,248.1z"/>
			<path id="elmgxbixasalo" class="st5" d="M1451.9,249.89c1.23-1.68,8.4-2.28,13.75,1.45c5.36,3.73,9.51,9.89,5.29,14.54
				S1443.97,256.24,1451.9,249.89z"/>
			<path id="elfhgo7d6f3w" class="st10" d="M1474.63,312.79c5.35-0.79,10.54-2.32,15.4-4.54c4.87,3.26,23.19,14.14,29.31,27.08
				c6.12,12.94,13.27,41.81,17.9,45.86s25.14,11.09,41.6,20.85c0,0-2.18,13.6-8.93,18.29c0,0-10.97-7.53-18.14-12.62
				c8.56,12.11,12.94,17.38,12.94,17.38s4.64,25.46-50.16,35.5c-15.65,2.73-31.82,1.15-46.5-4.54c0,0,5.52-20.96-5.47-31.79
				c-8.35-4.97-21.82-18.76-21.82-18.76s-17.25-7.78-19.85-20.53c-3.48-17.06,2.6-35.01,4.1-41c2.32-3.05,13.13-12.79,13.13-12.79
				L1474.63,312.79z"/>
			<path id="el8xud0bc3r8u" class="st5" d="M1468.6,315.5c1.9,6.72,0,9.38-3.5,20.36c-3.5,10.98-16.23,42.2-13.66,52.15
				c-5.47-7.08-12.85-16.57-15.38-26.59c-2.53-10.02-3.48-24.39,1.76-34.27l28.57-14.12L1468.6,315.5z"/>
			<g id="freepik--Head--inject-336">
				<g id="freepik--head--inject-336">
					<path id="el7uakpsvqjvw" class="st11" d="M1397.82,284.05c-13.54-16.72,1.51-38.38,33.84-39.87
						c9.04-0.41,27.97,2.13,29.78,13.86c11.94,2.88,16.77,16.1,10.27,31.86c-4.64,11.45-8.58,19.19-9.65,23.16L1397.82,284.05z"/>
					<path id="el402972a73dt" class="st9" d="M1466.39,285.03c-7.72-2.71-11.15,4.73-11.15,4.73c-4.78,3.03-8.07-5.93-9.28-8.53
						c-2.13-4.69-4.24-11.41-10.09-13.13c-4.34-1.28-9.09,0.38-12.89,2.69c-2.28,1.41-5.1,1.88-7.77,1.3
						c-2.32-0.49-3.29-3.82-5.47-4.78c-6.28-2.77-10.6,6.72-11.2,11.22c-0.83,5.99-1.01,12.04-0.53,18.06
						c1.46,20.17,9.97,29.04,13.73,30.83c5.89,2.79,9.83,2.43,17.16,1.56l7.95,10.19c1.75,8.89,5.27,17.4,10.37,25.12
						c4.48-13.05,17.63-28.87,21.13-45.46l-9.72-13.16c3.43,2.35,8.51,0.45,10.74-2.73
						C1473.95,296.37,1473.79,287.63,1466.39,285.03z"/>
					<path id="elad0w4yasxhb" class="st15" d="M1428.64,308.42l-10.09,3.37c0.88,2.56,3.85,3.98,6.63,3.18
						c0.05-0.01,0.09-0.03,0.14-0.04C1428.16,313.93,1429.62,311.05,1428.64,308.42z"/>
					<path id="el8q3lev4n43q" class="st16" d="M1428.08,310.61c-2.81,0.05-5.2,1.9-5.73,4.44c0.98,0.24,2.02,0.2,2.97-0.13
						c1.98-0.68,3.36-2.33,3.57-4.26C1428.61,310.66,1428.36,310.61,1428.08,310.61z"/>
					<path id="el55w0l1prq6u" class="st14" d="M1428.89,328.89c6.96-1.3,24.88-8.42,27.34-23.45c0.45,6.9-2.34,13.64-7.68,18.51
						c-4.86,4.01-10.74,6.84-17.09,8.23L1428.89,328.89z"/>
				</g>
				<path id="elyhf3lsbcism" class="st11" d="M1402.22,281.62l7.17-2.43c-0.64-1.79-2.74-2.76-4.69-2.17
					c-0.04,0.01-0.08,0.02-0.11,0.04C1402.61,277.76,1401.58,279.76,1402.22,281.62z"/>
				<path id="el6um6ntv63pd" class="st11" d="M1436.48,281.98l-7.33-1.96c0.45-1.8,2.4-2.93,4.36-2.52
					c0.09,0.02,0.19,0.04,0.28,0.07C1435.82,278.14,1437,280.08,1436.48,281.98z"/>
				<path id="el29fpekbu39" class="st11" d="M1403.17,291.49c0.01,1.58,1.42,2.85,3.13,2.83c1.72-0.01,3.1-1.3,3.08-2.88
					c-0.01-1.53-1.33-2.77-2.99-2.83C1404.64,288.59,1403.2,289.87,1403.17,291.49C1403.17,291.49,1403.17,291.49,1403.17,291.49z"
					/>
				<path id="elzq8hwgmjmwk" class="st11" d="M1426.67,292.11c-0.1,1.59,1.21,2.95,2.94,3.05c0.02,0,0.04,0,0.05,0
					c1.75,0.01,3.17-1.27,3.2-2.88c0.19-1.57-1.04-2.98-2.74-3.16c-1.71-0.17-3.24,0.95-3.43,2.52
					C1426.66,291.8,1426.66,291.95,1426.67,292.11L1426.67,292.11z"/>
				<path id="elehnd0kwnnd4" class="st10" d="M1389.26,285.31c0.24,1.1,0.81,2.12,1.65,2.94c0.29,0.3,0.52,0.66,0.65,1.04
					c0.63,2.7,1.47,5.35,2.53,7.93c1.7,3.51,5.52,5.75,9.69,5.69c1.06,0.04,2.12-0.03,3.15-0.21h0.23c0.88-0.19,1.73-0.5,2.5-0.92
					h0.16l0.21-0.13l0.26-0.17l0.26-0.17l0.26-0.21l0.26-0.21c0.17-0.15,0.32-0.3,0.46-0.47c0.82-0.88,1.46-1.89,1.88-2.99
					c1.16-2.75,0.53-6.63,2.71-7.06h0.28h0.26c3.01,0,2.95,4.26,4.85,7.29c2.24,3.82,6.68,6.1,11.39,5.86h0.83h0.67
					c0.52-0.02,1.04-0.08,1.55-0.19h0.49l0.46-0.13h0.3c0.6-0.19,1.18-0.44,1.72-0.75l0.56-0.36c0.35-0.24,0.68-0.51,0.97-0.81
					c0.77-0.82,1.37-1.76,1.79-2.77c0.65-2.58,1.06-5.2,1.23-7.85c0.07-0.4,0.22-0.78,0.44-1.13c0.73-0.8,1.17-1.78,1.28-2.81
					c0-1.14-0.81-2.15-1.99-2.49l-1.6-0.21c-5.24-0.8-10.6-0.8-15.84,0c-4.94,1.22-6.59,2.67-9.39,2.62
					c-2.81-0.04-4.43-1.62-9.28-3.09c-4.88-1.05-9.91-1.32-14.89-0.79c-0.49,0.02-0.98,0.06-1.46,0.13
					C1389.89,282.92,1389.07,284.05,1389.26,285.31z M1422.54,288.42c0.36-0.44,0.82-0.79,1.35-1.04l0.26-0.13h0.14l0.7-0.3
					l0.63-0.23c0.69-0.24,1.39-0.44,2.11-0.6l0.83-0.17c0.72-0.15,1.45-0.25,2.18-0.32h0.53c3.14-0.45,6.35,0.14,9.07,1.66
					c1.18,0.94,0.95,5.03,0.63,7.1v0.17c0,0,0,0,0,0.15l-0.14,0.83l-0.14,0.53l0,0c0,0.28-0.16,0.55-0.26,0.85l0,0
					c-0.05,0.09-0.09,0.18-0.12,0.28v0.19c-0.01,0.06-0.01,0.13,0,0.19l-0.12,0.26l-0.14,0.26l-0.19,0.3
					c-0.05,0.1-0.11,0.2-0.19,0.3c-1.51,2.03-4.15,3.08-6.8,2.71c-2.72,0.11-5.36-0.81-7.33-2.54l0,0c-1.25-1.2-2.15-2.66-2.62-4.26
					C1422.19,292.41,1421.68,289.68,1422.54,288.42z M1393.92,286.05c0.33-0.29,0.72-0.52,1.14-0.68l0,0l0.51-0.17h0.3h0.26h0.19
					l0,0h0.26l1.11-0.15h0.6h2.13c0.78,0.02,1.55,0.09,2.32,0.19c3.04,0.3,5.9,1.44,8.21,3.28c0.96,2.01,1.21,4.25,0.7,6.4
					c-0.05,0.53-0.16,1.05-0.32,1.56v0.11c0.01,0.06,0.01,0.11,0,0.17c0,0.04,0,0.07,0,0.11v0.17l-0.16,0.38l-0.16,0.32v0.13
					l-0.12,0.21l-0.12,0.19l0,0c-1.46,2.18-4.2,3.35-6.96,2.96c-1.28-0.04-2.54-0.32-3.69-0.83c-2.67-1.5-4.54-3.96-5.17-6.78
					C1393.9,291.06,1392.95,286.95,1393.92,286.05z"/>
				<path id="el2yr7yhfvfr7" class="st10" d="M1443.46,284.47l14.77,1.66c-1.09,0.88-2.01,1.93-2.71,3.09l-11.97-1.36
					L1443.46,284.47z"/>
				<path id="elnnxe99mu5as" class="st14" d="M1417.92,290.55l-1.11,16.52l-10.69-2.94l10.74-13.92
					C1417.24,290.24,1417.6,290.36,1417.92,290.55z"/>
				<path id="elaxfdo6u6y8i" class="st17" d="M1459.25,301.81c0.05,1.42,1.35,2.54,2.9,2.49c1.55-0.05,2.76-1.24,2.71-2.67
					c-0.05-1.42-1.35-2.54-2.9-2.49c-0.01,0-0.03,0-0.04,0C1460.38,299.21,1459.2,300.4,1459.25,301.81z"/>
			</g>
			<path id="elp9go1zr4j5s" class="st11" d="M1462.68,311.11l2.02,2.73c-0.69,9.03-2.42,17.96-5.17,26.65
				c-5.33,16.7-10.44,29.85-9.72,39.49c0.74,6.87,2.3,13.65,4.64,20.21c-1.95-10.4-0.27-21.09,4.8-30.56
				c5.08-9.81,16-20.45,16.49-25.46c0.49-5.01-6.96-7.68-6.96-7.68c3.9-3.44,7.31-7.34,10.13-11.58c3.25-5.54-0.42-12.79-0.42-12.79
				C1469.73,312.47,1465.35,309.93,1462.68,311.11z"/>
			<path id="el21flbs3497p" class="st11" d="M1436.85,339.08c-0.6,5.75-0.11,11.56,1.44,17.16c3.32,11.28,14.77,35.18,14.77,35.18
				s-11.34-14.54-16.51-20.55c-5.17-6.01-8.74-10.83-4.41-21.32c-3.62-2.26-3.43-2.54-3.69-9.17c-0.21-3.65,0.09-7.3,0.9-10.87
				L1436.85,339.08z"/>
			<g id="freepik--Briefcase--inject-336">
				<path id="elonfr7gkh7ve" class="st10" d="M1754.89,464.5l-55.15-71.41c-1.44-1.47-3.46-2.33-5.61-2.39h-3.22
					c-0.85-0.08-1.69,0.17-2.32,0.7l0,0l-76.86,79.9l66.47,74.63l76.81-79.85l0,0C1755.38,465.59,1755.33,464.93,1754.89,464.5z"/>
				<path id="elpo3terllt8l" class="st11" d="M1659.81,546.21l16.23,0.34c2.11,0,3.04-0.96,2.06-2.24l-55.06-71.32
					c-1.44-1.47-3.46-2.33-5.61-2.39h-3.22c-2.09,0-3.18,1.02-2.32,2.37l42.83,70.77C1655.91,545.24,1657.79,546.15,1659.81,546.21z
					"/>
				<path id="elbyier0x107t" class="st5" d="M1696.12,517.8c-0.57,0.24-1.23,0.11-1.65-0.32l-26.58-33.71
					c-0.26-0.39-0.13-0.9,0.3-1.14c0.07-0.04,0.15-0.07,0.23-0.09c0.58-0.28,1.29-0.16,1.74,0.28l26.55,33.71
					c0.35,0.43,0,1-0.53,1.26L1696.12,517.8z"/>
				<path id="elag2fuapfcy" class="st5" d="M1731.3,481.92c-0.57,0.23-1.24,0.1-1.67-0.32l-26.55-33.71c-0.35-0.43,0-1,0.53-1.26
					c0.58-0.27,1.28-0.15,1.72,0.3l26.58,33.71c0.26,0.39,0.13,0.9-0.3,1.14c-0.07,0.04-0.15,0.07-0.23,0.09L1731.3,481.92z"/>
				<path id="elhkah45qms3u" class="st13" d="M1657.83,503.39c-2.95,3.07-9.28,3.05-11.6,0l-23.19-30.41
					c-1.44-1.47-3.46-2.33-5.61-2.39h-3.2c-0.83-0.11-1.66,0.1-2.32,0.58l76.65-79.68l0,0c0.61-0.56,1.47-0.82,2.32-0.7h3.25
					c2.15,0.06,4.17,0.93,5.59,2.41l23.05,30.11c3.27,4.34,2.7,10.21-1.37,13.94L1657.83,503.39z"/>
				<polygon id="elqf6do8e3uid" class="st5" points="1683.79,471.98 1692.9,462.49 1696.54,466.99 1687.4,476.5 				"/>
			</g>
			<path id="eluwrbrv5wm3" class="st10" d="M1662.47,418.68c-6.38-6.1-16.23-15.97-19.04-15.16l0.23-3.84c0,0,2.55-1.28,8.84,3.84
				c5.15,4.26,13.24,11.77,13.24,11.77L1662.47,418.68z"/>
			<path id="el7qyzul23lc" class="st14" d="M1634.64,429c-3.68,0.34-7.35-0.71-10.16-2.92c-1.65-2.42-2.38-5.26-2.09-8.1
				c0.72-1.92,4.04-9.98,6.22-10.23s8.67,8.42,8.63,12.69C1637.06,423.42,1636.17,426.35,1634.64,429z"/>
			<path id="elre8qusfmpyr" class="st9" d="M1652.62,407.44c-1.1-4.87-2.58-9.67-4.43-14.35c-1.82-4.05-3.95-7.98-6.35-11.77
				c-5.57-9.55-20.87-38.57-30.98-52.69l-21.8,26.21c0,0,26.69,28.27,30.15,33.28c2.02,2.96,0,8.29-0.23,11.73
				c-0.12,3.25,0.21,6.49,1,9.66c0.68,3.45,1.02,6.94,1.02,10.45c-0.04,0.44,0.01,0.88,0.16,1.3c0.59,1.01,1.94,1.4,3.06,0.9
				c1.05-0.53,1.87-1.37,2.32-2.39c1.14-2.44,1.77-5.05,1.86-7.7c0-0.38,0.12-0.83,0.51-1c0.37-0.1,0.78-0.01,1.04,0.26
				c0.78,0.79,1.44,1.68,1.95,2.64c1.06,2.52,1.47,5.22,1.21,7.91c0.27,2.84-1.39,5.54-4.17,6.8c0.49,0.15,2.06,0.68,2.62,0.77
				c0.97,0.21,1.97,0.32,2.97,0.34c1.85-0.12,3.57-0.88,4.82-2.13c1.76-1.56,2.48-4.03,4.52-5.27c0.57-0.31,1.16-0.58,1.76-0.83
				c1.33-0.59,2.38-1.62,2.95-2.88c0.2-1.16,0.55-2.3,1.04-3.39c0.42-0.48,0.88-0.92,1.39-1.32
				C1652.72,412.19,1653.33,409.73,1652.62,407.44z"/>
			<path id="elaxvvaoyoggb" class="st10" d="M1625.53,416.54c-1.02,3.75,0.74,9.66,3.73,13.71s10.2,12.28,10.2,12.28l3.2-3.33
				c0,0-2.5-2.94-7.7-9.17c-4.78-5.74-5.31-9.74-5.08-11.71c0.14-1.57,0.83-3.07,1.95-4.26c0,0-1.11-3.54-2.69-3.07
				C1627.55,411.77,1626.55,412.73,1625.53,416.54z"/>
			<path id="el62f9szjggkq" class="st13" d="M1490.07,308.25c8.23-3.5,10.88-4.52,33.28-1.17c22.4,3.35,50.46,8.53,68.62,12.79
				c18.16,4.26,18.44,6.16,24.93,17.06c5.66,9.49,9.69,17.06,9.69,17.06s-1.39,4.26-11.6,9.74c-9.44,5.16-14.36,3.39-14.36,3.39
				l-12.92-12.3c0,0-57.98-5.84-68.44-7.02C1508.83,346.63,1488.1,339.61,1490.07,308.25z"/>
		</g>
	</g>
</g>
<g id="freepik--character-1--inject-336">
	<g id="freepik--character--inject-336">
		<g id="freepik--Bottom--inject-336">
			<g id="freepik--Leg--inject-336">
				<polygon id="elci436x4xt0a" points="263.88,632.42 276.29,635.11 277.54,626.94 267.64,628.41 				"/>
				<path id="el8prcair8zzf" class="st11" d="M265.55,609.71c0,0-4.64,5.69-6.17,7.51c-1.53,1.81,2.97,12.94,4.43,15.22l3.76-4.01
					c0.39,3.37,0.33,6.77-0.19,10.13c-0.28,3.69-1.83,10.04,0.26,16.29c3.08,9.3,11.8,18.42,22.36,25.44
					c10.55,7.02,18.55,8.4,23.19,8.15s7.44-2.13,8.53-5.18S265.55,609.71,265.55,609.71z"/>
				<path id="elq419ncmexi" class="st13" d="M309.29,607.28l2.9-3.3c2.04,1.19-1.6,6.25-1.88,12.41
					c-0.55,9.15,0.18,18.32,2.18,27.29c4.27,15.95,9.86,27.72,11.73,34.9c2.5,9.55-15.4,11.28-32.47-0.51
					c-8.44-5.84-21.06-19.49-21.96-26.95c-0.9-7.46,1.81-16.52,0.83-22.15c-0.97-5.63-5.96-13.73-5.08-19.19
					c0.46-3.05,4.17-7.25,9.09-10.51c4.92-3.26,8.6-8.72,11.6-5.12l-1,1.92c-0.3,2.47-0.26,4.37,6.03,9.83
					C294.4,608.52,303.7,613.72,309.29,607.28z"/>
				<g id="elcyhlg5vj8we">
					<path class="st18" d="M295.82,607.88c3.57,1.81,7.93,3.03,11.39,1.11c0,0,0,0,0.14,0c-2.15,2.17-3.09,5.13-2.55,8.02
						c0.67,5.35,3.18,41.58,3.18,41.58s-4.17-31.19-5.01-37.1c-1.28-8.74-2.46-10.43-7.17-13.54L295.82,607.88z"/>
				</g>
				<g id="elxcorvx98lo">
					<path class="st18" d="M295.7,616.94c-0.46,0.51-1.28,0.57-1.83,0.15c0,0,0,0,0,0c-0.53-0.44-0.59-1.18-0.14-1.68
						c0.46-0.51,1.28-0.57,1.83-0.15c0,0,0,0,0,0C296.1,615.69,296.16,616.44,295.7,616.94z"/>
				</g>
				<g id="elcqczds1jdfu">
					<path class="st18" d="M296.95,625.45c-0.46,0.51-1.28,0.57-1.83,0.15c-0.55-0.42-0.62-1.18-0.16-1.68
						c0.46-0.5,1.28-0.57,1.83-0.15C297.34,624.19,297.42,624.94,296.95,625.45C296.96,625.45,296.96,625.45,296.95,625.45z"/>
				</g>
				<g id="elkr72mk3b2b9">
					<path class="st18" d="M298.3,633.95c-0.46,0.51-1.28,0.57-1.83,0.15c-0.55-0.42-0.62-1.18-0.16-1.68
						c0.46-0.5,1.28-0.57,1.83-0.15C298.69,632.69,298.76,633.45,298.3,633.95C298.3,633.95,298.3,633.95,298.3,633.95z"/>
				</g>
				<g id="els2tecmq7mdd">
					<path class="st18" d="M299.64,642.46c-0.46,0.51-1.28,0.57-1.83,0.15c0,0,0,0,0,0c-0.53-0.44-0.59-1.18-0.14-1.68
						c0.46-0.51,1.28-0.57,1.83-0.15c0,0,0,0,0,0C300.04,641.21,300.1,641.96,299.64,642.46z"/>
				</g>
				<g id="elf5sz9o25n2">
					<path class="st18" d="M300.99,650.97c-0.45,0.5-1.25,0.57-1.8,0.16c0,0-0.01-0.01-0.01-0.01c-0.55-0.42-0.62-1.18-0.16-1.68
						c0.46-0.51,1.28-0.57,1.83-0.15C301.38,649.72,301.44,650.47,300.99,650.97z"/>
				</g>
				<path id="elvh2pc6lkcw" class="st11" d="M294.26,616.56c-0.1-0.07-0.17-0.18-0.19-0.3c-0.04-0.26,0.14-0.5,0.42-0.55
					c5.39-0.83,10.91,0.27,15.45,3.07l0,0c0.19,0.19,0.19,0.47,0,0.66c-0.21,0.18-0.54,0.18-0.74,0c-4.31-2.59-9.52-3.62-14.61-2.9
					C294.49,616.58,294.37,616.58,294.26,616.56z"/>
				<path id="elw31stybv2a" class="st11" d="M295.7,625.04c-0.1-0.07-0.17-0.18-0.19-0.3c-0.04-0.26,0.14-0.5,0.42-0.55
					c5.39-0.83,10.92,0.28,15.45,3.09l0,0c0.19,0.19,0.19,0.47,0,0.66c-0.21,0.18-0.54,0.18-0.74,0c-4.31-2.59-9.52-3.62-14.61-2.9
					C295.92,625.08,295.81,625.08,295.7,625.04z"/>
				<path id="elqdblef11sg8" class="st11" d="M296.98,633.57c-0.1-0.08-0.16-0.18-0.19-0.3c-0.04-0.26,0.14-0.5,0.42-0.55
					c5.39-0.83,10.91,0.27,15.45,3.07l0,0c0.2,0.19,0.2,0.49,0,0.68c-0.18,0.18-0.49,0.2-0.69,0.03c-0.01-0.01-0.02-0.02-0.03-0.03
					c-4.31-2.61-9.53-3.65-14.63-2.9C297.2,633.6,297.08,633.6,296.98,633.57z"/>
				<path id="elj1nrrxkbq7q" class="st11" d="M298.32,642.08c-0.1-0.08-0.16-0.18-0.19-0.3c-0.04-0.26,0.14-0.5,0.42-0.55
					c5.39-0.83,10.91,0.27,15.45,3.07l0,0c0.18,0.2,0.18,0.48,0,0.68c-0.21,0.18-0.54,0.18-0.74,0c-4.31-2.61-9.53-3.65-14.63-2.9
					C298.53,642.1,298.42,642.1,298.32,642.08z"/>
				<path id="el4lung9il6z" class="st11" d="M299.69,650.59c-0.1-0.08-0.16-0.18-0.19-0.3c-0.07-0.24,0.09-0.48,0.35-0.54
					c0.02,0,0.04-0.01,0.06-0.01c5.39-0.83,10.91,0.27,15.45,3.07l0,0c0.18,0.2,0.18,0.48,0,0.68c-0.21,0.18-0.54,0.18-0.74,0
					c-4.31-2.61-9.52-3.65-14.61-2.9C299.91,650.61,299.8,650.61,299.69,650.59z"/>
				<path id="el05hmcr6v6ds" class="st11" d="M424.44,506.87c-15.65,21.32-18.9,25.1-36.55,42.07
					c-12.64,12.15-74.98,74.44-74.98,74.44c-30.61,2.11-31.12-32.6-31.12-32.6s27.71-37.1,34.67-49.04
					c7.07-12.41,19.87-30.11,35.71-39.55c8.65-4.58,11.83-19.02,15.58-33.35s14.52-56.8,14.52-56.8l96.64,31.22L424.44,506.87z"/>
			</g>
			<g id="freepik--leg--inject-336">
				<path id="elm9qqoh3u9p" class="st11" d="M337.26,506.19c-6.77-3.05-10.74-3.56-13.47-2.69c-2.74,0.87-12.85,8.53-13.24,17.57
					l2.32,3.75c-1.43,1.78-3.28,3.23-5.4,4.26c-3.55,1.73-11.02,3.43-17.18,11.45c-6.17,8.02-8,12.96-9.65,22.52
					c-1.65,9.55-0.83,22.07,6.08,24.03L337.26,506.19z"/>
				<path id="ely8zxe5irsk" class="st13" d="M357.16,519.13c-0.32-2.13-1.99-2.79-4.08-4.5c-2.09-1.71-7.79-7.72-15.82-8.53
					c-9.58,1.45-15.58,7.48-20.57,17.34c-4.99,9.85-13.24,7.12-21.45,15.99c-6.97,6.89-11.27,15.71-12.24,25.08
					c-1.65,11.19-0.51,24.07,8.42,24.07c7.79,0,11.25-5.27,25.32-19.02c6.29-6.49,13.83-11.86,22.24-15.84
					c6.66-2.67,9.11-2.37,9.11-2.37L357.16,519.13z"/>
				<g id="elptovq5p2bc">
					<path class="st18" d="M308.13,574.36c0,0,6.31-8.81,27.3-22.82c4-2.65,7.45-5.93,10.2-9.68l0.63,8.74c0,0-4.87,0-12.43,4.26
						C324.53,560.5,315.91,567.03,308.13,574.36z"/>
				</g>
				<path id="elyzn7ltkm5dg" class="st10" d="M496.58,565.85c3.13-15.2-3.27-33.31-8.33-50.56c-6.57-21.82-14.77-43.19-24.54-63.97
					c0,0-65.98-75.05-85.97-46.04c-18.83,27.42-4.99,61.62,1.95,70.98c7.33,9.87,30.31,34.97,43.39,49.57
					c-10.16-4.41-15.51-5.12-33.72-6.4c-21.82-1.47-29.15-2.26-29.15-2.26c-9.88-0.87-23.33,20.87-14.87,38.38
					c0,0,82.17,26.12,99.72,30.73C467.87,592.35,492.22,587,496.58,565.85z"/>
				<path id="elvfc00ixopt" class="st11" d="M389.37,519.52l-4.04-0.28c10.62,1.46,20.94,4.38,30.61,8.66
					c9.28,4.07,14.54,6.84,14.54,6.84l-7.4-8.89C412.93,521.44,407.58,520.73,389.37,519.52z"/>
				<g id="elwea2xp4d51h">
					<path class="st18" d="M305.77,566.79c0.25-0.62-0.1-1.3-0.78-1.53c0,0-0.01,0-0.01,0c-0.69-0.18-1.41,0.2-1.6,0.83
						c-0.17,0.57,0.13,1.16,0.72,1.41C304.77,567.72,305.52,567.41,305.77,566.79C305.77,566.79,305.77,566.79,305.77,566.79z"/>
				</g>
				<g id="ell60dsfk8f2">
					<path class="st18" d="M311.63,560.67c0.25-0.62-0.09-1.31-0.77-1.54c0,0,0,0,0,0c-0.67-0.22-1.41,0.09-1.67,0.7
						c-0.25,0.62,0.1,1.3,0.78,1.53c0,0,0.01,0,0.01,0c0.64,0.23,1.37-0.06,1.62-0.65C311.62,560.71,311.63,560.69,311.63,560.67z"
						/>
				</g>
				<g id="eljlh6euufxna">
					<path class="st18" d="M318.48,555.3c0.06-0.66-0.47-1.23-1.19-1.29c-0.44-0.03-0.86,0.14-1.13,0.46
						c-0.23,0.62,0.12,1.31,0.79,1.54C317.58,556.17,318.25,555.86,318.48,555.3z"/>
				</g>
				<g id="elf6m3hr7yeco">
					<path class="st18" d="M327.03,550.01c0.28-0.61-0.02-1.31-0.67-1.58c-0.7-0.16-1.4,0.23-1.58,0.87
						c-0.13,0.48,0.07,0.98,0.51,1.26C325.94,550.84,326.71,550.59,327.03,550.01z"/>
				</g>
				<g id="elgcazgi3hxdc">
					<path class="st18" d="M335.45,545.74c0.34-0.58,0.11-1.3-0.52-1.62s-1.42-0.1-1.76,0.48c-0.34,0.57-0.11,1.28,0.5,1.61
						C334.3,546.53,335.1,546.32,335.45,545.74z"/>
				</g>
				<path id="el0h0n3ioo211w" class="st11" d="M304.75,565.94c-0.12-0.04-0.25-0.04-0.37,0c-0.27,0.08-0.41,0.35-0.33,0.59
					c0,0,0,0,0,0.01c0,0.32,0.79,5.44,8.33,8.4l0,0c0.26,0.1,0.56-0.01,0.67-0.25c0,0,0-0.01,0-0.01c0.1-0.25-0.02-0.52-0.28-0.64
					c-7.1-2.71-7.79-7.74-7.79-7.83C304.94,566.1,304.86,566,304.75,565.94z"/>
				<path id="elhh0mnt87xj8" class="st11" d="M310.61,559.86c-0.12-0.03-0.25-0.03-0.37,0c-0.27,0.09-0.42,0.37-0.32,0.62
					c0,0.32,0.81,5.44,8.35,8.4l0,0c0.26,0.1,0.56-0.01,0.67-0.25c0,0,0-0.01,0-0.01c0.11-0.25-0.01-0.53-0.28-0.64
					c-7.1-2.77-7.72-7.74-7.75-7.83C310.87,560.02,310.76,559.91,310.61,559.86z"/>
				<path id="elqm1w5wzwzid" class="st11" d="M317.46,554.44c-0.12-0.03-0.25-0.03-0.37,0c-0.27,0.09-0.4,0.36-0.31,0.6
					c0,0.01,0.01,0.01,0.01,0.02c0,0.32,0.79,5.44,8.33,8.4l0,0c0.26,0.1,0.56-0.01,0.67-0.25c0,0,0-0.01,0-0.01
					c0.12-0.24,0-0.52-0.26-0.64c-7.12-2.79-7.75-7.74-7.77-7.83C317.71,554.6,317.6,554.49,317.46,554.44z"/>
				<path id="el3xotokczv1i" class="st11" d="M326.06,549.07c-0.12-0.04-0.25-0.04-0.37,0c-0.26,0.06-0.42,0.3-0.36,0.54
					c0,0.01,0.01,0.02,0.01,0.04c0,0.34,0.37,5.48,7.68,8.91l0,0c0.26,0.11,0.56,0.02,0.7-0.21c0.12-0.24,0.02-0.53-0.23-0.66
					c-6.96-3.22-7.14-8.21-7.17-8.29C326.28,549.26,326.19,549.14,326.06,549.07z"/>
				<path id="eliz9byq3jcn" class="st11" d="M334.57,544.81c-0.11-0.04-0.24-0.04-0.35,0c-0.29,0.04-0.48,0.29-0.44,0.55
					c0,0.34-0.14,5.48,6.82,9.49l0,0c0.28,0.09,0.58-0.04,0.69-0.29c0.08-0.19,0.02-0.41-0.15-0.54c-6.52-3.77-6.31-8.76-6.31-8.85
					C334.82,545.01,334.72,544.87,334.57,544.81z"/>
			</g>
		</g>
		<g id="freepik--Arm--inject-336">
			<path id="el4dwjiioxqye" class="st16" d="M693.36,362.37c2.64-0.11,2.74,2.13,0.86,3.65c-4.45,3.41-11.43,2.13-15.03,3.3
				c-0.88,0.36-11.6,6.76-12.2,9.1c2.81-0.68,11.6-3.45,14.31-3.99c0.83-0.15,3.11-0.21,10.09-0.34c1.21-0.11,2.42-0.03,3.59,0.26
				c0.77,0.34,1.32,2.13-0.44,3.39c-3.18,2.41-8.02,1.56-12.01,2.39c-1.95,0.34-8.07,1.77-10.37,4.9c5.84-0.64,9.28,0,17.83,2.13
				c1,0.26,1.09,0.75,0.93,1.34c-0.35,1.01-1.22,1.81-2.32,2.13c-2.6,0.79-5.94-0.19-9.79-0.3c-4,0.08-7.92,1.05-11.43,2.81
				c-1.31,0.62-2.47,1.47-3.41,2.52c-1.08,1.37-2.08,2.79-2.99,4.26c-4.3,5.68-11.9,8.41-19.25,6.91c-0.47-0.08-0.91-0.27-1.28-0.55
				c-0.46-0.63-0.58-1.41-0.32-2.13c1.65-7.51,6.96-13.84,11.06-20.47c1.39-2.13,12.11-18.36,12.59-18.87s20.87-2.13,21.41-2.13
				C687.12,362.73,690.83,362.56,693.36,362.37z"/>
			<path id="el0o19uto4y53" class="st19" d="M689.56,358.83c-0.2-0.13-0.45-0.22-0.7-0.23c-1.16-0.11-2.32-0.11-3.48,0
				c-3.76,0.26-6.1,0.21-9.86,0.45l-4.01,0.28c-1.23,0.01-2.44,0.24-3.57,0.66c-0.28,0.13-7.65,4.07-10.85,5.37
				c-5.17,2.13-6.82,2.35-12.73,10.66c-4.13,5.82-8.77,12.52-20.66,16.82c-8.63,3.11-50.14,15.05-50.14,15.05l-7.1,37.34
				c3.5,0,6.96-1.28,12.29-3.41c6.7-2.71,40.17-21.22,48.98-25.59c5.99-2.79,12.19-5.19,18.55-7.19
				c11.25-4.39,6.08-12.43,11.6-19.06c5.52-6.63,10.95-6.63,15.31-11.54c3.8-4.26,1.53-8.53-2.18-6.06
				c-3.98,2.61-8.65,4.17-13.52,4.52c3.75-3.68,7.93-6.98,12.45-9.83c0.88-0.69,1.94-1.16,3.08-1.34c2.81-0.34,3.59-0.32,4.99-0.49
				c2.28-0.16,4.53-0.56,6.7-1.22c2.2-0.67,3.99-2.15,4.94-4.09C689.81,359.66,689.95,359.13,689.56,358.83z"/>
			<path id="el8mep5v8zo87" class="st16" d="M657.48,377.06c-2.81,0.6-5.52,1.53-8.07,2.77c-0.95,0.55-0.28-1.77,3.76-3.75
				c4.04-1.98,6.96-1.28,8.05-2.3L657.48,377.06z"/>
			<path id="elp3ia6x1aco" class="st10" d="M513.7,328.72c12.04,3.22,17,5.27,24.37,15.07c7.37,9.81,35.55,61.94,35.55,61.94
				l42.74-10.43c0,0-4.85,3.33-4.64,12.56c0.39,10.66,5.01,14.58,5.01,14.58s-34.51,20.7-51.92,25.35
				c-11.9,3.16-18.55-1.92-25.02-10.79c-6.47-8.87-29.17-46.93-29.17-46.93L513.7,328.72z"/>
			<path id="eltci1lbx7mn" class="st11" d="M573.55,405.74c-5.5,0.58-17.95,4.07-25.51,12.79c0-5.61,12.31-16.59,22.96-17.38
				L573.55,405.74z"/>
		</g>
		<g id="freepik--top--inject-336">
			<g id="freepik--Chest--inject-336">
				<path id="elna36tadxte" class="st13" d="M504.1,410.71c7.7-9.4,17.16-20.28,22.1-27.61c5.73-8.53,8.35-16.06,8.33-28.64
					c0-9-0.86-14.8-6.15-20.41c-3.59-3.8-7.68-7.23-22.12-15.84c-19.18-11.45-33.07-15.74-41.19-19.4
					c-4.78,1.75-16.91,7.12-16.91,7.12c-9.28,5.25-14.94,5.61-31.05,30.26c-9.09,13.88-17.81,30.9-27.83,48.1
					c-4.64,7.87-8.88,14.35-15.12,23.16c16.63,45.1,83.6,57.27,104.75,38.08C483.67,436.34,492.06,425.46,504.1,410.71z"/>
			</g>
			<g id="freepik--head--inject-336_00000176761638871411516390000018421684515936348829_">
				<path id="elyihna7ca8t" class="st11" d="M490.07,304.01c0.26-7.36-8.97-20.75-9.07-36.89c0-14.76,6.96-22.92,17.65-23.69
					c3.78-10.9,22.82-12.35,34.51-8.29c10.25,3.07,24.07,8.29,33.58,1.43c1.14,5.02-0.84,10.21-5.15,13.48
					c3.48,0,6.19-2.13,9.51-3.6c0.86,7.12-4.8,12.79-9.51,15.35c5.45,5.12,0.97,18.98-10.04,18.32
					C530.6,278.87,509.57,296.89,490.07,304.01z"/>
				<path id="elg1vlbs2cajs" class="st19" d="M514.46,335.89l9.81-13.05l-27.32-28.06l-12.38,16.76
					c1.53,20.26,17.58,29.38,20.87,35.89C509.5,345.65,514.9,341.62,514.46,335.89z"/>
				<path id="elo9k2xs9bpsb" class="st16" d="M497.67,295.72c-1.28,5.26-0.9,10.75,1.09,15.82c1.46,3.92,5.22,10.66,21.94,15.95
					l3.57-4.65c-3.99-1.11-7.87-2.53-11.6-4.26c-2.82-1.3-5.34-3.09-7.42-5.27C499.95,307.42,498.49,297.93,497.67,295.72z"/>
				<path id="el5f2d4kh15hp" class="st19" d="M553.54,260.43c-1.61,0.91-3.31,1.67-5.08,2.26c-3.53,1.17-7.24,1.81-10.99,1.9
					c-7.91,0.18-15.8-0.9-23.31-3.2c0.39,5.88-4.8,10.77-6.96,12.3c-1.02,11.92-6.4,10.66-6.28,9.23c0.16-1.99-0.05-4-0.63-5.93
					c-1.39-3.97-5.85-6.31-10.27-5.39c-3.07,0.76-5.52,2.87-6.54,5.63c-1.87,4.01-1.96,8.53-0.26,12.6
					c1.03,3.44,3.69,6.28,7.24,7.74c6.08,2.13,7.14-1.86,7.14-1.86c0.72,4.8,1.37,10.09,4.64,14.82c3.54,5.13,8.96,8.91,15.28,10.66
					c6.94,2.27,14.39,2.88,21.66,1.77c4.64-1.11,13.91-3.77,17.25-28.61C558.85,276.12,555.72,264.65,553.54,260.43z"/>
				<path id="elok7jpb39dv" class="st11" d="M526.11,283.63c-0.21,1.73-1.91,2.98-3.79,2.79c-1.88-0.19-3.24-1.75-3.03-3.48
					c0.2-1.68,1.81-2.92,3.65-2.8C524.85,280.3,526.27,281.86,526.11,283.63z"/>
				<path id="el5sexrsc3mge" class="st15" d="M531.74,305.65c-0.16,1.36-1.48,2.34-2.96,2.2c-1.48-0.14-2.55-1.36-2.39-2.72
					c0.15-1.33,1.42-2.3,2.87-2.2C530.76,303.05,531.88,304.27,531.74,305.65z"/>
				<path id="eld8t6c5axhia" class="st11" d="M526.78,273.56l-8.3-1.32c0.47-2.14,2.69-3.56,5.03-3.22
					c2.24,0.39,3.72,2.37,3.29,4.43C526.8,273.49,526.79,273.53,526.78,273.56z"/>
				<path id="elcldxyr9dzmr" class="st11" d="M552.27,274.01l-8.4,1.17c-0.45-2.03,0.98-4.01,3.19-4.42
					c0.07-0.01,0.14-0.02,0.22-0.03C549.63,270.43,551.82,271.87,552.27,274.01z"/>
				<path id="elopi9qzmuno" class="st11" d="M552.24,283.63c-0.21,1.73-1.91,2.98-3.79,2.79c-1.88-0.19-3.24-1.75-3.03-3.48
					c0.2-1.68,1.81-2.92,3.65-2.8C550.99,280.3,552.4,281.86,552.24,283.63z"/>
				<path id="elrvokjrn9amo" class="st16" d="M534.57,281.22l1.69,17.19l11.85-2.94c-1.57-5.99-5.22-11.35-10.39-15.27
					C534.06,278.4,534.57,281.22,534.57,281.22z"/>
			</g>
			<g id="freepik--briefcase--inject-336">
				<path id="elmksq1p3jh19" class="st10" d="M338.4,435.14L308.25,506c-1.46,3.43-4.94,4.48-8.91,5.07l-9.95,1.39
					c-2.33,0.55-4.81,0.15-6.79-1.11c-1.37-0.9-2.6-1.98-3.64-3.2c0,0,0,0-0.14-0.13l-0.35-0.38l-64.08-73.69
					c-4.72-5.37-5.93-12.66-3.18-19.08l27.37-64.5c0.78-1.6,2.35-2.76,4.22-3.11l16.95-2.37c1.89-0.18,3.75,0.48,5.01,1.79
					l72.8,83.58c0.57,0.68,0.94,1.49,1.07,2.35C338.78,433.46,338.7,434.33,338.4,435.14z"/>
				<path id="el5sjaoofo5x7" class="st11" d="M338.4,435.14L308.25,506c-1.46,3.43-4.94,4.48-8.91,5.07l-9.95,1.39
					c-2.33,0.55-4.81,0.15-6.79-1.11c-1.37-0.9-2.6-1.98-3.64-3.2l0,0c2.64,2.56,5.84,1.92,7.33-1.6l28.41-66.78
					c0.48-1.23,0.61-2.55,0.37-3.84l23.56-3.33C338.78,433.46,338.7,434.33,338.4,435.14z"/>
				<path id="elr5j3xvyn6wc" class="st13" d="M314.72,439.77c0.88-2.52,0.42-5.27-1.25-7.42l-68.78-78.98
					c-2.71-3.13-6.24-2.62-7.82,1.09l-25.51,60.41c-2.75,6.42-1.54,13.71,3.18,19.08l64.17,73.69c2.74,3.11,6.24,2.62,7.82-1.11
					L314.72,439.77z"/>
				<path id="el2e3quskwkol" class="st5" d="M254.26,345.65l72.73,84.22c2.07,2.42,2.6,5.66,1.39,8.53l-30.94,72.92l-1.74,0.3
					l31.24-73.67c1.02-2.41,0.58-5.13-1.16-7.16l-73.28-84.86L254.26,345.65z"/>
				<g id="el0ldztw36do9">
					<path class="st20" d="M328.91,433.97c0.26,1.5,0.07,3.04-0.53,4.46l-30.94,72.92l-1.74,0.28l31.24-73.67
						c0.5-1.19,0.66-2.47,0.46-3.73L328.91,433.97z"/>
				</g>
				<g id="elh6yj1c8y86v">
					<path class="st20" d="M327.4,434.18c-0.21-1.25-0.77-2.44-1.62-3.43l-73.28-84.86l1.76-0.23l72.73,84.22
						c1.03,1.18,1.69,2.6,1.92,4.09"/>
				</g>
				<path id="elzlonkss0lj" class="st5" d="M283.85,366.64l-4.64,10.96l-5.71,0.81l6.17-14.56c0.1-0.43,0.56-0.7,1.02-0.6
					c0.23,0.05,0.43,0.18,0.56,0.37L283.85,366.64z"/>
				<g id="elsijhzhjl20d">
					<path class="st21" d="M283.85,366.64l-4.64,10.96l-5.71,0.81l6.17-14.56c0.1-0.43,0.56-0.7,1.02-0.6
						c0.23,0.05,0.43,0.18,0.56,0.37L283.85,366.64z"/>
				</g>
				<path id="elgm2xhf760n" class="st5" d="M312.05,389.3l-7.54,17.85l-5.45,0.77l-2.32-2.67l6.19-14.56
					c0.3-0.85,0.14-1.77-0.42-2.49l-17.63-20.23l-3.64-4.26c-0.24-0.37-0.77-0.5-1.18-0.28c-0.21,0.11-0.35,0.3-0.4,0.51
					l-6.17,14.56l-2.32-2.67l7.49-17.72l0.12-0.21c0.43-0.71,1.18-1.21,2.04-1.36l2.32-0.32c0.96-0.09,1.91,0.25,2.55,0.92
					l25.93,29.85C312.15,387.65,312.3,388.51,312.05,389.3z"/>
				<g id="elxzq0erwoqo8">
					<path class="st20" d="M306.58,390.09l-7.51,17.76l-2.32-2.67l6.19-14.56c0.3-0.85,0.14-1.77-0.42-2.49l-17.63-20.23l-3.64-4.26
						c-0.24-0.37-0.77-0.5-1.18-0.28c-0.21,0.11-0.35,0.3-0.4,0.51l-6.17,14.56l-2.32-2.67l7.49-17.65l0.12-0.21
						c0.37-0.55,0.97-0.55,1.46,0l25.93,29.74C306.72,388.36,306.87,389.26,306.58,390.09z"/>
				</g>
			</g>
			<path id="el5d2rco671na" class="st19" d="M462.68,298.77c-16.51-3.99-21.64-0.38-47.7,1.41c-16.95,1.17-36.73,1.86-55.91,5.16
				c-9.16,1.6-16.98,1.6-23.93,9.02c-12.27,13.22-25.3,28.27-32.26,34.69c-6.96,6.42-9.28,8.74-18.55,13.58
				c-0.95,0.53-1.74,1.26-2.32,2.13c-0.84,1.27-1.53,2.63-2.06,4.03c-0.37,0.92-0.7,1.83-1,2.75c-0.15,0.36-0.26,0.73-0.32,1.11
				c0.06,0.28,0.06,0.57,0,0.85c-0.62,1.52-0.81,3.15-0.56,4.75c0.05,0.23,0.12,0.45,0.21,0.66c0.37,0.83,0.95,1.56,1.69,2.13
				c0.52,0.36,0.98,0.78,1.37,1.26c0.77,1.11,0.37,2.54,0.46,3.86c0.12,1.4,0.86,2.69,2.04,3.58c1.44,1.11,3.57,1.62,4.31,3.22
				c0.21,0.47,0.32,0.98,0.49,1.47c1.14,3.11,9.79,5.99,9.95,5.88l4.06-9.6c0.48-0.88,0.35-1.93-0.32-2.69l-1.97-2.45
				c2.32-3.39,4.64-5.99,5.64-5.33l5.68,6.55c0.62,0.75,0.75,1.75,0.35,2.62c-0.35,0.79-0.86,2.13-1.21,2.9
				c1.77-1.5,3.38-3.15,4.82-4.93c4.64-6.89,1.99-15.69,5.98-20.19c9.28-10.41,32.47-27.08,37.73-31.71l65.72,2.32
				C443.69,331.11,457.68,316.58,462.68,298.77z"/>
			<path id="elwdayzxb38ob" class="st10" d="M465,298.81c-12.27-5.93-18.76-4.67-41.4-3.09c-14.08,0.96-53.13,6.57-70.64,9.77
				c-12.64,2.32-12.87,2.13-18.55,8.27c-5.68,6.14-19.39,22.6-19.39,22.6s0.16,5.69,7.84,11.34c7.68,5.65,12.96,6.4,12.96,6.4
				l23.75-17.55l63.94,3.09c10.79,1,21.56-2.04,29.89-8.42C467.13,320.58,465,298.81,465,298.81z"/>
			<path id="elkdpdqnxmxzi" class="st13" d="M316.69,334.44l-6.26,7.04c1.85,4.36,5.01,8.15,9.11,10.92
				c7.42,5.57,11.83,5.48,11.83,5.48l7.49-5.95c-4.69-1.77-9.07-4.15-13.01-7.08C321.98,342.06,318.84,338.5,316.69,334.44z"/>
		</g>
		<polygon id="eldk9uxw773bw" class="st5" points="500.67,347.81 491.57,332.26 480.88,331.11 492.2,353.22 		"/>
		<g id="el7f4300w151d">
			<polygon class="st18" points="500.67,347.81 491.57,332.26 480.88,331.11 492.2,353.22 			"/>
		</g>
		<path id="el1ud0vfcmuv7" class="st5" d="M505.23,349.77c5.22-1.79,12.57-13.97,12.57-13.97l3.01,1.83c0,0-3.39,12.69-14.7,19.57
			C506.11,357.21,504.19,352.18,505.23,349.77z"/>
		<g id="el6fmseer59k6">
			<path class="st18" d="M505.23,349.77c5.22-1.79,12.57-13.97,12.57-13.97l3.01,1.83c0,0-3.39,12.69-14.7,19.57
				C506.11,357.21,504.19,352.18,505.23,349.77z"/>
		</g>
		<path id="elk6iuim56b6" class="st5" d="M404.38,362.37c45.99,28.32,82.79,4.93,87.78-2.13l5.45,3.11
			c-3.11,10.49-33.51,47.23-89.82,29.32c-11.36-3.9-29.1-20.47-28.43-24.71C380.03,363.71,399.78,359.6,404.38,362.37z"/>
		<g id="elgd7mu2jdq04">
			<path class="st18" d="M497.46,364.23c0-0.3,0.19-0.58,0.26-0.83l-5.57-3.16c-0.54,0.73-1.16,1.41-1.86,2.03
				C492.36,363.68,494.9,364.37,497.46,364.23z"/>
		</g>
		<path id="elu7wfnfklbu9" class="st5" d="M500.67,347.81c2.5,1.17,4.64,1.96,4.64,1.96s1.95,6.1,0.49,8.53
			c-1.71,2.77-4.7,4.68-8.12,5.18c-2.22-0.25-4.22-1.39-5.45-3.11c-0.75-2.3-0.75-4.76,0-7.06
			C493.92,350.88,499,347.66,500.67,347.81z"/>
		<path id="elaotuwhieqii" class="st10" d="M491.57,302.16l-4.36,5.95c-0.86,10.96,0.86,17.8,9.74,26.06
			c3.66,3.92,6.53,8.41,8.46,13.26c0,0-5.33-6.67-10.39-4.67c-6.61,2.64-10.78,5.8-12.94,4.26c-2.16-1.54-9.44-13.39-9.46-24.24
			c0.06-6.5,1.44-12.94,4.08-18.98C483.87,302.92,487.93,299.41,491.57,302.16z"/>
		<path id="elbglx2wxuxui" class="st10" d="M505.42,347.45c9.65-1.19,10.09,5.65,11.97,4.97s10.06-22.32,6.96-29.55L505.42,347.45z"
			/>
	</g>
</g>
</svg>
