<?xml version="1.0" encoding="utf-8"?>
<!-- Generator: Adobe Illustrator 28.1.0, SVG Export Plug-In . SVG Version: 6.00 Build 0)  -->
<svg version="1.1" id="Layer_1" xmlns="http://www.w3.org/2000/svg" xmlns:xlink="http://www.w3.org/1999/xlink" x="0px" y="0px"
	 viewBox="0 0 1920 1080" style="enable-background:new 0 0 1920 1080;" xml:space="preserve">
<style type="text/css">
	.st0{fill:#E0E0E0;}
	.st1{fill:#FFFFFF;}
	.st2{fill:#F0F0F0;}
	.st3{opacity:0.2;fill:#DC0000;enable-background:new    ;}
	.st4{opacity:0.2;}
	.st5{fill:#DC0000;}
	.st6{opacity:0.4;fill:#FFFFFF;enable-background:new    ;}
	.st7{opacity:0.25;}
	.st8{opacity:0.5;}
	.st9{fill:#FFBDA7;}
	.st10{fill:#37474F;}
	.st11{fill:#263238;}
	.st12{opacity:0.3;enable-background:new    ;}
	.st13{fill:#455A64;}
	.st14{fill:#F0997A;}
	.st15{fill:#B16668;}
	.st16{fill:#F28F8F;}
	.st17{fill:#FAFAFA;}
	.st18{opacity:0.15;enable-background:new    ;}
	.st19{fill:#FFA8A7;}
	.st20{opacity:0.2;enable-background:new    ;}
	.st21{opacity:0.4;enable-background:new    ;}
</style>
<g id="freepik--plants--inject-336">
	<path id="elyn96sw43wes" class="st0" d="M1743.5,548.8c-16.8,1.6-36.7,30.3-41.7,56.5c-3.4,16.5-4.1,33.3-2.2,50l7.1,3.8l2.1,1.1
		l5.8,3l5.1,2.7l1,0.5l0.5-9l0,0v-0.2l0,0v-1.3c-1.3-13,7.1-30.7,16.4-46.5c6.2-10.7,12.8-20.4,17.2-27.5
		C1765.8,564.3,1759.1,547.3,1743.5,548.8z"/>
	<path id="elkxgegfcluf" class="st1" d="M1746.8,559.7c-20.7,15.2-41.1,55.5-38.1,100.6l-2.1-1.1c-2.7-45.2,18-85.6,38.9-100.9
		c0.4-0.3,1-0.3,1.4,0.1c0,0,0,0,0,0C1747.3,558.8,1747.3,559.4,1746.8,559.7C1746.8,559.7,1746.8,559.7,1746.8,559.7z"/>
	<path id="elg6ev55k0ztq" class="st2" d="M1721.5,667L1721.5,667l7,3.8c3.1-8,7.4-15.6,13-22.4c12.3-15.2,30.8-26.2,32.5-35.6
		c2.1-11.3-7.2-18.1-23.5-12.1c-5,2-9.5,5.1-13.1,8.9c-14.1,15-22.2,33.9-23.1,53.7l5.1,2.7l1,0.5L1721.5,667z"/>
	<path id="el8nrrw8zslfw" class="st1" d="M1721.5,667L1721.5,667c4-33.3,25.5-51.8,37.4-57.2c0.5-0.2,0.7-0.8,0.5-1.2
		c-0.2-0.5-0.8-0.7-1.3-0.5c0,0,0,0,0,0c-11.8,5.3-30.5,21.2-36.9,49.4l0,0c-0.7,2.8-1.2,5.6-1.5,8.4l1,0.5L1721.5,667z"/>
</g>
<g id="freepik--plants--inject-336_00000146475358403658113950000004537502327176585891_">
	<path id="el3ig7wjdr9vc" class="st0" d="M223.6,625.9l-5.1,2.7l-11.6,6.2c0-22.3-8.1-41.8-17.7-57.6c-6.8-10.7-14.3-21-22.5-30.8
		c-13.7-17.2,7-26.3,23.5-18.2s29.3,27.3,33.7,51.8C227.2,597.6,225,616.6,223.6,625.9z"/>
	<path id="el6gs29m8352o" class="st1" d="M216.3,628.4h0.2c0.6,0,1-0.4,1-0.9l0,0c1.2-53-16.5-80.4-38-94.9
		c-0.4-0.3-1.1-0.2-1.4,0.2c0,0,0,0,0,0c-0.3,0.4-0.2,1,0.2,1.2c0,0,0,0,0,0c21.1,14.3,38.4,41.1,37.1,93.3
		C215.5,628,215.9,628.3,216.3,628.4z"/>
	<path id="elsktu9m341r" class="st2" d="M218.5,628.6l-11.6,6.2l-5.6,3l-1.5,0.8l-16.2,8.5c-6.8-2.8-9.8-6.1-10.9-11.2
		c-1-4.6-0.3-9.9-3.5-13.5c-2.2-2.1-5.2-3.4-8.3-3.9c-1-0.2-2.1-0.5-3.1-0.8c-2.1-0.8-4.1-1.7-6.1-2.7c-2.4-1.2-4.2-3.2-5-5.6
		c-1.3-5.8,6.4-10.9,5.4-16.7c-0.5-2.8-3-4.9-5.4-7c-2.3-2.1-4.8-4.3-5-7.3c0-2.7,1.6-5.3,4.1-6.7c4.4-2.5,9.7-3.1,14.6-1.6
		c4.9,1.4,9.3,4.3,14.1,6.1s9.8,0.2,14.8,1.2h0.2c4.9,1,10,2.8,11.8,7.6s-0.5,10.5,2.6,14.7c3.3,4.7,10.4,5.5,13.9,10.2
		C221.8,615.4,222.1,622.7,218.5,628.6z"/>
	<path id="el4yl2lig69gu" class="st1" d="M201.3,637.7l-1.5,0.8c1.1-12-2-24-9-34.3c-10.3-4.3-22.2-4.2-32.5,0.3
		c-0.1,0.1-0.2,0.1-0.4,0.1c-0.2,0-0.4-0.1-0.6-0.3c-0.2-0.3-0.1-0.7,0.3-0.9c0,0,0,0,0,0c10-4.4,21.5-4.8,31.8-1.1
		c-11.9-16.1-30.4-24.4-36.8-26c-0.4-0.1-0.6-0.5-0.5-0.8c0.1-0.3,0.5-0.5,0.9-0.5c0,0,0,0,0,0c6.8,1.7,26.7,10.7,38.8,28.2
		c0.1,0.1,0.2,0.2,0.2,0.3C199,613.7,202.2,625.7,201.3,637.7z"/>
</g>
<g id="freepik--Clouds--inject-336">
	<g id="freepik--Cloud--inject-336">
		<path id="el9w5r5kapzdd" class="st1" d="M1297.1,103.7c0-7-8.4-11.9-17.8-12.8c-11.2-1-19.1,3.6-19.3,11.7c-7.3-2.8-15-1-14.4,6.4
			c-1.9-2-9-2-11.6-1.4c-2.8,0.7-5.1,2.5-6.3,5c-0.6,1.2-0.8,2.5-0.7,3.8c-4.3-1.3-13.9-2.1-16.2,1.5c-4.3,6.4,12.9,6.6,16.4,4.7
			c0.7,5,19.2,5.8,23.7,1.2c3.5,3.2,8.5,4,13.9,4.3c9.1,0.5,14.8-2.3,21.9-5.7c7.8,6.1,21.2,6.2,28.2-0.8c1.8,1.5,6.7,2,10.6,1.2
			c2.6-0.6,3.2-1.6,3.2-1.6c1.5,0.6,3.1,1,4.6,1.3c5.1,1,14.5,0,10.6-4.3c-2.4-1.6-5.4-2.2-8.4-1.9c-2.2-4-11.1-7.8-16.2-4.4
			c-0.2-4.9-5-8.7-11.8-9.6C1305.2,102,1299.8,101.7,1297.1,103.7z"/>
		<path id="el3krvtpprkt3" class="st0" d="M1266.7,129h-2.1c-4.6-0.3-10-0.8-13.9-3.9c-4,2.9-13.5,3.4-19.5,1.7
			c-1.9-0.4-3.7-1.4-4.8-2.9c-4,1.2-13.3,1.2-16.4-1.7c-1.4-1.3-1.5-3.3-0.3-4.7c2.6-3.8,11.2-3.4,16.2-2.3c0.1-1,0.3-1.9,0.8-2.9
			c1.3-2.7,3.9-4.8,7.1-5.5c3.6-0.6,7.3-0.4,10.8,0.6c0.1-2.1,1.2-4,3.1-5.2c3.5-1.9,7.7-2.1,11.4-0.7c0.3-2.9,1.9-5.6,4.3-7.6
			c4.6-3.2,10.3-4.6,16.1-3.9c8.7,0.8,17.4,5.1,18.6,12.1c3.1-0.9,6.4-1.2,9.6-0.7c6.7,1,11.5,4.5,12.5,9c2.3-0.8,4.8-1,7.1-0.4
			c3.5,0.7,6.6,2.6,8.8,5.3c2.6-0.2,7.1,0.7,8.6,2.3s1.3,2.9,0.8,3.7c-1.7,2.6-8.8,2.8-12.4,2.1c-1.5-0.2-2.9-0.6-4.3-1.1
			c-0.9,0.7-2,1.2-3.2,1.4c-3.6,0.9-7.4,0.6-10.8-0.8c-7.1,6.3-20.2,6.6-28.4,0.6l-0.3,0.1C1280,126.5,1274.6,129,1266.7,129z
			 M1250.7,122.8c0.3,0,0.5,0.1,0.7,0.3c3.1,2.9,7.5,3.7,13.3,4c8.5,0.5,13.8-2.1,20.5-5.2l0.9-0.4c0.4-0.2,0.8-0.1,1.1,0.1
			c7.6,5.9,20.4,5.6,26.8-0.7c0.2-0.2,0.4-0.3,0.7-0.3c0.3,0,0.5,0.1,0.7,0.3c1.3,1.2,5.8,1.8,9.7,0.9c2-0.4,2.6-1.1,2.6-1.2
			c0.3-0.4,0.8-0.5,1.3-0.4c1.5,0.6,3,1,4.5,1.2c3.9,0.8,9.3,0.1,10.2-1.2c0.3-0.4-0.2-1.1-0.6-1.5c-2.2-1.3-4.8-1.8-7.4-1.6
			c-0.5,0.1-0.9-0.1-1.1-0.5c-1.8-2.5-4.6-4.2-7.8-4.9c-2.3-0.7-4.8-0.4-6.8,0.8c-0.4,0.3-1.1,0.2-1.4-0.2c-0.1-0.2-0.2-0.3-0.2-0.5
			c-0.2-4.3-4.6-7.8-10.9-8.7c-2.3-0.3-7.3-0.5-9.5,1.2c-0.4,0.3-1.1,0.3-1.4-0.1c-0.2-0.2-0.2-0.4-0.2-0.6
			c0-6.8-8.5-11.1-16.9-11.8c-6.1-0.5-11.3,0.6-14.5,3.3c-2.3,1.9-3.7,4.7-3.7,7.6c0,0.3-0.2,0.6-0.5,0.8c-0.3,0.2-0.7,0.2-0.9,0
			c-4.2-1.6-8.3-1.5-10.7,0c-1.8,1.3-2.7,3.3-2.3,5.4c0.1,0.4-0.2,0.8-0.6,0.9c-0.4,0.2-0.9,0.1-1.2-0.3c-1.4-1.5-7.9-1.7-10.5-1.1
			c-2.5,0.7-4.6,2.3-5.7,4.4c-0.6,1-0.8,2.2-0.6,3.3c0,0.3-0.1,0.6-0.4,0.8c-0.3,0.2-0.6,0.3-0.9,0.2c-4.2-1.3-13.2-1.8-15.2,1.1
			c-0.9,1.3-0.5,2,0,2.4c2.6,2.4,12.7,2.1,15,0.9c0.3-0.1,0.7-0.1,1,0c0.3,0.1,0.5,0.4,0.6,0.7c0.2,1,1.5,1.9,3.8,2.5
			c5.7,1.6,15.3,1.1,18.1-1.8C1250.1,123,1250.4,122.8,1250.7,122.8L1250.7,122.8z"/>
	</g>
	<g id="freepik--cloud--inject-336">
		<path id="ela5sx8aa1coo" class="st1" d="M583.6,183.5c0-7.9-9.3-13.3-20-14.2c-12.5-1.1-21.4,4-21.6,13.1
			c-8.2-3.1-16.8-1.1-16.2,7.1c-2.1-2.3-10.1-2.1-12.9-1.6c-3.1,0.8-5.7,2.8-7.1,5.6c-0.7,1.3-1,2.8-0.7,4.3
			c-4.8-1.4-15.6-2.3-18.3,1.7c-4.8,7.2,14.4,7.4,18.3,5.2c0.8,5.6,21.5,6.4,26.5,1.3c3.9,3.6,9.5,4.4,15.6,4.8
			c10.2,0.6,16.5-2.6,24.5-6.4c8.7,6.8,23.7,6.9,31.5-0.9c2,1.7,7.5,2.3,11.9,1.3c2.9-0.6,3.6-1.8,3.6-1.8c1.7,0.7,3.5,1.2,5.3,1.5
			c5.7,1.1,16.2,0,11.8-4.8c-1.5-1.6-7-2.6-9.4-2.1c-2.5-4.5-12.4-8.7-18.1-4.9c-0.2-5.4-5.6-9.7-13.2-10.7
			C592.6,181.6,586.5,181.2,583.6,183.5z"/>
		<path id="elighpvlfltt" class="st0" d="M549.5,211.9c-0.7,0-1.5,0-2.3,0c-5.3-0.3-11.2-0.9-15.5-4.3c-4.5,3.3-15.1,3.8-21.8,1.9
			c-2.2-0.4-4.1-1.6-5.4-3.3c-4.5,1.4-14.9,1.3-18.3-1.9c-1.6-1.4-1.7-3.7-0.3-5.3c2.9-4.3,12.5-3.8,18.1-2.6
			c0.1-1.1,0.4-2.2,0.9-3.2c1.5-3,4.4-5.3,7.9-6.2c4-0.7,8.2-0.5,12.1,0.6c0.1-2.4,1.4-4.6,3.5-6c3.9-2.1,8.6-2.4,12.8-0.8
			c0.4-3.3,2.1-6.3,4.8-8.5c4.2-3.4,10.5-4.9,18-4.3c9.7,0.8,19.5,5.7,20.9,13.5c3.5-1.1,7.1-1.4,10.7-0.8c7.4,1.1,12.8,5,13.9,10.1
			c2.5-1,5.3-1.1,8-0.4c4,0.8,7.4,2.9,9.9,5.9c2.9-0.2,7.9,0.8,9.6,2.6s1.5,3.3,0.9,4.1c-1.9,3-9.9,3.1-13.9,2.4
			c-1.6-0.3-3.2-0.7-4.8-1.2c-1,0.8-2.3,1.3-3.6,1.5c-4,0.9-8.2,0.6-12-0.9c-8,7-22.6,7.4-31.8,0.7l-0.3,0.1
			C564.3,209,558.3,211.8,549.5,211.9z M531.6,204.9c0.3,0,0.6,0.1,0.8,0.3c3.5,3.2,8.4,4.1,14.9,4.4c9.5,0.5,15.4-2.3,22.9-5.8
			l1-0.4c0.4-0.2,0.9-0.2,1.3,0.1c8.5,6.6,22.8,6.4,29.9-0.8c0.2-0.2,0.5-0.3,0.8-0.3s0.6,0.1,0.8,0.3c1.5,1.3,6.5,2,10.8,1
			c2.3-0.5,2.8-1.3,2.8-1.3c0.3-0.4,0.9-0.6,1.5-0.4c1.6,0.6,3.3,1.1,5.1,1.4c4.4,0.9,10.4,0.1,11.4-1.3c0.3-0.5-0.2-1.2-0.7-1.7
			c-2.5-1.4-5.4-2-8.2-1.7c-0.5,0.1-1.1-0.1-1.3-0.6c-2-2.8-5.2-4.8-8.8-5.5c-2.6-0.7-5.4-0.4-7.7,0.9c-0.4,0.2-0.8,0.2-1.2,0
			c-0.4-0.2-0.6-0.5-0.7-0.9c-0.2-4.8-5.1-8.7-12.2-9.7c-2.6-0.4-8.2-0.6-10.6,1.3c-0.3,0.2-0.8,0.3-1.2,0.1
			c-0.4-0.2-0.7-0.5-0.7-0.9c0-7.6-9.5-12.4-19-13.2c-6.8-0.6-12.6,0.7-16.2,3.7c-2.6,2.1-4.1,5.2-4.1,8.4c0,0.3-0.2,0.7-0.5,0.9
			c-0.3,0.2-0.7,0.2-1.1,0c-4.6-1.8-9.3-1.7-12,0c-2,1.4-2.9,3.7-2.5,6c0,0.6-0.4,1.1-1,1.1c-0.4,0-0.7-0.1-1-0.4
			c-1.6-1.7-8.9-1.9-11.8-1.2c-2.8,0.7-5.1,2.5-6.3,4.9c-0.6,1.2-0.8,2.6-0.6,3.9c0,0.4-0.1,0.7-0.4,0.9c-0.3,0.2-0.7,0.3-1.1,0.2
			c-4.6-1.4-14.8-2-17,1.3c-1,1.5-0.6,2.1,0,2.7c3,2.8,14.2,2.5,16.8,1c0.3-0.2,0.8-0.2,1.1,0c0.4,0.1,0.6,0.5,0.6,0.8
			c0.2,1.1,1.7,2.1,4.2,2.8c6.3,1.8,17.1,1.2,20.3-2.1c0.2-0.2,0.5-0.4,0.8-0.4L531.6,204.9z"/>
	</g>
	<g id="freepik--cloud--inject-336_00000133496767622320723640000009069455458800140672_">
		<path id="elofj8bj7cegc" class="st1" d="M1511.7,191.5c-2.2-0.8-4.6-1.2-7-1.2c-2.3-0.2-3-0.6-3.4-1c-4.5-6-12.8-8.3-20.1-5.5
			c-2.1-5.8-8.6-9.3-15.1-7.9c0.3-6.4-8.8-13.4-16.9-14.9c-7.8-1.5-14.5-0.9-18.9,3.8c-4.8-8.5-23.3-10.9-33.4-6.4
			c-5.8,2.6-10.7,5.2-13.1,10.1c-1.6,3-2.3,6.3-2.2,9.7c-3.9-3.2-11.8-4-17-2.1c-5.6,2-6.1,5.9-6.3,9.9c-3.3-0.9-6.9-0.9-10.3-0.2
			c-3.6,1-5.6,3.5-5.1,5.6c-2.8-0.1-9.5,2-8.7,4.7c0.9,3.1,8.5,2.8,11.4,2.6c2.7-0.2,5.4-0.6,8-1.1c1.3,0.5,2.8,0.7,4.2,0.7
			c4.9,0,7-1.9,7.7-3.6c2.3,4.6,10.8,8.1,16.8,9.5c11.3,2.6,27.2,1,34.2-6.7c0.8,1.5,1.9,2.8,3.3,3.8c3,2.2,6.6,3.6,10.4,3.9
			c4.6,0.4,17.1,0.9,20.6-5.8c2.5,4.5,13.5,6.6,21.9,5.4c3.3-0.4,6.4-1.3,9.4-2.6c1.8-0.9,3.7-1.9,5.4-3c1.4-0.9,3.2-1,4.6-0.3
			c6,1.9,12.5,1.8,18.4-0.2C1515.1,197,1516.1,193.4,1511.7,191.5z"/>
		<path id="elg7pm3mq0ppw" class="st0" d="M1392.8,206.2c-3.7,0-7.3-0.4-10.9-1.2c-4.6-1.1-13-4.1-16.6-8.5c-2,2-4.8,3-7.7,2.8
			c-1.4,0-2.9-0.2-4.3-0.7c-2.6,0.6-5.2,0.9-7.9,1.1c-3.8,0.1-11.4,0.4-12.4-3.4c-0.3-0.9,0-1.9,0.7-2.6c2.2-1.9,5-3,7.9-3.2
			c0.6-2.8,2.9-5,5.9-5.6c3.2-0.7,6.5-0.7,9.6,0c0.3-3.5,1.1-7.6,7-9.6c5.4-1.7,11.4-1.3,16.4,1.2c0.1-2.9,0.9-5.7,2.3-8.3
			c2.6-5.3,8.1-8.1,13.6-10.7c10.1-4.5,28.1-2.4,34,5.7c4.3-3.8,10.5-4.8,19-3.2c7.9,1.6,16.9,8.2,17.6,14.9
			c6.3-0.8,12.3,2.4,14.8,7.7c7.5-2.4,15.8,0.1,20.2,6.1c0,0,0.5,0.5,2.7,0.6h0.6c2.3,0,4.6,0.4,6.7,1.2l0,0c2,0.6,3.3,2.2,3.4,4.1
			c-0.4,2.3-2.2,4.3-4.6,4.9c-6.2,2-12.9,2-19.1,0c-2-0.6-2.5-0.6-3.8,0.2l-1.8,1c-1.2,0.7-2.4,1.4-3.7,2c-3.1,1.3-6.3,2.2-9.7,2.7
			c-8.1,1.1-18.2-0.6-22-4.6c-4.3,5.5-14.6,5.5-20.7,5c-4-0.3-7.8-1.8-11-4.1c-1.1-0.8-2.1-1.8-2.9-2.9
			C1410.9,204,1401.7,206.2,1392.8,206.2z M1365.4,193.7c0.4,0,0.8,0.2,0.9,0.5c2.1,4.1,9.8,7.5,16.2,9c11.1,2.6,26.5,0.9,33.1-6.4
			c0.2-0.2,0.6-0.4,0.9-0.3c0.3,0.1,0.7,0.2,0.8,0.5c0.7,1.4,1.8,2.5,3.1,3.4c2.8,2.1,6.3,3.3,9.9,3.7c4.8,0.4,16.4,0.7,19.5-5.3
			c0.2-0.3,0.5-0.5,0.9-0.5c0.4,0,0.7,0.2,0.9,0.5c2.3,4.1,12.9,6,20.9,4.9c3.2-0.4,6.2-1.3,9.1-2.5c1.1-0.6,2.2-1.2,3.3-1.9
			c0.6-0.4,1.2-0.7,1.9-1.1c1.6-1,3.7-1.1,5.4-0.4c5.7,1.8,11.9,1.8,17.7,0c2.1-0.8,3.5-2.1,3.5-3.2s-0.8-1.7-2.3-2.3l0,0
			c-1.9-0.7-3.9-1-6-1.1h-0.7c-1.5,0.1-3-0.4-4.1-1.3c-4.2-5.6-12.1-7.8-18.9-5.2c-0.5,0.2-1.1,0-1.3-0.5c0-0.1,0-0.1-0.1-0.1
			c-1.9-5.4-7.9-8.5-13.9-7.2c-0.6,0.1-1.1-0.2-1.2-0.7c0-0.1,0-0.1,0-0.2c0.2-6-8.6-12.6-16.1-14.1c-8.3-1.6-14.2-0.5-18,3.5
			c-0.2,0.2-0.6,0.4-0.9,0.3c-0.3-0.1-0.6-0.2-0.8-0.5c-4.5-8.1-22.4-10.3-32-6c-5.3,2.4-10.3,4.9-12.6,9.7
			c-1.5,2.9-2.2,6.1-2.1,9.3c0,0.4-0.3,0.7-0.6,0.9c-0.4,0.2-0.8,0.1-1.1-0.1c-3.5-2.8-11-3.8-16-2s-5.2,4.8-5.5,9.1
			c0,0.3-0.2,0.6-0.4,0.7c-0.2,0.2-0.6,0.2-0.9,0.1c-3.2-0.9-6.5-0.9-9.7-0.2c-3.2,0.9-4.8,3-4.4,4.5c0.1,0.3,0,0.6-0.2,0.8
			s-0.5,0.3-0.8,0.3c-2.7,0.1-5.3,1-7.3,2.6c-0.4,0.5-0.4,0.8-0.3,0.9c0.4,1.5,3.8,2.1,10.2,2c2.7-0.2,5.3-0.6,7.9-1.1
			c0.2-0.1,0.4-0.1,0.7,0c1.2,0.4,2.4,0.6,3.7,0.6c3.5,0,5.9-1.1,6.8-3.1C1364.6,193.8,1364.9,193.6,1365.4,193.7L1365.4,193.7z"/>
	</g>
	<g id="freepik--cloud--inject-336_00000018204300582966839580000000109282023641782919_">
		<path id="elnrtlh1bglqd" class="st1" d="M860.5,116.7c-2.5-0.8-5.1-1.2-7.7-1.2c-2.5-0.1-3.3-0.6-3.8-1.1
			c-5-6.4-14.3-8.7-22.2-5.6c-2.4-6.3-9.7-9.9-16.8-8.2c0-7.1-9.9-14.6-18.8-16.2c-8.6-1.5-16-0.7-20.7,4.6
			c-5.4-9.2-25.9-11.5-36.8-6.4c-6.3,2.9-11.6,6-14.1,11.4c-1.7,3.3-2.4,7-2.2,10.7c-4.4-3.4-13-4.3-18.7-2.1
			c-6.2,2.3-6.5,6.6-6.8,11c-3.7-0.9-7.6-0.9-11.3,0c-3.9,1.1-6,4-5.5,6.2c-3.1,0-10.4,2.3-9.5,5.3c1,3.4,9.4,2.9,12.5,2.7
			c3-0.3,5.9-0.8,8.8-1.4c1.5,0.5,3.1,0.7,4.6,0.7c5.4-0.1,7.6-2.3,8.4-4.1c2.7,5,12.1,8.7,18.7,10.1c12.4,2.7,29.9,0.6,37.3-8
			c0.9,1.6,2.2,3,3.8,4.1c3.3,2.4,7.4,3.8,11.6,4.1c5.1,0.3,18.7,0.7,22.4-6.8c2.8,4.9,15,6.9,24.2,5.5c3.6-0.6,7-1.6,10.3-3.1
			c2-1,4-2.2,5.9-3.4c1.5-1,3.4-1.1,5.1-0.4c6.6,2,13.7,1.9,20.2-0.4C864.4,122.6,865.4,118.6,860.5,116.7z"/>
		<path id="el29ijwt6qr3o" class="st0" d="M729.3,135.1c-3.7,0-7.3-0.4-10.9-1.1c-5.3-1.1-14.6-4.3-18.5-9.2
			c-2.1,2.3-5.2,3.5-8.4,3.3c-1.6,0-3.1-0.2-4.6-0.7c-2.8,0.7-5.7,1.1-8.6,1.4c-3.8,0.2-12.3,0.7-13.5-3.3c-0.3-1,0-2,0.7-2.8
			c2.3-2.1,5.4-3.4,8.7-3.7c0.5-3.1,3-5.6,6.3-6.2c3.5-0.9,7.1-1,10.6-0.3c0.2-3.9,1-8.4,7.3-10.7c5.9-2,12.5-1.6,18.1,1.2
			c0-3.2,0.8-6.4,2.3-9.3c2.7-5.8,8.7-9,14.6-11.8c11-5.2,30.8-3.2,37.4,5.7c4.6-4.3,11.4-5.6,20.8-4c8.7,1.6,18.8,8.7,19.6,16
			c6.9-1.1,13.7,2.3,16.5,8.2c8.1-2.8,17.3-0.2,22.3,6.3c0.1,0.1,0.6,0.6,3.1,0.7h0.7c2.5,0,5,0.4,7.3,1.2c3.3,1.3,3.8,3.2,3.8,4.3
			c-0.4,2.5-2.3,4.6-5,5.4c-6.7,2.4-14.1,2.5-20.9,0.4c-2.3-0.6-2.8-0.5-4.3,0.3l-1.9,1.2c-1.3,0.8-2.6,1.5-4,2.1
			c-3.3,1.5-6.9,2.6-10.5,3.2c-8.7,1.3-20.1-0.4-24.3-4.8c-4.4,6.2-15.9,6.4-22.6,6c-4.4-0.3-8.6-1.8-12.1-4.3
			c-1.3-0.9-2.4-2-3.3-3.2C750,132.4,739.4,135.1,729.3,135.1z M700,122.1c0.4,0,0.7,0.2,0.9,0.5c2.3,4.5,11,8.1,18,9.6
			c12.3,2.7,29.3,0.5,36.3-7.7c0.2-0.2,0.5-0.4,0.9-0.3c0.3,0,0.6,0.2,0.8,0.5c0.9,1.4,2.1,2.7,3.5,3.7c3.2,2.2,7,3.6,11,3.9
			c6.7,0.4,18.3,0.2,21.5-6.3c0.2-0.3,0.5-0.5,0.9-0.5c0.4,0,0.7,0.2,0.9,0.5c2.6,4.5,14.4,6.4,23.2,5.1c3.5-0.6,6.8-1.6,10-3
			c1.3-0.6,2.6-1.3,3.8-2.1c0.6-0.4,1.3-0.8,2-1.2c1.7-1.1,3.9-1.3,5.8-0.5c5.2,1.3,12.8,2.4,19.5-0.3c2.3-1,3.8-2.4,3.8-3.8
			s-0.9-2-2.6-2.6l0,0c-2.1-0.7-4.4-1.1-6.7-1h-0.7c-1.6,0.1-3.2-0.4-4.5-1.3c-4.8-6.2-13.5-8.4-21.1-5.4c-0.3,0.1-0.5,0.1-0.8,0
			s-0.4-0.3-0.5-0.6c-2.2-5.9-9-9.2-15.6-7.7c-0.5,0.1-1-0.2-1.2-0.7c0-0.1,0-0.1,0-0.2c0.1-6.7-9.8-13.8-18.1-15.3
			c-9.3-1.6-15.7-0.2-19.8,4.3c-0.2,0.2-0.5,0.4-0.9,0.3c-0.3,0-0.6-0.2-0.7-0.5c-5.2-8.8-25-10.9-35.5-6
			c-5.8,2.7-11.2,5.6-13.7,10.9c-1.6,3.2-2.3,6.8-2.1,10.3c0,0.5-0.5,0.9-1,0.9c-0.2,0-0.4-0.1-0.6-0.2c-3.9-3.1-12.2-4-17.7-1.9
			s-5.9,5.5-6.1,10.2c0,0.3-0.2,0.5-0.4,0.7c-0.2,0.2-0.5,0.2-0.8,0.2c-3.5-0.9-7.2-0.9-10.8,0c-3.5,1-5.3,3.5-4.8,5.2
			c0.1,0.5-0.2,1-0.7,1.1c-0.1,0-0.2,0-0.3,0c-3,0.1-5.9,1.2-8.1,3c-0.3,0.3-0.5,0.8-0.4,1.2c0.5,1.7,4.4,2.4,11.4,2.1
			c3-0.3,5.9-0.7,8.7-1.4c0.2-0.1,0.4-0.1,0.6,0c1.3,0.4,2.7,0.6,4.2,0.6c5.2-0.1,7-2.3,7.5-3.6C699.2,122.3,699.6,122.1,700,122.1
			L700,122.1z"/>
	</g>
</g>
<g id="freepik--money-symbol--inject-336">
	<g id="freepik--shadow--inject-336_00000028306554199250374020000006618365601568606883_">
		<g id="elnzwmkd8tw0d">
			<ellipse class="st3" cx="981" cy="890.7" rx="156" ry="82.8"/>
		</g>
		<g id="elbw5275mmuk">
			<g class="st4">
				<path id="ela17bq58ws0u" class="st5" d="M981,991.3c-45.9,0-91.9-9.7-126.9-29.2c-34.1-19-52.9-44.3-52.9-71.3
					s18.8-52.3,52.9-71.3c69.9-39,183.8-39,253.7,0l0,0c34.1,19,52.9,44.3,52.9,71.3s-18.8,52.3-52.9,71.3
					C1072.8,981.5,1026.9,991.3,981,991.3z M981,792.4c-45.5,0-91,9.6-125.6,28.9c-33.3,18.6-51.7,43.2-51.7,69.4
					c0,26.2,18.3,50.8,51.7,69.4c69.3,38.6,181.9,38.6,251.2,0c33.3-18.6,51.7-43.2,51.7-69.4s-18.4-50.8-51.7-69.4
					C1071.9,802.1,1026.4,792.4,981,792.4L981,792.4z"/>
			</g>
		</g>
	</g>
	<g id="freepik--money-sign--inject-336">
		<polygon id="elt5j8i8f7s6" class="st5" points="1048.9,639.2 1011.7,619.4 1083.8,562.8 1121,582.6 		"/>
		<path id="elwnzdn4sa9d" class="st5" d="M1071.8,652.3c-19.1-12.4-52.2-3-80.2,5.1c-6.8,2.1-12.8,3.9-18.3,5.5
			c-1.8,3.8-2.7,7.8-2.8,11.9c0,20,18.4,14.5,58.4,2.4c13.5-4.3,27.3-7.6,41.3-10c1.2,10.2,8.9,19.4,38.8,4.9L1071.8,652.3z"/>
		<polygon id="eldv9mg3zzc0n" class="st5" points="979.5,912.2 942.2,892.4 942.2,851.9 979.5,871.8 		"/>
		<path id="elduwbmukfnr" class="st5" d="M1042.6,758.6c0,16.1-13.2,30.4-32.6,40.8c-31.1,16.6-43.2,3.1-45.8-10.1l-6.6-3.5
			c5.3-1.5,10.3-3.6,15.1-6.2c14.7-7.9,25.8-18.1,30.3-29.5C1026.1,743.2,1042.6,740.5,1042.6,758.6z"/>
		<path id="elr2dv1bh5fea" class="st5" d="M904,857.8c-4.1-2.2-8.8-3.3-13.6-3c-0.7-2-1.4-4.1-2-6.4l-37.3-19.8
			c3.7,14.9,11.1,24.2,20.9,29.3l0,0l37.1,19.8C909.1,877.6,915.5,864.7,904,857.8z"/>
		<path id="elrz3i6ilgdsk" class="st5" d="M1029,677.2c-40,12.1-58.4,17.5-58.4-2.4c0-4.1,1-8.2,2.8-11.9c-27.3,7.8-40,8.7-40-7.8
			c0-12.2,9-27.2,33.6-40.5c26.4-14.1,41.1-10.8,44.8,4.8l72.1-56.5c-0.3-0.8-0.7-1.6-1-2.5c4.5-0.9,8.8-2.4,12.8-4.5l-29.7-16.2
			c-0.9-0.5-1.9-1.1-2.8-1.6l-0.4-0.2l0,0c-8.8-3.9-18.6-5.4-28.3-4.3c-12.9,1.3-25.5,4.5-37.3,9.4v-0.7l37.4-19.8L997,502.5l0,0
			L971.7,516l-34.2,18.3l0,0v40.5c-50.5,33.8-82.1,78-82.1,125.8c0,21.8,6.4,34.1,16.7,40.4l0,0l0.5,0.3c0.9,0.5,1.8,1,2.7,1.4
			l31.2,16.2c0.9-4.4,0.2-8.9-1.9-12.9c9.9-1.2,19.7-3.2,29.2-5.9c37.9-10.5,71.6-27.1,71.6-1.3c0,3.9-0.8,7.7-2.3,11.3
			c23-6.9,39.6-9.6,39.6,8.5c0,16.1-13.2,30.4-32.6,40.8c-31.1,16.6-43.1,3.1-45.8-10.1l0,0l-6.6-3.5L927,769.6l-75.8,58.9
			l37.3,19.8c1.2,5.1,3.1,10,5.7,14.6c14.6,0.2,31.3-4.3,48.1-10.9v16.4l59-7.3v-40.5c51-34.6,86.3-81.2,86.3-130
			c0.3-8.3-1.2-16.6-4.2-24.4C1066.3,666.4,1046.6,672.1,1029,677.2z"/>
		<g id="el2fl891a6fbf">
			<path class="st6" d="M1029,677.2c-40,12.1-58.4,17.5-58.4-2.4c0-4.1,1-8.2,2.8-11.9c-27.3,7.8-40,8.7-40-7.8
				c0-12.2,9-27.2,33.6-40.5c26.4-14.1,41.1-10.8,44.8,4.8l72.1-56.5c-0.3-0.8-0.7-1.6-1-2.5c4.5-0.9,8.8-2.4,12.8-4.5l-29.7-16.2
				c-0.9-0.5-1.9-1.1-2.8-1.6l-0.4-0.2l0,0c-8.8-3.9-18.6-5.4-28.3-4.3c-12.9,1.3-25.5,4.5-37.3,9.4v-0.7l37.4-19.8L997,502.5l0,0
				L971.7,516l-34.2,18.3l0,0v40.5c-50.5,33.8-82.1,78-82.1,125.8c0,21.8,6.4,34.1,16.7,40.4l0,0l0.5,0.3c0.9,0.5,1.8,1,2.7,1.4
				l31.2,16.2c0.9-4.4,0.2-8.9-1.9-12.9c9.9-1.2,19.7-3.2,29.2-5.9c37.9-10.5,71.6-27.1,71.6-1.3c0,3.9-0.8,7.7-2.3,11.3
				c23-6.9,39.6-9.6,39.6,8.5c0,16.1-13.2,30.4-32.6,40.8c-31.1,16.6-43.1,3.1-45.8-10.1l0,0l-6.6-3.5L927,769.6l-75.8,58.9
				l37.3,19.8c1.2,5.1,3.1,10,5.7,14.6c14.6,0.2,31.3-4.3,48.1-10.9v16.4l59-7.3v-40.5c51-34.6,86.3-81.2,86.3-130
				c0.3-8.3-1.2-16.6-4.2-24.4C1066.3,666.4,1046.6,672.1,1029,677.2z"/>
		</g>
		<path id="eleiyyx4rs6cg" class="st5" d="M1083.2,666.1c-16.9,0.3-36.6,6-54.2,11.2c-40,12.1-58.4,17.5-58.4-2.4
			c0-4.1,1-8.2,2.8-11.9c4.3-9.3,13.8-19.3,30.9-28.5c26.3-14,41-10.7,44.7,4.8l72.1-56.6c-7-19.2-20.9-29.1-41.7-29.5
			c-12.5-0.3-27.6,2.9-45,9.7v-40.5L997,542.2l-22.2,11.9v40.5c-50.5,33.9-82.1,78-82.1,125.8c-0.3,8.9,1.2,17.7,4.5,26
			c11.2,25.6,41.7,22.1,73.9,13.4c11.3-3.1,22.3-6.8,32-9.7c23-6.9,39.6-9.6,39.6,8.5c0,16.1-13.2,30.4-32.6,40.8
			c-31.1,16.6-43.2,3.1-45.8-10.1l-75.8,59c1.2,5.1,3.1,10,5.7,14.6c9.9,17.1,27.5,21.7,48.1,19.2c12.9-1.9,25.4-5.3,37.3-10.3v40.5
			l58.9-31.3v-40.8c51-34.6,86.3-81.2,86.3-129.9C1124.8,675.2,1106.6,665.6,1083.2,666.1z"/>
		<g id="elxyuw8eah1l">
			<g class="st7">
				<path id="el3q8xqsbl904" class="st1" d="M1083.2,666.1c-16.9,0.3-36.6,6-54.2,11.2c-40,12.1-58.4,17.5-58.4-2.4
					c0-4.1,1-8.2,2.8-11.9c4.3-9.3,13.8-19.3,30.9-28.5c26.3-14,41-10.7,44.7,4.8l72.1-56.6c-7-19.2-20.9-29.1-41.7-29.5
					c-12.5-0.3-27.6,2.9-45,9.7v-40.5L997,542.2l-22.2,11.9v40.5c-50.5,33.9-82.1,78-82.1,125.8c-0.3,8.9,1.2,17.7,4.5,26
					c11.2,25.6,41.7,22.1,73.9,13.4c11.3-3.1,22.3-6.8,32-9.7c23-6.9,39.6-9.6,39.6,8.5c0,16.1-13.2,30.4-32.6,40.8
					c-31.1,16.6-43.2,3.1-45.8-10.1l-75.8,59c1.2,5.1,3.1,10,5.7,14.6c9.9,17.1,27.5,21.7,48.1,19.2c12.9-1.9,25.4-5.3,37.3-10.3
					v40.5l58.9-31.3v-40.8c51-34.6,86.3-81.2,86.3-129.9C1124.8,675.2,1106.6,665.6,1083.2,666.1z"/>
			</g>
		</g>
		<g id="elgwt183dda1">
			<g class="st8">
				<path id="el4mu6iv85ne9" class="st1" d="M1038.4,840.2c7.9-6,15.8-11.9,23.1-18.5c3.8-3.1,7.2-6.6,10.8-9.9
					c1.7-1.7,3.4-3.5,5.1-5.2c1.7-1.8,3.4-3.5,4.9-5.3c6.5-7.2,12.4-14.7,17.8-22.6c5.3-7.9,9.8-16.2,13.5-24.9
					c3.7-8.6,6.4-17.6,8.1-26.7l0.9-6.9c0.3-2.3,0.3-4.6,0.4-7c0-1.2,0.2-2.3,0.1-3.5v-3.5c0-2.3-0.3-4.6-0.5-6.9
					c-0.5-4.6-1.6-9.1-3.4-13.4c-1.7-4.3-4.5-8.2-8.1-11.3c-3.7-3.2-8.1-5.5-12.9-6.7c-4.9-1.2-10-1.9-15.1-1.9
					c5.1-0.3,10.3,0,15.3,1.1c5.1,1.1,9.9,3.3,13.9,6.4c3.9,3.2,7,7.2,9,11.7c2,4.4,3.3,9.1,4,13.9c0.3,2.4,0.7,4.7,0.7,7.1
					c0.1,2.4,0.1,4.8,0,7.1s0,4.8-0.4,7.1l-0.9,7.1c-1.6,9.4-4.3,18.6-7.9,27.5c-3.9,8.8-8.6,17.2-14.1,25.2
					c-1.3,2.1-2.8,3.9-4.3,5.9c-1.4,2-2.9,3.9-4.5,5.8l-4.6,5.7l-5,5.3C1070.9,817.1,1055.4,829.7,1038.4,840.2z"/>
			</g>
		</g>
		<g id="elqulc2qcawi">
			<g class="st8">
				<path id="elvqhnb5yo8c" class="st1" d="M974.8,594.6l-9.3,7.1c-3,2.5-6.1,4.9-9,7.4c-5.9,5-11.6,10.2-17,15.8
					c-10.8,11-20.1,23-27.8,36c-7.6,13-13,27-15.9,41.5c-0.3,1.8-0.6,3.7-0.8,5.5c-0.3,1.8-0.5,3.7-0.7,5.5
					c-0.2,3.7-0.6,7.4-0.4,11.1c-0.1,7.4,1.1,14.8,3.5,21.9c-3.2-6.9-5.1-14.3-5.5-21.9c-0.3-3.8,0-7.5,0-11.3
					c0-1.9,0.2-3.8,0.4-5.6c0.2-1.9,0.3-3.8,0.6-5.6c2.4-14.9,7.7-29.4,15.5-42.6c7.9-13.2,17.7-25.3,29.1-36.1
					c5.7-5.4,11.6-10.5,17.9-15.3c3.1-2.4,6.4-4.6,9.6-6.9S971.4,596.7,974.8,594.6z"/>
			</g>
		</g>
		<polygon id="elcfxyz6yz9m" class="st5" points="974.7,594.6 937.4,574.8 937.4,534.3 974.7,554.2 		"/>
	</g>
</g>
<g id="freepik--character-2--inject-336">
	<g id="freepik--Character--inject-336">
		<path id="el2001l8jym7eh" class="st9" d="M1451.9,569.1c19.2,2.9,49.9,1.8,83.7,7.4c11.1,1.8,23.4,13,28.1,19.2
			c4.6,6.2,8.1,13,10.3,20.2c0,0,7.9,12.4,10.6,11s11.8-11.9,15.5-22.4c3.7-10.5-1.2-18.2-13.6-30.5s-28.7-28.3-28.7-28.3
			c-1.8,0.7-3.7,1.1-5.7,1.2c-6.2,0.4-7.1,0.3-24.7-5.4c-24.6-8-34-12.3-43.2-12.3c0,0,42.1-26.5,55.7-34.9
			c17.1-10.7,41-27.9,39.6-48.8l-100.9,1.6c0,0-19.8,25.9-38.6,50.3c-20.6,26.8-31.4,41.1-21.7,57.1
			C1423,562.3,1435.2,566.6,1451.9,569.1z"/>
		<path id="eltkle1touz9a" class="st10" d="M1580.8,442.9c0.5,12.5,3.6,17.9-18.6,38s-74.3,47.5-74.3,47.5s3.1-0.9,18.2,4.4
			c15.1,5.3,23.2,7.5,23.2,7.5s2.2,16.8-1.6,23.2c-2.5,4.1-5.6,7.9-9.3,11.2c0,0-56.8-1.8-70.2-4.3s-30.2-7.8-34.1-18.2
			c-3.9-10.5-0.5-21.8,8.2-37.2c15.9-28.1,56.8-70.6,56.8-70.6L1580.8,442.9z"/>
		<path id="el1js9b6sc7cf" class="st11" d="M1495.6,529.5c-6.3-1.6-7.9-1.2-7.9-1.2c-11.5,6.1-19.6,9.6-19.6,9.6
			C1477.9,537.3,1487.4,534.4,1495.6,529.5z"/>
		<path id="el6ldrkydmute" class="st5" d="M1579.4,548.9c3.2,2.5,5.4,7.6,10.1,11.9c5.4,4.9,11.3,9.3,17.6,13.2l8.8,5.4l-1.6,2.1
			l-16-9.9c-4.9-3-13.8-6.1-15.9-4.3C1582.5,567.4,1571.7,559.5,1579.4,548.9z"/>
		<g id="eligr2m7rjou8">
			<path class="st12" d="M1579.4,548.9c3.2,2.5,5.4,7.6,10.1,11.9c5.4,4.9,11.3,9.3,17.6,13.2l8.8,5.4l-1.6,2.1l-16-9.9
				c-4.9-3-13.8-6.1-15.9-4.3C1582.5,567.4,1571.7,559.5,1579.4,548.9z"/>
		</g>
		<path id="elsyw0hycwg2r" class="st5" d="M1552.4,546.4c7.4-1.4,11.2-4.5,18.7-2.4c3.7,1.3,7,3.4,9.6,6.2c0.8,2.4,1.1,4.9,0.9,7.4
			c-0.1,5.1-0.8,6.2,2.1,10.5c3,4.3,3.6,5.4,11.1,11.1c6.3,4.3,9.9,11.1,9.6,18.3c-0.2,8.8-2.3,17.4-6.1,25.4
			c-5.3,12.6-16.3,16.7-19,9.8c-3.7-9.7-4.2-13.2-5.4-17.1c0,0,0.2-4,5.6-9c7.3-6.7,9.4-8.1,9.5-12.2c0.1-5.2-2.9-11.9-17.7-25.9
			C1554.9,553,1552.4,546.4,1552.4,546.4z"/>
		<path id="el7enggtslgke" class="st9" d="M1617.8,612.2c-12.8-17.2-26.8-33.7-41.7-49.3c-8.9-9.6-12.5-13.4-22.2-35.7
			c-12.5-28.5-24-57.6-24-57.6c-9.7-3.2-19.2-6.8-28.5-10.9c-17.8-7.9-31.6-29.9-35.2-37c0,0,14.3,5.3,39.2-11.6
			c25.5-17.3,26.6-24.8,26.6-24.8c9.2,2.8,18.2,6.2,26.8,10.1c7,3,21.9,8,30.6,25c3.5,6.8,7.3,14.3,10.4,38.9
			c4,32,6.5,48.9,9.1,66.9c14.4,11.7,21.8,20.8,26.9,37.4c4.2,13.3,9.6,26.4,16.1,38.9c1.4,3.1,3.8,5.6,7,7.2c0,0,4.2,20.7,7.8,37.9
			c3.5,17.2,6.3,26.3-3.3,33.7c-9.6,7.4-35.6,14.6-38.8,14.5s3.3-16.3,3.3-16.3c2.4-7.5,3.4-15.3,3.1-23.1
			C1630.4,648.5,1633.2,633.4,1617.8,612.2z"/>
		<path id="el5koox5k24e" class="st13" d="M1533.5,384.2c16.9,5.3,36.3,10.9,49.7,23.5c13.4,12.5,15.8,25.6,18.4,45.4
			c2.6,19.8,8.5,71.5,8.5,71.5c5.9,4.8,11.3,10.1,16,16c6.5,8.5,15.1,39.2,15.1,39.2s-3.1,8.8-15.3,15.6s-17.5,5.4-17.5,5.4
			s-20-22.5-33.9-36.9s-15-19-22.4-34.9s-23.1-54.9-23.1-54.9s-31.1-11.1-40.4-19.6s-25.9-34.6-25.9-34.6L1533.5,384.2z"/>
		<path id="elc322shwzu49" class="st5" d="M1676.4,626c1,3.9-0.4,9.5,0.8,15.8c1.3,7.2,3.4,14.2,6.2,21.1l3.9,9.5l-2.8,1l-7.1-17.3
			c-2.2-5.3-5-8.8-8-8.5C1669.4,647.5,1662.7,630.7,1676.4,626z"/>
		<g id="ellv6u1frkhnd">
			<path class="st12" d="M1676.4,626c1,3.9-0.4,9.5,0.8,15.8c1.3,7.2,3.4,14.2,6.2,21.1l3.9,9.5l-2.8,1l-7.1-17.3
				c-2.2-5.3-5-8.8-8-8.5C1669.4,647.5,1662.7,630.7,1676.4,626z"/>
		</g>
		<path id="elqf16n5w2kjd" class="st5" d="M1656.9,607.8c3.6,3.8,11.5,5.3,16.4,11.3c2,2.5,3.2,5.6,3.2,8.7
			c-1.4,2.9-2.5,4.3-3.6,6.2c-2.1,3.2-3.3,6.9-3.5,10.7c-0.1,7.8,0.4,15.5,1.4,23.2c0.9,7.6,1.9,12.1-3.3,17.7
			c-4.1,4.4-18.9,11.5-30,13.5c-19.3,3.6-25.5,0-20.5-6.2s10.1-13.6,11.3-15.2c4.4-0.5,8.9-0.7,13.3-0.4c9.3,0.5,13.7,4,20.6-2.7
			c6.3-6.1,5.9-21.3-2.2-39.9C1651,613.5,1656.9,607.8,1656.9,607.8z"/>
		<g id="freepik--Top--inject-336">
			<path id="elcdx1pe0sqrp" class="st14" d="M1249.4,395.5c-2.6,0.5-1.9,2.8,0.3,3.7c5.3,2.1,11.6-0.9,15.5-0.7
				c0.9,0.1,13.2,3.6,14.5,5.7c-2.9,0-12.1-0.4-15-0.2c-0.8,0-3.1,0.6-9.8,2.3c-1.2,0.2-2.4,0.6-3.4,1.1c-0.7,0.5-0.7,2.3,1.5,3.2
				c3.8,1.5,8.2-0.5,12.3-0.8c2-0.2,8.3-0.4,11.5,2.1c-5.8,0.9-9,2.5-16.6,6.6c-0.9,0.5-0.8,1-0.5,1.5c0.7,0.9,1.7,1.4,2.9,1.4
				c2.8,0,5.7-1.7,9.3-2.8c3.9-0.9,7.9-1,11.9-0.2c1.4,0.2,2.8,0.8,4.1,1.5c1.5,1,2.8,2.3,4.2,3.4c5.9,4.4,14,5.1,20.6,1.7
				c0.4-0.2,0.8-0.5,1.1-0.9c0.3-0.8,0.1-1.6-0.4-2.2c-3.9-6.8-10.8-11.6-16.9-16.9c-2-1.8-17.2-14.6-17.9-14.9
				c-0.3-0.1-20.6,3.3-21.2,3.5C1255.5,394.2,1252,395,1249.4,395.5z"/>
			<path id="elv8o0t16s109" class="st9" d="M1409.1,363c-4.1,5.1-36.7,45-36.7,45s-37.3-0.2-46.6-1c-12.8-1.1-19.3-6.4-25-10.9
				c-8.3-6.6-9.9-6.4-15.5-7.1c-3.5-0.5-11.8-2.4-12.1-2.4c-1.2-0.1-2.5,0-3.6,0.3c-0.7,0-3.3,0.6-4,0.8c-3.7,0.7-5.9,1.4-9.7,2.1
				c-1.1,0.2-2.3,0.5-3.3,0.9c-0.2,0.1-0.4,0.2-0.6,0.4c-0.2,0.4-0.1,0.9,0.3,1.2c1.5,1.6,3.7,2.6,6,2.7c2.3,0.1,4.7-0.1,7-0.5
				c1.4-0.2,2.2-0.4,5-0.8c1.1-0.1,2.3,0.1,3.3,0.5c5.2,1.6,10.3,3.8,15,6.4c-4.8,0.9-9.8,0.6-14.4-0.9c-4.3-1.4-5.2,3.2-0.3,6.4
				c5.7,3.6,10.8,2.3,18.3,7.2c7.4,5,4.9,14,17.1,15.4c6.7,0.3,13.4,1,20,2.1c9.8,1.9,41.3,10.5,48.7,11.4
				c15.9,1.9,16.3,1.3,36.6-21.5c28.6-32.2,33.1-38.7,33.1-38.7l-11.8-45.4C1426.3,342.8,1423.2,345.9,1409.1,363z"/>
			<path id="el70umqqtg9tj" class="st13" d="M1425.1,344c-7,6.3-13.3,13.2-18.9,20.6c-16.4,20-34,42.6-34,42.6l-24.7,0.3
				c3.1,4,4.7,8.8,4.5,13.7c-0.2,5.5-3.4,10.6-8.6,13.5c0,0,12,3.1,26.2,6.4s19.3,2.9,22.9,1.9c3.6-1,6.6-4.9,13.1-11.7
				c6.5-6.8,34.1-39.8,34.1-39.8L1425.1,344z"/>
			<path id="eloac9au543i" class="st14" d="M1288.4,400.4c2.9-0.1,5.8,0.1,8.7,0.6c1.1,0.3-0.3-1.8-4.8-2.7
				c-4.5-0.9-7.2,0.6-8.5-0.1L1288.4,400.4z"/>
			<path id="ela642ivj2u05" class="st11" d="M1485.6,248.1c4.5,2.4,7.4,6.1,13.1,9.5c4.6,2.9,10.4,3.5,15.5,1.5
				c5.4-2,9.4-6.3,10.7-11.5c2.9,6.7,1.1,11.7-3,15.3c6.9-2.8,11.9-8.4,13.6-15.2c0.7-2.7,0.9-5.5,1.4-8.2
				c1.8-9.6,5.7-13.6,16.7-15.4c-6.2,2.9-8.3,7.6-8.1,13.9s2.7,14.7,1.6,21c-1,5.6-4,10.8-8.6,14.7c-4.9,4.4-11.1,7.5-17.7,9
				c5.3,1.3,10.6-0.3,15.6-2.3c-3.4,6.5-15.3,11.1-24.6,10.9c-11.1-0.3-20.2-8.1-26.9-16.2c-2.3-3.2-5-6.1-7.9-8.9
				c-2.9-2.8-6.9-4.4-11.1-4.8c-5-0.1-7,2.5-9.9,5.3c-3-1.5-7.3-3.5-7.4-6.1c-0.2-4.5,5.9-11.2,9.5-13
				C1466.7,243.3,1477.2,243.5,1485.6,248.1z"/>
			<path id="elmgxbixasalo" class="st5" d="M1451.9,249.9c1.2-1.7,8.4-2.3,13.8,1.4c5.4,3.7,9.5,9.9,5.3,14.5
				S1444,256.2,1451.9,249.9z"/>
			<path id="elfhgo7d6f3w" class="st10" d="M1474.6,312.8c5.3-0.8,10.5-2.3,15.4-4.5c4.9,3.3,23.2,14.1,29.3,27.1
				c6.1,12.9,13.3,41.8,17.9,45.9s25.1,11.1,41.6,20.9c0,0-2.2,13.6-8.9,18.3c0,0-11-7.5-18.1-12.6c8.6,12.1,12.9,17.4,12.9,17.4
				s4.6,25.5-50.2,35.5c-15.7,2.7-31.8,1.1-46.5-4.5c0,0,5.5-21-5.5-31.8c-8.3-5-21.8-18.8-21.8-18.8s-17.2-7.8-19.8-20.5
				c-3.5-17.1,2.6-35,4.1-41c2.3-3,13.1-12.8,13.1-12.8L1474.6,312.8z"/>
			<path id="el8xud0bc3r8u" class="st5" d="M1468.6,315.5c1.9,6.7,0,9.4-3.5,20.4c-3.5,11-16.2,42.2-13.7,52.1
				c-5.5-7.1-12.8-16.6-15.4-26.6s-3.5-24.4,1.8-34.3l28.6-14.1L1468.6,315.5z"/>
			<g id="freepik--Head--inject-336">
				<g id="freepik--head--inject-336">
					<path id="el7uakpsvqjvw" class="st11" d="M1397.8,284c-13.5-16.7,1.5-38.4,33.8-39.9c9-0.4,28,2.1,29.8,13.9
						c11.9,2.9,16.8,16.1,10.3,31.9c-4.6,11.5-8.6,19.2-9.7,23.2L1397.8,284z"/>
					<path id="el402972a73dt" class="st9" d="M1466.4,285c-7.7-2.7-11.2,4.7-11.2,4.7c-4.8,3-8.1-5.9-9.3-8.5
						c-2.1-4.7-4.2-11.4-10.1-13.1c-4.3-1.3-9.1,0.4-12.9,2.7c-2.3,1.4-5.1,1.9-7.8,1.3c-2.3-0.5-3.3-3.8-5.5-4.8
						c-6.3-2.8-10.6,6.7-11.2,11.2c-0.8,6-1,12-0.5,18.1c1.5,20.2,10,29,13.7,30.8c5.9,2.8,9.8,2.4,17.2,1.6l7.9,10.2
						c1.8,8.9,5.3,17.4,10.4,25.1c4.5-13,17.6-28.9,21.1-45.5l-9.7-13.2c3.4,2.4,8.5,0.5,10.7-2.7
						C1473.9,296.4,1473.8,287.6,1466.4,285z"/>
					<path id="elad0w4yasxhb" class="st15" d="M1428.6,308.4l-10.1,3.4c0.9,2.6,3.8,4,6.6,3.2c0.1,0,0.1,0,0.1,0
						C1428.2,313.9,1429.6,311,1428.6,308.4z"/>
					<path id="el8q3lev4n43q" class="st16" d="M1428.1,310.6c-2.8,0-5.2,1.9-5.7,4.4c1,0.2,2,0.2,3-0.1c2-0.7,3.4-2.3,3.6-4.3
						C1428.6,310.7,1428.4,310.6,1428.1,310.6z"/>
					<path id="el55w0l1prq6u" class="st14" d="M1428.9,328.9c7-1.3,24.9-8.4,27.3-23.5c0.4,6.9-2.3,13.6-7.7,18.5
						c-4.9,4-10.7,6.8-17.1,8.2L1428.9,328.9z"/>
				</g>
				<path id="elyhf3lsbcism" class="st11" d="M1402.2,281.6l7.2-2.4c-0.6-1.8-2.7-2.8-4.7-2.2c0,0-0.1,0-0.1,0
					C1402.6,277.8,1401.6,279.8,1402.2,281.6z"/>
				<path id="el6um6ntv63pd" class="st11" d="M1436.5,282l-7.3-2c0.4-1.8,2.4-2.9,4.4-2.5c0.1,0,0.2,0,0.3,0.1
					C1435.8,278.1,1437,280.1,1436.5,282z"/>
				<path id="el29fpekbu39" class="st11" d="M1403.2,291.5c0,1.6,1.4,2.9,3.1,2.8c1.7,0,3.1-1.3,3.1-2.9c0-1.5-1.3-2.8-3-2.8
					C1404.6,288.6,1403.2,289.9,1403.2,291.5L1403.2,291.5z"/>
				<path id="elzq8hwgmjmwk" class="st11" d="M1426.7,292.1c-0.1,1.6,1.2,3,2.9,3c0,0,0,0,0.1,0c1.8,0,3.2-1.3,3.2-2.9
					c0.2-1.6-1-3-2.7-3.2c-1.7-0.2-3.2,1-3.4,2.5C1426.7,291.8,1426.7,292,1426.7,292.1L1426.7,292.1z"/>
				<path id="elehnd0kwnnd4" class="st10" d="M1389.3,285.3c0.2,1.1,0.8,2.1,1.7,2.9c0.3,0.3,0.5,0.7,0.7,1c0.6,2.7,1.5,5.4,2.5,7.9
					c1.7,3.5,5.5,5.8,9.7,5.7c1.1,0,2.1,0,3.2-0.2h0.2c0.9-0.2,1.7-0.5,2.5-0.9h0.2l0.2-0.1l0.3-0.2l0.3-0.2l0.3-0.2l0.3-0.2
					c0.2-0.1,0.3-0.3,0.5-0.5c0.8-0.9,1.5-1.9,1.9-3c1.2-2.8,0.5-6.6,2.7-7.1h0.3h0.3c3,0,2.9,4.3,4.8,7.3c2.2,3.8,6.7,6.1,11.4,5.9
					h0.8h0.7c0.5,0,1-0.1,1.6-0.2h0.5l0.5-0.1h0.3c0.6-0.2,1.2-0.4,1.7-0.8l0.6-0.4c0.3-0.2,0.7-0.5,1-0.8c0.8-0.8,1.4-1.8,1.8-2.8
					c0.7-2.6,1.1-5.2,1.2-7.9c0.1-0.4,0.2-0.8,0.4-1.1c0.7-0.8,1.2-1.8,1.3-2.8c0-1.1-0.8-2.1-2-2.5l-1.6-0.2
					c-5.2-0.8-10.6-0.8-15.8,0c-4.9,1.2-6.6,2.7-9.4,2.6c-2.8,0-4.4-1.6-9.3-3.1c-4.9-1-9.9-1.3-14.9-0.8c-0.5,0-1,0.1-1.5,0.1
					C1389.9,282.9,1389.1,284,1389.3,285.3z M1422.5,288.4c0.4-0.4,0.8-0.8,1.3-1l0.3-0.1h0.1l0.7-0.3l0.6-0.2
					c0.7-0.2,1.4-0.4,2.1-0.6l0.8-0.2c0.7-0.1,1.4-0.2,2.2-0.3h0.5c3.1-0.5,6.3,0.1,9.1,1.7c1.2,0.9,0.9,5,0.6,7.1v0.2
					c0,0,0,0,0,0.1l-0.1,0.8l-0.1,0.5l0,0c0,0.3-0.2,0.5-0.3,0.9l0,0c-0.1,0.1-0.1,0.2-0.1,0.3v0.2c0,0.1,0,0.1,0,0.2l-0.1,0.3
					l-0.1,0.3l-0.2,0.3c-0.1,0.1-0.1,0.2-0.2,0.3c-1.5,2-4.2,3.1-6.8,2.7c-2.7,0.1-5.4-0.8-7.3-2.5l0,0c-1.2-1.2-2.2-2.7-2.6-4.3
					C1422.2,292.4,1421.7,289.7,1422.5,288.4z M1393.9,286c0.3-0.3,0.7-0.5,1.1-0.7l0,0l0.5-0.2h0.3h0.3h0.2l0,0h0.3l1.1-0.1h0.6
					h2.1c0.8,0,1.6,0.1,2.3,0.2c3,0.3,5.9,1.4,8.2,3.3c1,2,1.2,4.2,0.7,6.4c-0.1,0.5-0.2,1-0.3,1.6v0.1c0,0.1,0,0.1,0,0.2
					c0,0,0,0.1,0,0.1v0.2l-0.2,0.4l-0.2,0.3v0.1l-0.1,0.2l-0.1,0.2l0,0c-1.5,2.2-4.2,3.4-7,3c-1.3,0-2.5-0.3-3.7-0.8
					c-2.7-1.5-4.5-4-5.2-6.8C1393.9,291.1,1392.9,287,1393.9,286z"/>
				<path id="el2yr7yhfvfr7" class="st10" d="M1443.5,284.5l14.8,1.7c-1.1,0.9-2,1.9-2.7,3.1l-12-1.4L1443.5,284.5z"/>
				<path id="elnnxe99mu5as" class="st14" d="M1417.9,290.5l-1.1,16.5l-10.7-2.9l10.7-13.9C1417.2,290.2,1417.6,290.4,1417.9,290.5z
					"/>
				<path id="elaxfdo6u6y8i" class="st17" d="M1459.2,301.8c0.1,1.4,1.3,2.5,2.9,2.5c1.6,0,2.8-1.2,2.7-2.7
					c-0.1-1.4-1.3-2.5-2.9-2.5c0,0,0,0,0,0C1460.4,299.2,1459.2,300.4,1459.2,301.8z"/>
			</g>
			<path id="elp9go1zr4j5s" class="st11" d="M1462.7,311.1l2,2.7c-0.7,9-2.4,18-5.2,26.6c-5.3,16.7-10.4,29.9-9.7,39.5
				c0.7,6.9,2.3,13.6,4.6,20.2c-1.9-10.4-0.3-21.1,4.8-30.6c5.1-9.8,16-20.5,16.5-25.5c0.5-5-7-7.7-7-7.7c3.9-3.4,7.3-7.3,10.1-11.6
				c3.2-5.5-0.4-12.8-0.4-12.8C1469.7,312.5,1465.3,309.9,1462.7,311.1z"/>
			<path id="el21flbs3497p" class="st11" d="M1436.8,339.1c-0.6,5.8-0.1,11.6,1.4,17.2c3.3,11.3,14.8,35.2,14.8,35.2
				s-11.3-14.5-16.5-20.5c-5.2-6-8.7-10.8-4.4-21.3c-3.6-2.3-3.4-2.5-3.7-9.2c-0.2-3.6,0.1-7.3,0.9-10.9L1436.8,339.1z"/>
			<g id="freepik--Briefcase--inject-336">
				<path id="elonfr7gkh7ve" class="st10" d="M1754.9,464.5l-55.2-71.4c-1.4-1.5-3.5-2.3-5.6-2.4h-3.2c-0.8-0.1-1.7,0.2-2.3,0.7l0,0
					l-76.9,79.9l66.5,74.6l76.8-79.9l0,0C1755.4,465.6,1755.3,464.9,1754.9,464.5z"/>
				<path id="elpo3terllt8l" class="st11" d="M1659.8,546.2l16.2,0.3c2.1,0,3-1,2.1-2.2L1623,473c-1.4-1.5-3.5-2.3-5.6-2.4h-3.2
					c-2.1,0-3.2,1-2.3,2.4l42.8,70.8C1655.9,545.2,1657.8,546.2,1659.8,546.2z"/>
				<path id="elbyier0x107t" class="st5" d="M1696.1,517.8c-0.6,0.2-1.2,0.1-1.7-0.3l-26.6-33.7c-0.3-0.4-0.1-0.9,0.3-1.1
					c0.1,0,0.2-0.1,0.2-0.1c0.6-0.3,1.3-0.2,1.7,0.3l26.6,33.7C1697.1,517,1696.7,517.5,1696.1,517.8L1696.1,517.8z"/>
				<path id="elag2fuapfcy" class="st5" d="M1731.3,481.9c-0.6,0.2-1.2,0.1-1.7-0.3l-26.6-33.7c-0.3-0.4,0-1,0.5-1.3
					c0.6-0.3,1.3-0.1,1.7,0.3l26.6,33.7c0.3,0.4,0.1,0.9-0.3,1.1C1731.5,481.8,1731.5,481.9,1731.3,481.9L1731.3,481.9z"/>
				<path id="elhkah45qms3u" class="st13" d="M1657.8,503.4c-2.9,3.1-9.3,3-11.6,0L1623,473c-1.4-1.5-3.5-2.3-5.6-2.4h-3.2
					c-0.8-0.1-1.7,0.1-2.3,0.6l76.7-79.7l0,0c0.6-0.6,1.5-0.8,2.3-0.7h3.2c2.2,0.1,4.2,0.9,5.6,2.4l23.1,30.1
					c3.3,4.3,2.7,10.2-1.4,13.9L1657.8,503.4z"/>
				<polygon id="elqf6do8e3uid" class="st5" points="1683.8,472 1692.9,462.5 1696.5,467 1687.4,476.5 				"/>
			</g>
			<path id="eluwrbrv5wm3" class="st10" d="M1662.5,418.7c-6.4-6.1-16.2-16-19-15.2l0.2-3.8c0,0,2.6-1.3,8.8,3.8
				c5.2,4.3,13.2,11.8,13.2,11.8L1662.5,418.7z"/>
			<path id="el7qyzul23lc" class="st14" d="M1634.6,429c-3.7,0.3-7.3-0.7-10.2-2.9c-1.7-2.4-2.4-5.3-2.1-8.1c0.7-1.9,4-10,6.2-10.2
				s8.7,8.4,8.6,12.7C1637.1,423.4,1636.2,426.4,1634.6,429z"/>
			<path id="elre8qusfmpyr" class="st9" d="M1652.6,407.4c-1.1-4.9-2.6-9.7-4.4-14.4c-1.8-4-3.9-8-6.3-11.8
				c-5.6-9.5-20.9-38.6-31-52.7l-21.8,26.2c0,0,26.7,28.3,30.2,33.3c2,3,0,8.3-0.2,11.7c-0.1,3.2,0.2,6.5,1,9.7
				c0.7,3.5,1,6.9,1,10.5c0,0.4,0,0.9,0.2,1.3c0.6,1,1.9,1.4,3.1,0.9c1.1-0.5,1.9-1.4,2.3-2.4c1.1-2.4,1.8-5,1.9-7.7
				c0-0.4,0.1-0.8,0.5-1c0.4-0.1,0.8,0,1,0.3c0.8,0.8,1.4,1.7,1.9,2.6c1.1,2.5,1.5,5.2,1.2,7.9c0.3,2.8-1.4,5.5-4.2,6.8
				c0.5,0.1,2.1,0.7,2.6,0.8c1,0.2,2,0.3,3,0.3c1.8-0.1,3.6-0.9,4.8-2.1c1.8-1.6,2.5-4,4.5-5.3c0.6-0.3,1.2-0.6,1.8-0.8
				c1.3-0.6,2.4-1.6,2.9-2.9c0.2-1.2,0.6-2.3,1-3.4c0.4-0.5,0.9-0.9,1.4-1.3C1652.7,412.2,1653.3,409.7,1652.6,407.4z"/>
			<path id="elaxvvaoyoggb" class="st10" d="M1625.5,416.5c-1,3.8,0.7,9.7,3.7,13.7s10.2,12.3,10.2,12.3l3.2-3.3
				c0,0-2.5-2.9-7.7-9.2c-4.8-5.7-5.3-9.7-5.1-11.7c0.1-1.6,0.8-3.1,1.9-4.3c0,0-1.1-3.5-2.7-3.1
				C1627.6,411.8,1626.6,412.7,1625.5,416.5z"/>
			<path id="el62f9szjggkq" class="st13" d="M1490.1,308.2c8.2-3.5,10.9-4.5,33.3-1.2c22.4,3.4,50.5,8.5,68.6,12.8
				s18.4,6.2,24.9,17.1c5.7,9.5,9.7,17.1,9.7,17.1s-1.4,4.3-11.6,9.7c-9.4,5.2-14.4,3.4-14.4,3.4l-12.9-12.3c0,0-58-5.8-68.4-7
				C1508.8,346.6,1488.1,339.6,1490.1,308.2z"/>
		</g>
	</g>
</g>
<g id="freepik--character-1--inject-336">
	<g id="freepik--character--inject-336">
		<g id="freepik--Bottom--inject-336">
			<g id="freepik--Leg--inject-336">
				<polygon id="elci436x4xt0a" points="263.9,632.4 276.3,635.1 277.5,626.9 267.6,628.4 				"/>
				<path id="el8prcair8zzf" class="st11" d="M265.5,609.7c0,0-4.6,5.7-6.2,7.5c-1.5,1.8,3,12.9,4.4,15.2l3.8-4
					c0.4,3.4,0.3,6.8-0.2,10.1c-0.3,3.7-1.8,10,0.3,16.3c3.1,9.3,11.8,18.4,22.4,25.4c10.5,7,18.5,8.4,23.2,8.2s7.4-2.1,8.5-5.2
					S265.5,609.7,265.5,609.7z"/>
				<path id="elq419ncmexi" class="st13" d="M309.3,607.3l2.9-3.3c2,1.2-1.6,6.2-1.9,12.4c-0.5,9.2,0.2,18.3,2.2,27.3
					c4.3,16,9.9,27.7,11.7,34.9c2.5,9.5-15.4,11.3-32.5-0.5c-8.4-5.8-21.1-19.5-22-27s1.8-16.5,0.8-22.2c-1-5.6-6-13.7-5.1-19.2
					c0.5-3,4.2-7.2,9.1-10.5c4.9-3.3,8.6-8.7,11.6-5.1l-1,1.9c-0.3,2.5-0.3,4.4,6,9.8C294.4,608.5,303.7,613.7,309.3,607.3z"/>
				<g id="elcyhlg5vj8we">
					<path class="st18" d="M295.8,607.9c3.6,1.8,7.9,3,11.4,1.1c0,0,0,0,0.1,0c-2.1,2.2-3.1,5.1-2.5,8c0.7,5.3,3.2,41.6,3.2,41.6
						s-4.2-31.2-5-37.1C301.7,612.8,300.5,611.1,295.8,607.9L295.8,607.9z"/>
				</g>
				<g id="elxcorvx98lo">
					<path class="st18" d="M295.7,616.9c-0.5,0.5-1.3,0.6-1.8,0.2l0,0c-0.5-0.4-0.6-1.2-0.1-1.7c0.5-0.5,1.3-0.6,1.8-0.2l0,0
						C296.1,615.7,296.2,616.4,295.7,616.9z"/>
				</g>
				<g id="elcqczds1jdfu">
					<path class="st18" d="M297,625.5c-0.5,0.5-1.3,0.6-1.8,0.2s-0.6-1.2-0.2-1.7s1.3-0.6,1.8-0.2S297.4,624.9,297,625.5
						C297,625.5,297,625.5,297,625.5z"/>
				</g>
				<g id="elkr72mk3b2b9">
					<path class="st18" d="M298.3,634c-0.5,0.5-1.3,0.6-1.8,0.2s-0.6-1.2-0.2-1.7s1.3-0.6,1.8-0.2
						C298.7,632.7,298.8,633.5,298.3,634L298.3,634z"/>
				</g>
				<g id="els2tecmq7mdd">
					<path class="st18" d="M299.6,642.5c-0.5,0.5-1.3,0.6-1.8,0.2l0,0c-0.5-0.4-0.6-1.2-0.1-1.7c0.5-0.5,1.3-0.6,1.8-0.2l0,0
						C300,641.2,300.1,642,299.6,642.5z"/>
				</g>
				<g id="elf5sz9o25n2">
					<path class="st18" d="M301,651c-0.5,0.5-1.2,0.6-1.8,0.2l0,0c-0.5-0.4-0.6-1.2-0.2-1.7c0.5-0.5,1.3-0.6,1.8-0.2
						C301.4,649.7,301.4,650.5,301,651z"/>
				</g>
				<path id="elvh2pc6lkcw" class="st11" d="M294.3,616.6c-0.1-0.1-0.2-0.2-0.2-0.3c0-0.3,0.1-0.5,0.4-0.5
					c5.4-0.8,10.9,0.3,15.5,3.1l0,0c0.2,0.2,0.2,0.5,0,0.7c-0.2,0.2-0.5,0.2-0.7,0c-4.3-2.6-9.5-3.6-14.6-2.9
					C294.5,616.6,294.4,616.6,294.3,616.6z"/>
				<path id="elw31stybv2a" class="st11" d="M295.7,625c-0.1-0.1-0.2-0.2-0.2-0.3c0-0.3,0.1-0.5,0.4-0.5c5.4-0.8,10.9,0.3,15.5,3.1
					l0,0c0.2,0.2,0.2,0.5,0,0.7c-0.2,0.2-0.5,0.2-0.7,0c-4.3-2.6-9.5-3.6-14.6-2.9C295.9,625.1,295.8,625.1,295.7,625z"/>
				<path id="elqdblef11sg8" class="st11" d="M297,633.6c-0.1-0.1-0.2-0.2-0.2-0.3c0-0.3,0.1-0.5,0.4-0.5c5.4-0.8,10.9,0.3,15.5,3.1
					l0,0c0.2,0.2,0.2,0.5,0,0.7c-0.2,0.2-0.5,0.2-0.7,0c0,0,0,0,0,0c-4.3-2.6-9.5-3.7-14.6-2.9C297.2,633.6,297.1,633.6,297,633.6z"
					/>
				<path id="elj1nrrxkbq7q" class="st11" d="M298.3,642.1c-0.1-0.1-0.2-0.2-0.2-0.3c0-0.3,0.1-0.5,0.4-0.5
					c5.4-0.8,10.9,0.3,15.5,3.1l0,0c0.2,0.2,0.2,0.5,0,0.7c-0.2,0.2-0.5,0.2-0.7,0c-4.3-2.6-9.5-3.7-14.6-2.9
					C298.5,642.1,298.4,642.1,298.3,642.1z"/>
				<path id="el4lung9il6z" class="st11" d="M299.7,650.6c-0.1-0.1-0.2-0.2-0.2-0.3c-0.1-0.2,0.1-0.5,0.4-0.5c0,0,0,0,0.1,0
					c5.4-0.8,10.9,0.3,15.5,3.1l0,0c0.2,0.2,0.2,0.5,0,0.7c-0.2,0.2-0.5,0.2-0.7,0c-4.3-2.6-9.5-3.7-14.6-2.9
					C299.9,650.6,299.8,650.6,299.7,650.6z"/>
				<path id="el05hmcr6v6ds" class="st11" d="M424.4,506.9c-15.6,21.3-18.9,25.1-36.5,42.1c-12.6,12.2-75,74.4-75,74.4
					c-30.6,2.1-31.1-32.6-31.1-32.6s27.7-37.1,34.7-49c7.1-12.4,19.9-30.1,35.7-39.5c8.6-4.6,11.8-19,15.6-33.4s14.5-56.8,14.5-56.8
					l96.6,31.2L424.4,506.9z"/>
			</g>
			<g id="freepik--leg--inject-336">
				<path id="elm9qqoh3u9p" class="st11" d="M337.3,506.2c-6.8-3-10.7-3.6-13.5-2.7c-2.7,0.9-12.9,8.5-13.2,17.6l2.3,3.8
					c-1.4,1.8-3.3,3.2-5.4,4.3c-3.5,1.7-11,3.4-17.2,11.5c-6.2,8-8,13-9.6,22.5c-1.6,9.5-0.8,22.1,6.1,24L337.3,506.2z"/>
				<path id="ely8zxe5irsk" class="st13" d="M357.2,519.1c-0.3-2.1-2-2.8-4.1-4.5s-7.8-7.7-15.8-8.5c-9.6,1.5-15.6,7.5-20.6,17.3
					c-5,9.8-13.2,7.1-21.5,16c-7,6.9-11.3,15.7-12.2,25.1c-1.6,11.2-0.5,24.1,8.4,24.1c7.8,0,11.2-5.3,25.3-19
					c6.3-6.5,13.8-11.9,22.2-15.8c6.7-2.7,9.1-2.4,9.1-2.4L357.2,519.1z"/>
				<g id="elptovq5p2bc">
					<path class="st18" d="M308.1,574.4c0,0,6.3-8.8,27.3-22.8c4-2.7,7.5-5.9,10.2-9.7l0.6,8.7c0,0-4.9,0-12.4,4.3
						C324.5,560.5,315.9,567,308.1,574.4z"/>
				</g>
				<path id="elyzn7ltkm5dg" class="st10" d="M496.6,565.8c3.1-15.2-3.3-33.3-8.3-50.6c-6.6-21.8-14.8-43.2-24.5-64
					c0,0-66-75.1-86-46c-18.8,27.4-5,61.6,2,71c7.3,9.9,30.3,35,43.4,49.6c-10.2-4.4-15.5-5.1-33.7-6.4c-21.8-1.5-29.1-2.3-29.1-2.3
					c-9.9-0.9-23.3,20.9-14.9,38.4c0,0,82.2,26.1,99.7,30.7C467.9,592.3,492.2,587,496.6,565.8z"/>
				<path id="elvfc00ixopt" class="st11" d="M389.4,519.5l-4-0.3c10.6,1.5,20.9,4.4,30.6,8.7c9.3,4.1,14.5,6.8,14.5,6.8l-7.4-8.9
					C412.9,521.4,407.6,520.7,389.4,519.5z"/>
				<g id="elwea2xp4d51h">
					<path class="st18" d="M305.8,566.8c0.2-0.6-0.1-1.3-0.8-1.5h0c-0.7-0.2-1.4,0.2-1.6,0.8c-0.2,0.6,0.1,1.2,0.7,1.4
						C304.8,567.7,305.5,567.4,305.8,566.8L305.8,566.8z"/>
				</g>
				<g id="ell60dsfk8f2">
					<path class="st18" d="M311.6,560.7c0.2-0.6-0.1-1.3-0.8-1.5l0,0c-0.7-0.2-1.4,0.1-1.7,0.7c-0.2,0.6,0.1,1.3,0.8,1.5h0
						C310.6,561.6,311.4,561.3,311.6,560.7C311.6,560.7,311.6,560.7,311.6,560.7z"/>
				</g>
				<g id="eljlh6euufxna">
					<path class="st18" d="M318.5,555.3c0.1-0.7-0.5-1.2-1.2-1.3c-0.4,0-0.9,0.1-1.1,0.5c-0.2,0.6,0.1,1.3,0.8,1.5
						C317.6,556.2,318.2,555.9,318.5,555.3z"/>
				</g>
				<g id="elf6m3hr7yeco">
					<path class="st18" d="M327,550c0.3-0.6,0-1.3-0.7-1.6c-0.7-0.2-1.4,0.2-1.6,0.9c-0.1,0.5,0.1,1,0.5,1.3
						C325.9,550.8,326.7,550.6,327,550z"/>
				</g>
				<g id="elgcazgi3hxdc">
					<path class="st18" d="M335.5,545.7c0.3-0.6,0.1-1.3-0.5-1.6s-1.4-0.1-1.8,0.5c-0.3,0.6-0.1,1.3,0.5,1.6
						C334.3,546.5,335.1,546.3,335.5,545.7z"/>
				</g>
				<path id="el0h0n3ioo211w" class="st11" d="M304.8,565.9c-0.1,0-0.2,0-0.4,0c-0.3,0.1-0.4,0.3-0.3,0.6c0,0,0,0,0,0
					c0,0.3,0.8,5.4,8.3,8.4l0,0c0.3,0.1,0.6,0,0.7-0.2v0c0.1-0.2,0-0.5-0.3-0.6c-7.1-2.7-7.8-7.7-7.8-7.8
					C304.9,566.1,304.9,566,304.8,565.9z"/>
				<path id="elhh0mnt87xj8" class="st11" d="M310.6,559.9c-0.1,0-0.2,0-0.4,0c-0.3,0.1-0.4,0.4-0.3,0.6c0,0.3,0.8,5.4,8.4,8.4l0,0
					c0.3,0.1,0.6,0,0.7-0.2v0c0.1-0.2,0-0.5-0.3-0.6c-7.1-2.8-7.7-7.7-7.8-7.8C310.9,560,310.8,559.9,310.6,559.9z"/>
				<path id="elqm1w5wzwzid" class="st11" d="M317.5,554.4c-0.1,0-0.2,0-0.4,0c-0.3,0.1-0.4,0.4-0.3,0.6c0,0,0,0,0,0
					c0,0.3,0.8,5.4,8.3,8.4l0,0c0.3,0.1,0.6,0,0.7-0.2v0c0.1-0.2,0-0.5-0.3-0.6c-7.1-2.8-7.8-7.7-7.8-7.8
					C317.7,554.6,317.6,554.5,317.5,554.4z"/>
				<path id="el3xotokczv1i" class="st11" d="M326.1,549.1c-0.1,0-0.2,0-0.4,0c-0.3,0.1-0.4,0.3-0.4,0.5c0,0,0,0,0,0
					c0,0.3,0.4,5.5,7.7,8.9l0,0c0.3,0.1,0.6,0,0.7-0.2c0.1-0.2,0-0.5-0.2-0.7c-7-3.2-7.1-8.2-7.2-8.3
					C326.3,549.3,326.2,549.1,326.1,549.1z"/>
				<path id="eliz9byq3jcn" class="st11" d="M334.6,544.8c-0.1,0-0.2,0-0.4,0c-0.3,0-0.5,0.3-0.4,0.5c0,0.3-0.1,5.5,6.8,9.5l0,0
					c0.3,0.1,0.6,0,0.7-0.3c0.1-0.2,0-0.4-0.1-0.5c-6.5-3.8-6.3-8.8-6.3-8.8C334.8,545,334.7,544.9,334.6,544.8z"/>
			</g>
		</g>
		<g id="freepik--Arm--inject-336">
			<path id="el4dwjiioxqye" class="st16" d="M693.4,362.4c2.6-0.1,2.7,2.1,0.9,3.6c-4.5,3.4-11.4,2.1-15,3.3
				c-0.9,0.4-11.6,6.8-12.2,9.1c2.8-0.7,11.6-3.5,14.3-4c0.8-0.1,3.1-0.2,10.1-0.3c1.2-0.1,2.4,0,3.6,0.3c0.8,0.3,1.3,2.1-0.4,3.4
				c-3.2,2.4-8,1.6-12,2.4c-2,0.3-8.1,1.8-10.4,4.9c5.8-0.6,9.3,0,17.8,2.1c1,0.3,1.1,0.8,0.9,1.3c-0.3,1-1.2,1.8-2.3,2.1
				c-2.6,0.8-5.9-0.2-9.8-0.3c-4,0.1-7.9,1-11.4,2.8c-1.3,0.6-2.5,1.5-3.4,2.5c-1.1,1.4-2.1,2.8-3,4.3c-4.3,5.7-11.9,8.4-19.2,6.9
				c-0.5-0.1-0.9-0.3-1.3-0.5c-0.5-0.6-0.6-1.4-0.3-2.1c1.7-7.5,7-13.8,11.1-20.5c1.4-2.1,12.1-18.4,12.6-18.9s20.9-2.1,21.4-2.1
				C687.1,362.7,690.8,362.6,693.4,362.4z"/>
			<path id="el0o19uto4y53" class="st19" d="M689.6,358.8c-0.2-0.1-0.5-0.2-0.7-0.2c-1.2-0.1-2.3-0.1-3.5,0
				c-3.8,0.3-6.1,0.2-9.9,0.5l-4,0.3c-1.2,0-2.4,0.2-3.6,0.7c-0.3,0.1-7.7,4.1-10.8,5.4c-5.2,2.1-6.8,2.4-12.7,10.7
				c-4.1,5.8-8.8,12.5-20.7,16.8c-8.6,3.1-50.1,15-50.1,15l-7.1,37.3c3.5,0,7-1.3,12.3-3.4c6.7-2.7,40.2-21.2,49-25.6
				c6-2.8,12.2-5.2,18.5-7.2c11.2-4.4,6.1-12.4,11.6-19.1c5.5-6.6,11-6.6,15.3-11.5c3.8-4.3,1.5-8.5-2.2-6.1
				c-4,2.6-8.7,4.2-13.5,4.5c3.8-3.7,7.9-7,12.5-9.8c0.9-0.7,1.9-1.2,3.1-1.3c2.8-0.3,3.6-0.3,5-0.5c2.3-0.2,4.5-0.6,6.7-1.2
				c2.2-0.7,4-2.1,4.9-4.1C689.8,359.7,690,359.1,689.6,358.8z"/>
			<path id="el8mep5v8zo87" class="st16" d="M657.5,377.1c-2.8,0.6-5.5,1.5-8.1,2.8c-1,0.5-0.3-1.8,3.8-3.8c4-2,7-1.3,8-2.3
				L657.5,377.1z"/>
			<path id="elp3ia6x1aco" class="st10" d="M513.7,328.7c12,3.2,17,5.3,24.4,15.1c7.4,9.8,35.5,61.9,35.5,61.9l42.7-10.4
				c0,0-4.8,3.3-4.6,12.6c0.4,10.7,5,14.6,5,14.6s-34.5,20.7-51.9,25.4c-11.9,3.2-18.5-1.9-25-10.8c-6.5-8.9-29.2-46.9-29.2-46.9
				L513.7,328.7z"/>
			<path id="eltci1lbx7mn" class="st11" d="M573.5,405.7c-5.5,0.6-18,4.1-25.5,12.8c0-5.6,12.3-16.6,23-17.4L573.5,405.7z"/>
		</g>
		<g id="freepik--top--inject-336">
			<g id="freepik--Chest--inject-336">
				<path id="elna36tadxte" class="st13" d="M504.1,410.7c7.7-9.4,17.2-20.3,22.1-27.6c5.7-8.5,8.3-16.1,8.3-28.6
					c0-9-0.9-14.8-6.2-20.4c-3.6-3.8-7.7-7.2-22.1-15.8c-19.2-11.5-33.1-15.7-41.2-19.4c-4.8,1.8-16.9,7.1-16.9,7.1
					c-9.3,5.2-14.9,5.6-31,30.3c-9.1,13.9-17.8,30.9-27.8,48.1c-4.6,7.9-8.9,14.4-15.1,23.2c16.6,45.1,83.6,57.3,104.8,38.1
					C483.7,436.3,492.1,425.5,504.1,410.7z"/>
			</g>
			<g id="freepik--head--inject-336_00000176761638871411516390000018421684515936348829_">
				<path id="elyihna7ca8t" class="st11" d="M490.1,304c0.3-7.4-9-20.8-9.1-36.9c0-14.8,7-22.9,17.6-23.7
					c3.8-10.9,22.8-12.4,34.5-8.3c10.2,3.1,24.1,8.3,33.6,1.4c1.1,5-0.8,10.2-5.2,13.5c3.5,0,6.2-2.1,9.5-3.6
					c0.9,7.1-4.8,12.8-9.5,15.4c5.5,5.1,1,19-10,18.3C530.6,278.9,509.6,296.9,490.1,304z"/>
				<path id="elg1vlbs2cajs" class="st19" d="M514.5,335.9l9.8-13L497,294.8l-12.4,16.8c1.5,20.3,17.6,29.4,20.9,35.9
					C509.5,345.6,514.9,341.6,514.5,335.9z"/>
				<path id="elo9k2xs9bpsb" class="st16" d="M497.7,295.7c-1.3,5.3-0.9,10.8,1.1,15.8c1.5,3.9,5.2,10.7,21.9,16l3.6-4.6
					c-4-1.1-7.9-2.5-11.6-4.3c-2.8-1.3-5.3-3.1-7.4-5.3C500,307.4,498.5,297.9,497.7,295.7z"/>
				<path id="el5f2d4kh15hp" class="st19" d="M553.5,260.4c-1.6,0.9-3.3,1.7-5.1,2.3c-3.5,1.2-7.2,1.8-11,1.9
					c-7.9,0.2-15.8-0.9-23.3-3.2c0.4,5.9-4.8,10.8-7,12.3c-1,11.9-6.4,10.7-6.3,9.2c0.2-2,0-4-0.6-5.9c-1.4-4-5.9-6.3-10.3-5.4
					c-3.1,0.8-5.5,2.9-6.5,5.6c-1.9,4-2,8.5-0.3,12.6c1,3.4,3.7,6.3,7.2,7.7c6.1,2.1,7.1-1.9,7.1-1.9c0.7,4.8,1.4,10.1,4.6,14.8
					c3.5,5.1,9,8.9,15.3,10.7c6.9,2.3,14.4,2.9,21.7,1.8c4.6-1.1,13.9-3.8,17.2-28.6C558.8,276.1,555.7,264.6,553.5,260.4z"/>
				<path id="elok7jpb39dv" class="st11" d="M526.1,283.6c-0.2,1.7-1.9,3-3.8,2.8s-3.2-1.8-3-3.5c0.2-1.7,1.8-2.9,3.7-2.8
					C524.8,280.3,526.3,281.9,526.1,283.6z"/>
				<path id="el5sexrsc3mge" class="st15" d="M531.7,305.6c-0.2,1.4-1.5,2.3-3,2.2c-1.5-0.1-2.5-1.4-2.4-2.7
					c0.2-1.3,1.4-2.3,2.9-2.2C530.8,303,531.9,304.3,531.7,305.6z"/>
				<path id="eld8t6c5axhia" class="st11" d="M526.8,273.6l-8.3-1.3c0.5-2.1,2.7-3.6,5-3.2c2.2,0.4,3.7,2.4,3.3,4.4
					C526.8,273.5,526.8,273.5,526.8,273.6z"/>
				<path id="elcldxyr9dzmr" class="st11" d="M552.3,274l-8.4,1.2c-0.5-2,1-4,3.2-4.4c0.1,0,0.1,0,0.2,0
					C549.6,270.4,551.8,271.9,552.3,274z"/>
				<path id="elopi9qzmuno" class="st11" d="M552.2,283.6c-0.2,1.7-1.9,3-3.8,2.8s-3.2-1.8-3-3.5c0.2-1.7,1.8-2.9,3.7-2.8
					C551,280.3,552.4,281.9,552.2,283.6z"/>
				<path id="elrvokjrn9amo" class="st16" d="M534.6,281.2l1.7,17.2l11.8-2.9c-1.6-6-5.2-11.4-10.4-15.3
					C534.1,278.4,534.6,281.2,534.6,281.2z"/>
			</g>
			<g id="freepik--briefcase--inject-336">
				<path id="elmksq1p3jh19" class="st10" d="M338.4,435.1L308.2,506c-1.5,3.4-4.9,4.5-8.9,5.1l-10,1.4c-2.3,0.5-4.8,0.2-6.8-1.1
					c-1.4-0.9-2.6-2-3.6-3.2c0,0,0,0-0.1-0.1l-0.4-0.4L214.4,434c-4.7-5.4-5.9-12.7-3.2-19.1l27.4-64.5c0.8-1.6,2.4-2.8,4.2-3.1
					l16.9-2.4c1.9-0.2,3.8,0.5,5,1.8l72.8,83.6c0.6,0.7,0.9,1.5,1.1,2.4C338.8,433.5,338.7,434.3,338.4,435.1z"/>
				<path id="el5sjaoofo5x7" class="st11" d="M338.4,435.1L308.2,506c-1.5,3.4-4.9,4.5-8.9,5.1l-10,1.4c-2.3,0.5-4.8,0.2-6.8-1.1
					c-1.4-0.9-2.6-2-3.6-3.2l0,0c2.6,2.6,5.8,1.9,7.3-1.6l28.4-66.8c0.5-1.2,0.6-2.5,0.4-3.8l23.6-3.3
					C338.8,433.5,338.7,434.3,338.4,435.1z"/>
				<path id="elr5j3xvyn6wc" class="st13" d="M314.7,439.8c0.9-2.5,0.4-5.3-1.2-7.4l-68.8-79c-2.7-3.1-6.2-2.6-7.8,1.1l-25.5,60.4
					c-2.8,6.4-1.5,13.7,3.2,19.1l64.2,73.7c2.7,3.1,6.2,2.6,7.8-1.1L314.7,439.8z"/>
				<path id="el2e3quskwkol" class="st5" d="M254.3,345.6l72.7,84.2c2.1,2.4,2.6,5.7,1.4,8.5l-30.9,72.9l-1.7,0.3l31.2-73.7
					c1-2.4,0.6-5.1-1.2-7.2l-73.3-84.9L254.3,345.6z"/>
				<g id="el0ldztw36do9">
					<path class="st20" d="M328.9,434c0.3,1.5,0.1,3-0.5,4.5l-30.9,72.9l-1.7,0.3l31.2-73.7c0.5-1.2,0.7-2.5,0.5-3.7L328.9,434z"/>
				</g>
				<g id="elh6yj1c8y86v">
					<path class="st20" d="M327.4,434.2c-0.2-1.2-0.8-2.4-1.6-3.4l-73.3-84.9l1.8-0.2l72.7,84.2c1,1.2,1.7,2.6,1.9,4.1"/>
				</g>
				<path id="elzlonkss0lj" class="st5" d="M283.9,366.6l-4.6,11l-5.7,0.8l6.2-14.6c0.1-0.4,0.6-0.7,1-0.6c0.2,0,0.4,0.2,0.6,0.4
					L283.9,366.6z"/>
				<g id="elsijhzhjl20d">
					<path class="st21" d="M283.9,366.6l-4.6,11l-5.7,0.8l6.2-14.6c0.1-0.4,0.6-0.7,1-0.6c0.2,0,0.4,0.2,0.6,0.4L283.9,366.6z"/>
				</g>
				<path id="elgm2xhf760n" class="st5" d="M312,389.3l-7.5,17.9l-5.5,0.8l-2.3-2.7l6.2-14.6c0.3-0.9,0.1-1.8-0.4-2.5L284.9,368
					l-3.6-4.3c-0.2-0.4-0.8-0.5-1.2-0.3c-0.2,0.1-0.4,0.3-0.4,0.5l-6.2,14.6l-2.3-2.7l7.5-17.7l0.1-0.2c0.4-0.7,1.2-1.2,2-1.4
					l2.3-0.3c1-0.1,1.9,0.2,2.5,0.9l25.9,29.9C312.1,387.6,312.3,388.5,312,389.3z"/>
				<g id="elxzq0erwoqo8">
					<path class="st20" d="M306.6,390.1l-7.5,17.8l-2.3-2.7l6.2-14.6c0.3-0.9,0.1-1.8-0.4-2.5l-17.6-20.2l-3.6-4.3
						c-0.2-0.4-0.8-0.5-1.2-0.3c-0.2,0.1-0.4,0.3-0.4,0.5l-6.2,14.6l-2.3-2.7l7.5-17.6l0.1-0.2c0.4-0.5,1-0.5,1.5,0l25.9,29.7
						C306.7,388.4,306.9,389.3,306.6,390.1z"/>
				</g>
			</g>
			<path id="el5d2rco671na" class="st19" d="M462.7,298.8c-16.5-4-21.6-0.4-47.7,1.4c-17,1.2-36.7,1.9-55.9,5.2
				c-9.2,1.6-17,1.6-23.9,9c-12.3,13.2-25.3,28.3-32.3,34.7c-7,6.4-9.3,8.7-18.5,13.6c-1,0.5-1.7,1.3-2.3,2.1
				c-0.8,1.3-1.5,2.6-2.1,4c-0.4,0.9-0.7,1.8-1,2.8c-0.1,0.4-0.3,0.7-0.3,1.1c0.1,0.3,0.1,0.6,0,0.9c-0.6,1.5-0.8,3.1-0.6,4.8
				c0,0.2,0.1,0.5,0.2,0.7c0.4,0.8,1,1.6,1.7,2.1c0.5,0.4,1,0.8,1.4,1.3c0.8,1.1,0.4,2.5,0.5,3.9c0.1,1.4,0.9,2.7,2,3.6
				c1.4,1.1,3.6,1.6,4.3,3.2c0.2,0.5,0.3,1,0.5,1.5c1.1,3.1,9.8,6,10,5.9l4.1-9.6c0.5-0.9,0.4-1.9-0.3-2.7l-2-2.5
				c2.3-3.4,4.6-6,5.6-5.3l5.7,6.5c0.6,0.8,0.8,1.8,0.4,2.6c-0.4,0.8-0.9,2.1-1.2,2.9c1.8-1.5,3.4-3.1,4.8-4.9
				c4.6-6.9,2-15.7,6-20.2c9.3-10.4,32.5-27.1,37.7-31.7l65.7,2.3C443.7,331.1,457.7,316.6,462.7,298.8z"/>
			<path id="elwdayzxb38ob" class="st10" d="M465,298.8c-12.3-5.9-18.8-4.7-41.4-3.1c-14.1,1-53.1,6.6-70.6,9.8
				c-12.6,2.3-12.9,2.1-18.5,8.3c-5.7,6.1-19.4,22.6-19.4,22.6s0.2,5.7,7.8,11.3s13,6.4,13,6.4l23.8-17.5l63.9,3.1
				c10.8,1,21.6-2,29.9-8.4C467.1,320.6,465,298.8,465,298.8z"/>
			<path id="elkdpdqnxmxzi" class="st13" d="M316.7,334.4l-6.3,7c1.9,4.4,5,8.1,9.1,10.9c7.4,5.6,11.8,5.5,11.8,5.5l7.5-6
				c-4.7-1.8-9.1-4.1-13-7.1C322,342.1,318.8,338.5,316.7,334.4z"/>
		</g>
		<polygon id="eldk9uxw773bw" class="st5" points="500.7,347.8 491.6,332.3 480.9,331.1 492.2,353.2 		"/>
		<g id="el7f4300w151d">
			<polygon class="st18" points="500.7,347.8 491.6,332.3 480.9,331.1 492.2,353.2 			"/>
		</g>
		<path id="el1ud0vfcmuv7" class="st5" d="M505.2,349.8c5.2-1.8,12.6-14,12.6-14l3,1.8c0,0-3.4,12.7-14.7,19.6
			C506.1,357.2,504.2,352.2,505.2,349.8z"/>
		<g id="el6fmseer59k6">
			<path class="st18" d="M505.2,349.8c5.2-1.8,12.6-14,12.6-14l3,1.8c0,0-3.4,12.7-14.7,19.6C506.1,357.2,504.2,352.2,505.2,349.8z"
				/>
		</g>
		<path id="elk6iuim56b6" class="st5" d="M404.4,362.4c46,28.3,82.8,4.9,87.8-2.1l5.5,3.1c-3.1,10.5-33.5,47.2-89.8,29.3
			c-11.4-3.9-29.1-20.5-28.4-24.7C380,363.7,399.8,359.6,404.4,362.4z"/>
		<g id="elgd7mu2jdq04">
			<path class="st18" d="M497.5,364.2c0-0.3,0.2-0.6,0.3-0.8l-5.6-3.2c-0.5,0.7-1.2,1.4-1.9,2C492.4,363.7,494.9,364.4,497.5,364.2z
				"/>
		</g>
		<path id="elu7wfnfklbu9" class="st5" d="M500.7,347.8c2.5,1.2,4.6,2,4.6,2s2,6.1,0.5,8.5c-1.7,2.8-4.7,4.7-8.1,5.2
			c-2.2-0.2-4.2-1.4-5.5-3.1c-0.8-2.3-0.8-4.8,0-7.1C493.9,350.9,499,347.7,500.7,347.8z"/>
		<path id="elaotuwhieqii" class="st10" d="M491.6,302.2l-4.4,6c-0.9,11,0.9,17.8,9.7,26.1c3.7,3.9,6.5,8.4,8.5,13.3
			c0,0-5.3-6.7-10.4-4.7c-6.6,2.6-10.8,5.8-12.9,4.3c-2.2-1.5-9.4-13.4-9.5-24.2c0.1-6.5,1.4-12.9,4.1-19
			C483.9,302.9,487.9,299.4,491.6,302.2z"/>
		<path id="elbglx2wxuxui" class="st10" d="M505.4,347.5c9.6-1.2,10.1,5.6,12,5s10.1-22.3,7-29.5L505.4,347.5z"/>
	</g>
</g>
</svg>
