<?xml version="1.0" encoding="utf-8"?>
<!-- Generator: Adobe Illustrator 28.1.0, SVG Export Plug-In . SVG Version: 6.00 Build 0)  -->
<svg version="1.1" id="Layer_1" xmlns="http://www.w3.org/2000/svg" xmlns:xlink="http://www.w3.org/1999/xlink" x="0px" y="0px"
	 viewBox="0 0 1000 1000" style="enable-background:new 0 0 1000 1000;" xml:space="preserve">
<style type="text/css">
	.st0{fill:#414042;stroke:#231F20;stroke-miterlimit:10;}
	.st1{fill:#272727;stroke:#231F20;stroke-miterlimit:10;}
	.st2{fill:#FFFFFF;stroke:#231F20;stroke-width:0.75;stroke-miterlimit:10;}
	.st3{fill:#FFFFFF;stroke:#231F20;stroke-miterlimit:10;}
	.st4{fill:none;stroke:#231F20;stroke-miterlimit:10;}
	.st5{fill:#231F20;stroke:#231F20;stroke-miterlimit:10;}
	.st6{fill:url(#SVGID_1_);stroke:#231F20;stroke-miterlimit:10;}
	.st7{fill:url(#SVGID_00000124120854297432408990000010760337593623232928_);stroke:#231F20;stroke-miterlimit:10;}
	.st8{fill:#BE1E2D;stroke:#231F20;stroke-miterlimit:10;}
	.st9{fill:url(#SVGID_00000107557270655940579860000013108269180035341495_);stroke:#231F20;stroke-miterlimit:10;}
	
		.st10{fill:url(#SVGID_00000054945675682779018650000000085940435293660043_);stroke:#231F20;stroke-width:0.75;stroke-miterlimit:10;}
	.st11{fill:#414042;}
	.st12{fill:url(#SVGID_00000078017423928065223940000011608914714422514845_);stroke:#231F20;stroke-miterlimit:10;}
	.st13{fill:#ED1C24;stroke:#231F20;stroke-miterlimit:10;}
	.st14{fill:#ED1C24;stroke:#272727;stroke-miterlimit:10;}
	.st15{fill:url(#SVGID_00000174571928982561960990000007310719344505909421_);}
	.st16{fill:url(#SVGID_00000023259673634074798180000007854989485745125562_);}
	.st17{fill:url(#SVGID_00000101798632911173490230000010467896949285640887_);stroke:#231F20;stroke-miterlimit:10;}
	.st18{fill:url(#SVGID_00000078044245764964144390000010574527282846983591_);stroke:#231F20;stroke-miterlimit:10;}
	.st19{fill:#161616;}
</style>
<polyline class="st0" points="605.1,169.8 807.2,279.6 807.2,803 596.8,688.7 "/>
<polygon class="st0" points="572.9,925.7 807.2,803 405,584.5 168.2,697.6 "/>
<polygon class="st0" points="421.6,102 655,233.6 656.5,638.2 421.6,514.4 "/>
<polygon class="st1" points="405,107.9 638.3,239.5 639.8,644 405,520.2 "/>
<polygon class="st2" points="508.9,738.6 692.2,653 377.5,500.6 192.2,579.5 "/>
<polyline class="st0" points="168.2,173.7 168.2,697.2 168.2,173.7 405,60.6 807.2,279.2 "/>
<path class="st3" d="M192.2,579.5l-0.3-85.6L192.2,579.5z"/>
<path class="st3" d="M508.6,653l0.3,85.6L508.6,653z"/>
<line class="st4" x1="572.9" y1="402.3" x2="572.9" y2="925.7"/>
<polygon class="st5" points="638.2,252.5 638.3,239.5 405.7,108.3 405.2,214.3 "/>
<line class="st4" x1="407.2" y1="337" x2="442.9" y2="320.5"/>
<line class="st4" x1="460.1" y1="366.1" x2="495.8" y2="349.6"/>
<line class="st4" x1="460.1" y1="420.7" x2="495.8" y2="404.2"/>
<path class="st3" d="M396.2,407.5"/>
<line class="st4" x1="407.2" y1="395.2" x2="442.9" y2="378.7"/>
<polyline class="st0" points="405,61 405,584.5 168.2,697.6 168.2,174.1 405,61 "/>
<polygon class="st5" points="517.4,308.2 517.4,425.6 532.4,415.2 532.4,299.6 "/>
<linearGradient id="SVGID_1_" gradientUnits="userSpaceOnUse" x1="523.2" y1="-133.55" x2="538.15" y2="-133.55" gradientTransform="matrix(1 0 0 1 0 500)">
	<stop  offset="0" style="stop-color:#FF0000"/>
	<stop  offset="1" style="stop-color:#E93E3A"/>
</linearGradient>
<polygon class="st6" points="523.2,312 523.2,429.4 538.2,419 538.2,303.5 "/>
<path class="st3" d="M532.4,339.6l5.8,3.8L532.4,339.6z"/>
<path class="st3" d="M523.2,352l-5.8-3.8L523.2,352z"/>
<polygon class="st5" points="531.9,318.6 531.9,436 546.8,425.6 546.8,310.1 "/>
<linearGradient id="SVGID_00000067216414101503499160000008341506313634645173_" gradientUnits="userSpaceOnUse" x1="537.66" y1="-123.15" x2="552.62" y2="-123.15" gradientTransform="matrix(1 0 0 1 0 500)">
	<stop  offset="0" style="stop-color:#FF0000"/>
	<stop  offset="0.5928" style="stop-color:#F12825"/>
	<stop  offset="1" style="stop-color:#E93E3A"/>
</linearGradient>
<polygon style="fill:url(#SVGID_00000067216414101503499160000008341506313634645173_);stroke:#231F20;stroke-miterlimit:10;" points="
	537.7,322.4 537.7,439.8 552.6,429.4 552.6,313.9 "/>
<path class="st3" d="M537.7,362.4l-5.8-3.8L537.7,362.4z"/>
<path class="st3" d="M570.1,820.3"/>
<path class="st3" d="M421.6,102l-15.9,6.3L421.6,102z"/>
<polygon class="st4" points="572.9,402.3 807.2,279.6 405,61 168.2,174.1 "/>
<g>
	<g>
		<g>
			<polygon class="st5" points="663.9,236.7 790.7,301.5 790.7,415 663.9,356.9 			"/>
			<polygon class="st5" points="657.1,242.6 783.9,307.4 783.9,421 657.1,362.8 			"/>
		</g>
		<polygon class="st5" points="663.9,246.1 663.9,236.7 657.1,242.6 		"/>
		<line class="st4" x1="790.7" y1="301.5" x2="783.9" y2="307.4"/>
		<polygon class="st5" points="783.9,411.9 790.7,415 783.9,421 		"/>
		<line class="st4" x1="657.1" y1="362.8" x2="663.9" y2="356.9"/>
	</g>
	<g>
		<g>
			<path class="st8" d="M732.4,343.5l-0.5,38.3c0,0-10-7.9-12.1-15C715.3,352.1,732.4,343.5,732.4,343.5z"/>
		</g>
		<g>
			<path class="st8" d="M723.4,342.6L698,362.1c0,0-3.8-12.3-1.1-17.7C702.5,333,723.4,342.6,723.4,342.6z"/>
		</g>
		<g>
			<path class="st8" d="M716,334.8L680.6,324c0,0,4.6-9.5,10.6-10.1C703.5,312.6,716,334.8,716,334.8z"/>
		</g>
		<g>
			<path class="st8" d="M714.4,324.6l-24.7-34.7c0,0,10.3-1.1,16,3.4C717.7,302.8,714.4,324.6,714.4,324.6z"/>
		</g>
		<g>
			<path class="st8" d="M719.6,318l0.5-38.3c0,0,10,7.9,12.1,15C736.7,309.4,719.6,318,719.6,318z"/>
		</g>
		<g>
			<path class="st8" d="M728.6,318.9l25.4-19.5c0,0,3.8,12.3,1.1,17.7C749.5,328.4,728.6,318.9,728.6,318.9z"/>
		</g>
		<g>
			<path class="st8" d="M736,326.7l35.4,10.8c0,0-4.6,9.5-10.6,10.1C748.5,348.9,736,326.7,736,326.7z"/>
		</g>
		<g>
			<path class="st8" d="M737.6,336.9l24.7,34.7c0,0-10.3,1.1-16-3.4C734.3,358.6,737.6,336.9,737.6,336.9z"/>
		</g>
	</g>
</g>
<g>
	<g>
		<g>
			<polygon class="st5" points="664,372.7 790.8,437.5 790.8,551.1 664,492.9 			"/>
			<polygon class="st5" points="657.1,378.6 783.9,443.4 783.9,557 657.1,498.8 			"/>
		</g>
		<polygon class="st5" points="663.9,382.1 664,372.7 657.1,378.6 		"/>
		<line class="st4" x1="790.8" y1="437.5" x2="783.9" y2="443.4"/>
		<polygon class="st5" points="783.9,547.4 790.8,551.1 783.9,557 		"/>
		<line class="st4" x1="657.1" y1="498.8" x2="664" y2="492.9"/>
	</g>
	<g>
		<g>
			<path class="st8" d="M732.4,479.5l-0.5,38.3c0,0-10-7.9-12.1-15C715.3,488.1,732.4,479.5,732.4,479.5z"/>
		</g>
		<g>
			<path class="st8" d="M723.4,478.6L698,498.1c0,0-3.8-12.3-1.1-17.7C702.5,469.1,723.4,478.6,723.4,478.6z"/>
		</g>
		<g>
			<path class="st8" d="M716,470.8L680.6,460c0,0,4.6-9.5,10.6-10.1C703.5,448.6,716,470.8,716,470.8z"/>
		</g>
		<g>
			<path class="st8" d="M714.4,460.6l-24.7-34.7c0,0,10.3-1.1,16,3.4C717.7,438.8,714.4,460.6,714.4,460.6z"/>
		</g>
		<g>
			<path class="st8" d="M719.6,454l0.5-38.3c0,0,10,7.9,12.1,15C736.7,445.4,719.6,454,719.6,454z"/>
		</g>
		<g>
			<path class="st8" d="M728.6,454.9l25.4-19.5c0,0,3.8,12.3,1.1,17.7C749.5,464.5,728.6,454.9,728.6,454.9z"/>
		</g>
		<g>
			<path class="st8" d="M736,462.7l35.4,10.8c0,0-4.6,9.5-10.6,10.1C748.5,484.9,736,462.7,736,462.7z"/>
		</g>
		<g>
			<path class="st8" d="M737.6,472.9l24.7,34.7c0,0-10.3,1.1-16-3.4C734.3,494.7,737.6,472.9,737.6,472.9z"/>
		</g>
	</g>
</g>
<g>
	<g>
		<g>
			<polygon class="st5" points="666.3,504.4 793.2,569.2 793.2,682.8 666.3,624.6 			"/>
			<polygon class="st5" points="659.5,510.3 786.3,575.1 786.3,688.7 659.5,630.5 			"/>
		</g>
		<polygon class="st5" points="666.3,513.3 666.3,504.4 659.5,510.3 		"/>
		<line class="st4" x1="793.2" y1="569.2" x2="786.3" y2="575.1"/>
		<polygon class="st5" points="786.7,679.8 786.3,688.7 793.2,682.8 		"/>
		<line class="st4" x1="659.5" y1="630.5" x2="666.3" y2="624.6"/>
	</g>
	<g>
		<g>
			<path class="st8" d="M734.8,611.2l-0.5,38.3c0,0-10-7.9-12.1-15C717.7,619.8,734.8,611.2,734.8,611.2z"/>
		</g>
		<g>
			<path class="st8" d="M725.8,610.3l-25.4,19.5c0,0-3.8-12.3-1.1-17.7C704.9,600.8,725.8,610.3,725.8,610.3z"/>
		</g>
		<g>
			<path class="st8" d="M718.4,602.5L683,591.8c0,0,4.6-9.5,10.6-10.1C705.9,580.3,718.4,602.5,718.4,602.5z"/>
		</g>
		<g>
			<path class="st8" d="M716.8,592.3l-24.7-34.7c0,0,10.3-1.1,16,3.4C720.1,570.5,716.8,592.3,716.8,592.3z"/>
		</g>
		<g>
			<path class="st8" d="M722,585.7l0.5-38.3c0,0,10,7.9,12.1,15C739.1,577.1,722,585.7,722,585.7z"/>
		</g>
		<g>
			<path class="st8" d="M731,586.6l25.4-19.5c0,0,3.8,12.3,1.1,17.7C751.9,596.2,731,586.6,731,586.6z"/>
		</g>
		<g>
			<path class="st8" d="M738.4,594.4l35.4,10.8c0,0-4.6,9.5-10.6,10.1C750.9,616.6,738.4,594.4,738.4,594.4z"/>
		</g>
		<g>
			<path class="st8" d="M740,604.6l24.7,34.7c0,0-10.3,1.1-16-3.4C736.8,626.4,740,604.6,740,604.6z"/>
		</g>
	</g>
</g>
<g>
	<g>
		<g>
			<polygon class="st5" points="235.2,679.3 362.8,615.9 461.5,679.8 339.7,746.9 			"/>
			<polygon class="st5" points="236.5,688 364.1,624.7 462.8,688.5 340.9,755.6 			"/>
		</g>
		<path class="st5" d="M235.2,679.3l1.3,8.7L235.2,679.3z"/>
		<line class="st4" x1="362.8" y1="615.9" x2="364.1" y2="624.7"/>
		<line class="st4" x1="461.5" y1="679.8" x2="462.8" y2="688.5"/>
		<line class="st4" x1="340.9" y1="755.6" x2="339.7" y2="746.9"/>
	</g>
	<g>
		<g>
			<path class="st8" d="M366.5,685.5l33,22c0,0-12.5,3.4-19.8,1.1C364.4,703.8,366.5,685.5,366.5,685.5z"/>
		</g>
		<g>
			<path class="st8" d="M360.7,692l2.6,31c0,0-12.8-4-16-9.1C340.6,703.1,360.7,692,360.7,692z"/>
		</g>
		<g>
			<path class="st8" d="M349.7,693.5l-29.3,21.8c0,0-5.6-9-2.9-14C323.5,690.8,349.7,693.5,349.7,693.5z"/>
		</g>
		<g>
			<path class="st8" d="M340,689l-44-0.1c0,0,4.8-8.8,12-10.7C322.9,674.2,340,689,340,689z"/>
		</g>
		<g>
			<path class="st8" d="M337.2,681.2l-33-22c0,0,12.5-3.4,19.8-1.1C339.3,662.9,337.2,681.2,337.2,681.2z"/>
		</g>
		<g>
			<path class="st8" d="M343,674.6l-2.6-31c0,0,12.8,4,16,9.1C363,663.5,343,674.6,343,674.6z"/>
		</g>
		<g>
			<path class="st8" d="M354,673.2l29.3-21.8c0,0,5.6,9,2.9,14C380.2,675.8,354,673.2,354,673.2z"/>
		</g>
		<g>
			<path class="st8" d="M363.7,677.6l44,0.1c0,0-4.8,8.8-12,10.7C380.8,692.5,363.7,677.6,363.7,677.6z"/>
		</g>
	</g>
</g>
<g>
	<g>
		<g>
			<polygon class="st5" points="360.2,752.6 487.8,689.3 586.5,753.1 464.6,820.2 			"/>
			<polygon class="st5" points="361.5,761.4 489.1,698 587.8,761.9 465.9,829 			"/>
		</g>
		<polygon class="st5" points="368.4,758 361.5,761.4 360.2,752.6 		"/>
		<line class="st4" x1="487.8" y1="689.3" x2="489.1" y2="698"/>
		<polygon class="st5" points="581,757.5 586.5,753.1 587.8,761.9 		"/>
		<line class="st4" x1="465.9" y1="829" x2="464.6" y2="820.2"/>
	</g>
	<g>
		<g>
			<path class="st8" d="M491.5,758.8l33,22c0,0-12.5,3.4-19.8,1.1C489.4,777.1,491.5,758.8,491.5,758.8z"/>
		</g>
		<g>
			<path class="st8" d="M485.7,765.4l2.6,31c0,0-12.8-4-16-9.1C465.6,776.5,485.7,765.4,485.7,765.4z"/>
		</g>
		<g>
			<path class="st8" d="M474.7,766.8l-29.3,21.8c0,0-5.6-9-2.9-14C448.4,764.2,474.7,766.8,474.7,766.8z"/>
		</g>
		<g>
			<path class="st8" d="M464.9,762.4l-44-0.1c0,0,4.8-8.8,12-10.7C447.9,747.5,464.9,762.4,464.9,762.4z"/>
		</g>
		<g>
			<path class="st8" d="M462.1,754.5l-33-22c0,0,12.5-3.4,19.8-1.1C464.3,736.2,462.1,754.5,462.1,754.5z"/>
		</g>
		<g>
			<path class="st8" d="M467.9,748l-2.6-31c0,0,12.8,4,16,9.1C488,736.9,467.9,748,467.9,748z"/>
		</g>
		<g>
			<path class="st8" d="M478.9,746.5l29.3-21.8c0,0,5.6,9,2.9,14C505.2,749.2,478.9,746.5,478.9,746.5z"/>
		</g>
		<g>
			<path class="st8" d="M488.7,751l44,0.1c0,0-4.8,8.8-12,10.7C505.8,765.8,488.7,751,488.7,751z"/>
		</g>
	</g>
</g>
<g>
	<g>
		<g>
			<polygon class="st5" points="487.4,820 615,756.6 713.6,820.4 591.8,887.5 			"/>
			<polygon class="st5" points="488.6,828.7 616.2,765.3 714.9,829.2 593.1,896.3 			"/>
		</g>
		<polyline class="st5" points="488.6,828.7 487.4,820 494.4,825.2 488.7,829.6 		"/>
		<line class="st4" x1="615" y1="756.6" x2="616.2" y2="765.3"/>
		<polygon class="st5" points="707.1,824.1 713.6,820.4 714.9,829.2 		"/>
		<line class="st4" x1="593.1" y1="896.3" x2="591.8" y2="887.5"/>
	</g>
	<g>
		<g>
			<path class="st8" d="M618.6,826.1l33,22c0,0-12.5,3.4-19.8,1.1C616.5,844.4,618.6,826.1,618.6,826.1z"/>
		</g>
		<g>
			<path class="st8" d="M612.8,832.7l2.7,31c0,0-12.8-4-16-9.1C592.8,843.8,612.8,832.7,612.8,832.7z"/>
		</g>
		<g>
			<path class="st8" d="M601.8,834.2L572.6,856c0,0-5.6-9-2.8-14C575.6,831.5,601.8,834.2,601.8,834.2z"/>
		</g>
		<g>
			<path class="st8" d="M592.1,829.7l-44-0.1c0,0,4.8-8.8,12-10.7C575,814.8,592.1,829.7,592.1,829.7z"/>
		</g>
		<g>
			<path class="st8" d="M589.3,821.8l-33-22c0,0,12.5-3.4,19.8-1.1C591.4,803.5,589.3,821.8,589.3,821.8z"/>
		</g>
		<g>
			<path class="st8" d="M595.1,815.3l-2.7-31c0,0,12.8,4,16,9.1C615.2,804.2,595.1,815.3,595.1,815.3z"/>
		</g>
		<g>
			<path class="st8" d="M606.1,813.8l29.3-21.8c0,0,5.6,9,2.8,14C632.4,816.5,606.1,813.8,606.1,813.8z"/>
		</g>
		<g>
			<path class="st8" d="M615.8,818.3l44,0.1c0,0-4.8,8.8-12,10.7C632.9,833.1,615.8,818.3,615.8,818.3z"/>
		</g>
	</g>
</g>
<g>
	<g>
		<g>
			<polygon class="st5" points="226.7,325.2 353.5,260.4 353.4,146.8 226.6,205 			"/>
			<polygon class="st5" points="219.8,319.3 346.6,254.5 346.5,140.9 219.8,199.1 			"/>
		</g>
		<path class="st5" d="M226.7,325.2l-6.9-5.9L226.7,325.2z"/>
		<line class="st4" x1="353.5" y1="260.4" x2="346.6" y2="254.5"/>
		<polyline class="st5" points="346.6,141.6 353.4,146.8 346.5,140.9 		"/>
		<line class="st4" x1="219.8" y1="199.1" x2="226.6" y2="205"/>
	</g>
	<g>
		<g>
			<path class="st8" d="M295.1,218.4l-0.5-38.3c0,0-10,7.9-12.1,15C278,209.8,295.1,218.4,295.1,218.4z"/>
		</g>
		<g>
			<path class="st8" d="M286.1,219.3l-25.4-19.5c0,0-3.8,12.3-1.1,17.7C265.2,228.9,286.1,219.3,286.1,219.3z"/>
		</g>
		<g>
			<path class="st8" d="M278.7,227.1l-35.4,10.8c0,0,4.6,9.5,10.6,10.1C266.2,249.3,278.7,227.1,278.7,227.1z"/>
		</g>
		<g>
			<path class="st8" d="M277.1,237.3L252.5,272c0,0,10.3,1.1,16-3.4C280.4,259.1,277.1,237.3,277.1,237.3z"/>
		</g>
		<g>
			<path class="st8" d="M282.3,243.9l0.5,38.3c0,0,10-7.9,12.1-15C299.4,252.5,282.3,243.9,282.3,243.9z"/>
		</g>
		<g>
			<path class="st8" d="M291.3,243l25.4,19.5c0,0,3.8-12.3,1.1-17.7C312.2,233.4,291.3,243,291.3,243z"/>
		</g>
		<g>
			<path class="st8" d="M298.7,235.2l35.4-10.8c0,0-4.6-9.5-10.6-10.1C311.2,213,298.7,235.2,298.7,235.2z"/>
		</g>
		<g>
			<path class="st8" d="M300.3,225l24.6-34.7c0,0-10.3-1.1-16,3.4C297,203.2,300.3,225,300.3,225z"/>
		</g>
	</g>
</g>
<polygon class="st1" points="409.3,120.8 628.2,243.9 628.2,293.2 409.3,174.1 "/>
<linearGradient id="SVGID_00000178899013889837719130000015919795040734982818_" gradientUnits="userSpaceOnUse" x1="401" y1="-280.25" x2="619.9" y2="-280.25" gradientTransform="matrix(1 0 0 1 0 500)">
	<stop  offset="0" style="stop-color:#660000"/>
	<stop  offset="0.1424" style="stop-color:#8A1110"/>
	<stop  offset="0.3053" style="stop-color:#AC211F"/>
	<stop  offset="0.4719" style="stop-color:#C72E2B"/>
	<stop  offset="0.6412" style="stop-color:#DA3733"/>
	<stop  offset="0.8149" style="stop-color:#E53C38"/>
	<stop  offset="1" style="stop-color:#E93E3A"/>
</linearGradient>
<polygon style="fill:url(#SVGID_00000178899013889837719130000015919795040734982818_);stroke:#231F20;stroke-miterlimit:10;" points="
	401,133.5 619.9,256.6 619.9,306 401,186.8 "/>
<line class="st4" x1="401" y1="133.5" x2="409.3" y2="120.8"/>
<line class="st4" x1="619.9" y1="256.6" x2="628.2" y2="243.9"/>
<path class="st4" d="M628.2,293.2l-8.3,12.7L628.2,293.2z"/>
<polygon class="st5" points="192.2,579.5 508.9,738.6 508.6,653 191.9,493.9 "/>
<polygon class="st5" points="508.6,653 508.9,738.6 692.2,653 691.9,567.4 "/>
<linearGradient id="SVGID_00000075130413826464511730000008616313247205897122_" gradientUnits="userSpaceOnUse" x1="191.9" y1="34" x2="691.9" y2="34" gradientTransform="matrix(1 0 0 1 0 500)">
	<stop  offset="0" style="stop-color:#51110F"/>
	<stop  offset="4.600000e-02" style="stop-color:#5F1212"/>
	<stop  offset="0.1965" style="stop-color:#891519"/>
	<stop  offset="0.3504" style="stop-color:#AB181F"/>
	<stop  offset="0.5061" style="stop-color:#C61A24"/>
	<stop  offset="0.6645" style="stop-color:#D91C27"/>
	<stop  offset="0.827" style="stop-color:#E41D29"/>
	<stop  offset="1" style="stop-color:#E81D2A"/>
</linearGradient>
<polygon style="fill:url(#SVGID_00000075130413826464511730000008616313247205897122_);stroke:#231F20;stroke-width:0.75;stroke-miterlimit:10;" points="
	508.6,653 691.9,567.4 377.2,415 191.9,493.9 "/>
<polygon class="st5" points="517.4,308.2 523.2,312 538.2,303.5 532.4,299.6 "/>
<polygon class="st5" points="531.9,318.6 537.7,322.4 552.6,313.9 546.8,310.1 "/>
<polygon class="st5" points="523,421.7 517.4,425.6 522.9,429.2 "/>
<path class="st5" d="M532.1,476"/>
<polygon class="st5" points="532.1,436 537.4,439.7 537.6,432.1 "/>
<polygon class="st11" points="421.6,117.3 405.7,108.3 421.6,102 "/>
<linearGradient id="SVGID_00000119078847726672316200000016595353784748174268_" gradientUnits="userSpaceOnUse" x1="407.2" y1="-121.15" x2="460.1" y2="-121.15" gradientTransform="matrix(1 0 0 1 0 500)">
	<stop  offset="8.938416e-03" style="stop-color:#A81E22"/>
	<stop  offset="7.750000e-02" style="stop-color:#AE1E22"/>
	<stop  offset="0.4573" style="stop-color:#CE1E24"/>
	<stop  offset="0.7783" style="stop-color:#E11E25"/>
	<stop  offset="1" style="stop-color:#E81E25"/>
</linearGradient>
<polygon style="fill:url(#SVGID_00000119078847726672316200000016595353784748174268_);stroke:#231F20;stroke-miterlimit:10;" points="
	407.2,337 407.2,395.2 460.1,420.7 460.1,366.1 "/>
<path class="st3" d="M168.2,174.1"/>
<path class="st0" d="M-5.9,77.2"/>
<path class="st3" d="M605.1,169.8"/>
<polygon class="st1" points="619.9,289.2 619.9,306 628.2,293.2 "/>
<polyline class="st5" points="226.6,316.3 220.3,319.7 226.7,325.2 226.6,316.7 "/>
<polygon class="st5" points="346.5,149.5 347,141.2 353.4,146.8 "/>
<polygon class="st5" points="243.4,684.6 236.5,688 235.2,679.3 "/>
<path class="st13" d="M482.5,372.7c21.4-0.1,57.4-2.9,97.8-19.4c43.1-17.6,71.2-42.7,86-58l17,21c-15.7,16.5-43.7,41.7-85.8,60.7
	c-47.6,21.5-90.8,25-115,25.2V372.7L482.5,372.7z"/>
<g>
	<g>
		<g>
			<polygon class="st5" points="230.1,463.9 356.9,399 356.9,285.5 230.1,343.7 			"/>
			<polygon class="st5" points="223.2,458 350,393.1 350,279.6 223.2,337.8 			"/>
		</g>
		<path class="st5" d="M230.1,463.9l-6.9-5.9L230.1,463.9z"/>
		<line class="st4" x1="356.9" y1="399" x2="350" y2="393.1"/>
		<polyline class="st5" points="350,280.2 356.9,285.5 350,279.6 		"/>
		<line class="st4" x1="223.2" y1="337.8" x2="230.1" y2="343.7"/>
	</g>
	<g>
		<g>
			<path class="st8" d="M298.5,357.1l-0.5-38.3c0,0-10,7.9-12.1,15C281.4,348.4,298.5,357.1,298.5,357.1z"/>
		</g>
		<g>
			<path class="st8" d="M289.6,357.9l-25.4-19.5c0,0-3.8,12.3-1.1,17.7C268.7,367.5,289.6,357.9,289.6,357.9z"/>
		</g>
		<g>
			<path class="st8" d="M282.1,365.8l-35.4,10.8c0,0,4.6,9.5,10.6,10.1C269.6,387.9,282.1,365.8,282.1,365.8z"/>
		</g>
		<g>
			<path class="st8" d="M280.5,376l-24.6,34.7c0,0,10.3,1.1,16-3.4C283.8,397.7,280.5,376,280.5,376z"/>
		</g>
		<g>
			<path class="st8" d="M285.8,382.5l0.5,38.3c0,0,10-7.9,12.1-15C302.9,391.2,285.8,382.5,285.8,382.5z"/>
		</g>
		<g>
			<path class="st8" d="M294.7,381.7l25.4,19.5c0,0,3.8-12.3,1.1-17.7C315.6,372.1,294.7,381.7,294.7,381.7z"/>
		</g>
		<g>
			<path class="st8" d="M302.2,373.9l35.4-10.8c0,0-4.6-9.5-10.6-10.1C314.6,351.7,302.2,373.9,302.2,373.9z"/>
		</g>
		<g>
			<path class="st8" d="M303.7,363.7l24.6-34.7c0,0-10.3-1.1-16,3.4C300.5,341.9,303.7,363.7,303.7,363.7z"/>
		</g>
	</g>
</g>
<polyline class="st5" points="229.8,455 223.4,458.4 229.8,463.9 229.8,455.3 "/>
<polygon class="st5" points="350,289.6 350.4,281.4 356.9,287 "/>
<path class="st14" d="M146.3,529c-1.8-5.6-3.5-11.1-5.3-16.7c-5.3-1.5-10.6-3-16-4.5c5.3-1.9,16-5.5,16-5.5s3.4-10.5,5.2-15.7
	c1.6,5.3,3.2,10.6,4.9,15.9c5.5,1.8,10.9,3.5,16.4,5.3c-5.4,1.5-10.8,3.1-16.3,4.6C149.6,517.9,148,523.4,146.3,529z"/>
<path class="st14" d="M836.7,391.1c-3.6-11.4-7.2-22.8-10.8-34.2c-10.9-3-21.8-6.1-32.7-9.1c10.9-3.8,32.8-11.4,32.8-11.4
	s7.1-21.5,10.7-32.3c3.3,10.9,6.6,21.7,9.9,32.5c11.2,3.6,22.4,7.2,33.6,10.8c-11.1,3.2-22.2,6.3-33.3,9.5
	C843.4,368.3,840,379.7,836.7,391.1z"/>
<path class="st14" d="M805.7,270.1c-1.8-5.6-3.5-11.1-5.3-16.7c-5.3-1.5-10.7-3-16-4.5c5.3-1.9,16-5.5,16-5.5s3.5-10.5,5.2-15.7
	c1.6,5.3,3.2,10.6,4.8,15.9c5.5,1.8,10.9,3.5,16.4,5.3c-5.4,1.5-10.8,3.1-16.3,4.6C809,259,807.3,264.6,805.7,270.1z"/>
<path class="st14" d="M105.7,492.4c-3.6-11.4-7.2-22.8-10.8-34.2c-10.9-3-21.8-6.1-32.7-9.1c10.9-3.8,32.8-11.4,32.8-11.4
	s7.1-21.5,10.7-32.3c3.3,10.9,6.6,21.7,9.9,32.5c11.2,3.6,22.4,7.2,33.6,10.8c-11.1,3.2-22.2,6.3-33.3,9.5
	C112.4,469.6,109.1,481,105.7,492.4z"/>
<path class="st14" d="M765.7,882.4c-3.6-11.4-7.2-22.8-10.8-34.2c-10.9-3-21.8-6.1-32.7-9.1c10.9-3.8,32.8-11.4,32.8-11.4
	s7.1-21.5,10.7-32.3c3.3,10.8,6.6,21.7,9.9,32.5c11.2,3.6,22.4,7.2,33.6,10.8c-11.1,3.2-22.2,6.3-33.3,9.5
	C772.4,859.6,769,871,765.7,882.4z"/>
<path class="st14" d="M735.7,920.1c-1.8-5.6-3.5-11.1-5.3-16.7c-5.3-1.5-10.7-3-16-4.5c5.3-1.8,16-5.5,16-5.5s3.5-10.5,5.2-15.7
	c1.6,5.3,3.2,10.6,4.8,15.9c5.5,1.8,10.9,3.5,16.4,5.3c-5.4,1.5-10.8,3.1-16.3,4.6C739,909,737.3,914.6,735.7,920.1z"/>
<path class="st14" d="M825.7,830.1c-1.8-5.6-3.5-11.1-5.3-16.7c-5.3-1.5-10.7-3-16-4.5c5.3-1.8,16-5.5,16-5.5s3.5-10.5,5.2-15.7
	c1.6,5.3,3.2,10.6,4.8,15.9c5.5,1.8,10.9,3.5,16.4,5.3c-5.4,1.5-10.8,3.1-16.3,4.6C829,819,827.3,824.6,825.7,830.1z"/>
<linearGradient id="SVGID_00000169542180259103960920000001040131929916974725_" gradientUnits="userSpaceOnUse" x1="199.3" y1="388.45" x2="500" y2="388.45" gradientTransform="matrix(1 0 0 -1 0 1000)">
	<stop  offset="0" style="stop-color:#52120D"/>
	<stop  offset="4.601109e-02" style="stop-color:#601611"/>
	<stop  offset="0.1965" style="stop-color:#8A221E"/>
	<stop  offset="0.3504" style="stop-color:#AC2C28"/>
	<stop  offset="0.5061" style="stop-color:#C73430"/>
	<stop  offset="0.6645" style="stop-color:#DA3A36"/>
	<stop  offset="0.827" style="stop-color:#E53D39"/>
	<stop  offset="1" style="stop-color:#E93E3A"/>
</linearGradient>
<polygon style="fill:url(#SVGID_00000169542180259103960920000001040131929916974725_);" points="199.3,507.8 199.3,570.8 
	500,715.3 "/>
<linearGradient id="SVGID_00000168113387326302897640000012061151369407137952_" gradientUnits="userSpaceOnUse" x1="401" y1="757.65" x2="456.1" y2="757.65" gradientTransform="matrix(1 0 0 -1 0 1000)">
	<stop  offset="0" style="stop-color:#52120D"/>
	<stop  offset="4.601109e-02" style="stop-color:#601611"/>
	<stop  offset="0.1965" style="stop-color:#8A221E"/>
	<stop  offset="0.3504" style="stop-color:#AC2C28"/>
	<stop  offset="0.5061" style="stop-color:#C73430"/>
	<stop  offset="0.6645" style="stop-color:#DA3A36"/>
	<stop  offset="0.827" style="stop-color:#E53D39"/>
	<stop  offset="1" style="stop-color:#E93E3A"/>
</linearGradient>
<polygon style="fill:url(#SVGID_00000168113387326302897640000012061151369407137952_);" points="401,193.1 401,275.1 456.1,291.6 
	456.1,225.6 "/>
<path class="st0" d="M401,193.1"/>
<polygon points="401,193 406.1,189.7 461.2,222.2 461.2,288.2 456.1,291.5 456.1,225.5 "/>
<linearGradient id="SVGID_00000133512592801470588990000014636784456737321885_" gradientUnits="userSpaceOnUse" x1="513.8" y1="344.25" x2="608.2" y2="344.25" gradientTransform="matrix(1 0 0 -1 0 1000)">
	<stop  offset="0" style="stop-color:#7D1416"/>
	<stop  offset="6.022996e-02" style="stop-color:#8A191A"/>
	<stop  offset="0.2389" style="stop-color:#AC2626"/>
	<stop  offset="0.4213" style="stop-color:#C7312F"/>
	<stop  offset="0.6068" style="stop-color:#DA3835"/>
	<stop  offset="0.7972" style="stop-color:#E53D39"/>
	<stop  offset="1" style="stop-color:#E93E3A"/>
</linearGradient>
<polygon style="fill:url(#SVGID_00000133512592801470588990000014636784456737321885_);stroke:#231F20;stroke-miterlimit:10;" points="
	513.8,656 513.8,700 608.2,611.5 "/>
<linearGradient id="SVGID_00000102536978667732283520000015911943006698098572_" gradientUnits="userSpaceOnUse" x1="320.7" y1="364.8" x2="504.4" y2="364.8" gradientTransform="matrix(1 0 0 -1 0 1000)">
	<stop  offset="0" style="stop-color:#7D1416"/>
	<stop  offset="6.022996e-02" style="stop-color:#8A191A"/>
	<stop  offset="0.2389" style="stop-color:#AC2626"/>
	<stop  offset="0.4213" style="stop-color:#C7312F"/>
	<stop  offset="0.6068" style="stop-color:#DA3835"/>
	<stop  offset="0.7972" style="stop-color:#E53D39"/>
	<stop  offset="1" style="stop-color:#E93E3A"/>
</linearGradient>
<polygon style="fill:url(#SVGID_00000102536978667732283520000015911943006698098572_);stroke:#231F20;stroke-miterlimit:10;" points="
	504.4,655.7 504.4,704.2 320.7,566.2 "/>
<polygon class="st19" points="401.5,550.3 279.7,485.5 375.4,441.8 497.1,506.5 "/>
<polygon class="st19" points="449.3,566.6 429.2,559.6 533.5,519.3 553.5,526.2 "/>
<polygon class="st19" points="482.1,581.4 462,574.5 566.3,534.2 586.3,541.1 "/>
<polygon class="st19" points="512.1,591.4 492,584.5 596.3,544.2 616.3,551.1 "/>
</svg>
